{
copyright = "Copyright (c) 2015, Cadson Demak (info@cadsondemak.com)";
customParameters = (
{
name = vendorID;
value = CDK;
},
{
name = description;
value = "Copyright (c) 2015, Cadson Demak (info@cadsondemak.com)";
},
{
name = license;

glyphs = (
{
glyphname = A;
lastChange = "2015-10-25 05:59:50 +0000";
layers = (
{
layerId = "45AE5D37-AE90-4B36-85E4-274E7BAA8508";
name = "Light Italic";
paths = (
{
closed = 1;
nodes = (
"52 0 LINE",
"169 200 LINE",
"492 200 LINE",
"525 0 LINE",
"550 0 LINE",
"444 644 LINE",
"399 644 LINE",
"20 0 LINE"
);
},
{
closed = 1;
nodes = (
"421 628 LINE",
"487 225 LINE",
"183 225 LINE"
);
}
);
width = 650;
}
);
leftKerningGroup = A;
note = A;
rightKerningGroup = A;
unicode = 0041;
},
{
glyphname = Aacute;
lastChange = "2015-10-25 05:59:50 +0000";
layers = (
{
layerId = "45AE5D37-AE90-4B36-85E4-274E7BAA8508";
name = "Light Italic";
paths = (
{
closed = 1;
nodes = (
"52 0 LINE",
"169 200 LINE",
"492 200 LINE",
"525 0 LINE",
"550 0 LINE",
"444 644 LINE",
"399 644 LINE",
"20 0 LINE"
);
},
{
closed = 1;
nodes = (
"421 628 LINE",
"487 225 LINE",
"183 225 LINE"
);
},
{
closed = 1;
nodes = (
"438 688 LINE",
"540 837 LINE",
"510 837 LINE",
"415 688 LINE"
);
}
);
width = 650;
}
);
leftKerningGroup = A;
note = Aacute;
rightKerningGroup = A;
unicode = 00C1;
},
{
glyphname = Abreve;
lastChange = "2015-10-25 05:59:50 +0000";
layers = (
{
layerId = "45AE5D37-AE90-4B36-85E4-274E7BAA8508";
name = "Light Italic";
paths = (
{
closed = 1;
nodes = (
"52 0 LINE",
"169 200 LINE",
"492 200 LINE",
"525 0 LINE",
"550 0 LINE",
"444 644 LINE",
"399 644 LINE",
"20 0 LINE"
);
},
{
closed = 1;
nodes = (
"421 628 LINE",
"487 225 LINE",
"183 225 LINE"
);
},
{
closed = 1;
nodes = (
"485 688 OFFCURVE",
"535 730 OFFCURVE",
"547 783 CURVE",
"520 783 LINE",
"511 743 OFFCURVE",
"475 713 OFFCURVE",
"434 713 CURVE SMOOTH",
"394 713 OFFCURVE",
"370 743 OFFCURVE",
"379 783 CURVE",
"356 783 LINE",
"344 730 OFFCURVE",
"378 688 OFFCURVE",
"431 688 CURVE SMOOTH"
);
}
);
width = 650;
}
);
leftKerningGroup = A;
note = Abreve;
rightKerningGroup = A;
unicode = 0102;
},
{
glyphname = Abreveacute;
lastChange = "2015-10-25 05:59:50 +0000";
layers = (
{
layerId = "45AE5D37-AE90-4B36-85E4-274E7BAA8508";
name = "Light Italic";
paths = (
{
closed = 1;
nodes = (
"52 0 LINE",
"169 200 LINE",
"492 200 LINE",
"525 0 LINE",
"550 0 LINE",
"444 644 LINE",
"399 644 LINE",
"20 0 LINE"
);
},
{
closed = 1;
nodes = (
"421 628 LINE",
"487 225 LINE",
"183 225 LINE"
);
},
{
closed = 1;
nodes = (
"502 688 OFFCURVE",
"568 720 OFFCURVE",
"587 812 CURVE",
"561 812 LINE",
"547 743 OFFCURVE",
"496 713 OFFCURVE",
"435 713 CURVE SMOOTH",
"368 713 OFFCURVE",
"337 743 OFFCURVE",
"351 812 CURVE",
"327 812 LINE",
"308 720 OFFCURVE",
"365 688 OFFCURVE",
"431 688 CURVE SMOOTH"
);
},
{
closed = 1;
nodes = (
"448 780 LINE",
"536 889 LINE",
"507 889 LINE",
"426 780 LINE"
);
}
);
width = 650;
}
);
leftKerningGroup = A;
note = Abreveacute;
rightKerningGroup = A;
unicode = 1EAE;
},
{
glyphname = Abrevedotbelow;
lastChange = "2015-10-25 05:59:50 +0000";
layers = (
{
layerId = "45AE5D37-AE90-4B36-85E4-274E7BAA8508";
name = "Light Italic";
paths = (
{
closed = 1;
nodes = (
"52 0 LINE",
"169 200 LINE",
"492 200 LINE",
"525 0 LINE",
"550 0 LINE",
"444 644 LINE",
"399 644 LINE",
"20 0 LINE"
);
},
{
closed = 1;
nodes = (
"275 -139 LINE",
"283 -102 LINE",
"246 -102 LINE",
"238 -139 LINE"
);
},
{
closed = 1;
nodes = (
"421 628 LINE",
"487 225 LINE",
"183 225 LINE"
);
},
{
closed = 1;
nodes = (
"485 688 OFFCURVE",
"535 730 OFFCURVE",
"547 783 CURVE",
"520 783 LINE",
"511 743 OFFCURVE",
"475 713 OFFCURVE",
"434 713 CURVE SMOOTH",
"394 713 OFFCURVE",
"370 743 OFFCURVE",
"379 783 CURVE",
"356 783 LINE",
"344 730 OFFCURVE",
"378 688 OFFCURVE",
"431 688 CURVE SMOOTH"
);
}
);
width = 650;
}
);
leftKerningGroup = A;
note = Abrevedotbelow;
rightKerningGroup = A;
unicode = 1EB6;
},
{
glyphname = Abrevegrave;
lastChange = "2015-10-25 05:59:50 +0000";
layers = (
{
layerId = "45AE5D37-AE90-4B36-85E4-274E7BAA8508";
name = "Light Italic";
paths = (
{
closed = 1;
nodes = (
"52 0 LINE",
"169 200 LINE",
"492 200 LINE",
"525 0 LINE",
"550 0 LINE",
"444 644 LINE",
"399 644 LINE",
"20 0 LINE"
);
},
{
closed = 1;
nodes = (
"421 628 LINE",
"487 225 LINE",
"183 225 LINE"
);
},
{
closed = 1;
nodes = (
"502 688 OFFCURVE",
"568 720 OFFCURVE",
"587 812 CURVE",
"561 812 LINE",
"547 743 OFFCURVE",
"496 713 OFFCURVE",
"435 713 CURVE SMOOTH",
"368 713 OFFCURVE",
"337 743 OFFCURVE",
"351 812 CURVE",
"327 812 LINE",
"308 720 OFFCURVE",
"365 688 OFFCURVE",
"431 688 CURVE SMOOTH"
);
},
{
closed = 1;
nodes = (
"474 780 LINE",
"441 889 LINE",
"412 889 LINE",
"452 780 LINE"
);
}
);
width = 650;
}
);
leftKerningGroup = A;
note = Abrevegrave;
rightKerningGroup = A;
unicode = 1EB0;
},
{
glyphname = Abrevehookabove;
lastChange = "2015-10-25 05:59:50 +0000";
layers = (
{
layerId = "45AE5D37-AE90-4B36-85E4-274E7BAA8508";
name = "Light Italic";
paths = (
{
closed = 1;
nodes = (
"52 0 LINE",
"169 200 LINE",
"492 200 LINE",
"525 0 LINE",
"550 0 LINE",
"444 644 LINE",
"399 644 LINE",
"20 0 LINE"
);
},
{
closed = 1;
nodes = (
"421 628 LINE",
"487 225 LINE",
"183 225 LINE"
);
},
{
closed = 1;
nodes = (
"502 688 OFFCURVE",
"568 720 OFFCURVE",
"587 812 CURVE",
"561 812 LINE",
"547 743 OFFCURVE",
"496 713 OFFCURVE",
"435 713 CURVE SMOOTH",
"368 713 OFFCURVE",
"337 743 OFFCURVE",
"351 812 CURVE",
"327 812 LINE",
"308 720 OFFCURVE",
"365 688 OFFCURVE",
"431 688 CURVE SMOOTH"
);
},
{
closed = 1;
nodes = (
"442 759 LINE",
"450 796 LINE",
"509 802 OFFCURVE",
"537 823 OFFCURVE",
"546 865 CURVE SMOOTH",
"555 910 OFFCURVE",
"526 934 OFFCURVE",
"480 934 CURVE SMOOTH",
"456 934 OFFCURVE",
"435 929 OFFCURVE",
"418 922 CURVE",
"412 897 LINE",
"432 905 OFFCURVE",
"451 910 OFFCURVE",
"475 910 CURVE SMOOTH",
"515 910 OFFCURVE",
"527 894 OFFCURVE",
"521 865 CURVE SMOOTH",
"514 834 OFFCURVE",
"499 819 OFFCURVE",
"426 815 CURVE",
"414 759 LINE"
);
}
);
width = 650;
}
);
leftKerningGroup = A;
note = Abrevehookabove;
rightKerningGroup = A;
unicode = 1EB2;
},
{
glyphname = Abrevetilde;
lastChange = "2015-10-25 05:59:50 +0000";
layers = (
{
layerId = "45AE5D37-AE90-4B36-85E4-274E7BAA8508";
name = "Light Italic";
paths = (
{
closed = 1;
nodes = (
"52 0 LINE",
"169 200 LINE",
"492 200 LINE",
"525 0 LINE",
"550 0 LINE",
"444 644 LINE",
"399 644 LINE",
"20 0 LINE"
);
},
{
closed = 1;
nodes = (
"421 628 LINE",
"487 225 LINE",
"183 225 LINE"
);
},
{
closed = 1;
nodes = (
"502 688 OFFCURVE",
"568 720 OFFCURVE",
"587 812 CURVE",
"561 812 LINE",
"547 743 OFFCURVE",
"496 713 OFFCURVE",
"435 713 CURVE SMOOTH",
"368 713 OFFCURVE",
"337 743 OFFCURVE",
"351 812 CURVE",
"327 812 LINE",
"308 720 OFFCURVE",
"365 688 OFFCURVE",
"431 688 CURVE SMOOTH"
);
},
{
closed = 1;
nodes = (
"365 874 OFFCURVE",
"389 880 OFFCURVE",
"417 880 CURVE SMOOTH",
"454 880 OFFCURVE",
"474 848 OFFCURVE",
"520 848 CURVE SMOOTH",
"549 848 OFFCURVE",
"576 857 OFFCURVE",
"595 874 CURVE",
"602 905 LINE",
"573 879 OFFCURVE",
"550 873 OFFCURVE",
"522 873 CURVE SMOOTH",
"479 873 OFFCURVE",
"468 905 OFFCURVE",
"419 905 CURVE SMOOTH",
"390 905 OFFCURVE",
"363 896 OFFCURVE",
"343 879 CURVE",
"337 848 LINE"
);
}
);
width = 650;
}
);
leftKerningGroup = A;
note = Abrevetilde;
rightKerningGroup = A;
unicode = 1EB4;
},
{
glyphname = Acaron;
lastChange = "2015-10-25 05:59:50 +0000";
layers = (
{
layerId = "45AE5D37-AE90-4B36-85E4-274E7BAA8508";
name = "Light Italic";
paths = (
{
closed = 1;
nodes = (
"52 0 LINE",
"169 200 LINE",
"492 200 LINE",
"525 0 LINE",
"550 0 LINE",
"444 644 LINE",
"399 644 LINE",
"20 0 LINE"
);
},
{
closed = 1;
nodes = (
"421 628 LINE",
"487 225 LINE",
"183 225 LINE"
);
},
{
closed = 1;
nodes = (
"446 688 LINE",
"567 810 LINE",
"536 810 LINE",
"433 706 LINE",
"374 810 LINE",
"347 810 LINE",
"416 688 LINE"
);
}
);
width = 650;
}
);
leftKerningGroup = A;
note = Acaron;
rightKerningGroup = A;
unicode = 01CD;
},
{
glyphname = Acircumflex;
lastChange = "2015-10-25 05:59:50 +0000";
layers = (
{
layerId = "45AE5D37-AE90-4B36-85E4-274E7BAA8508";
name = "Light Italic";
paths = (
{
closed = 1;
nodes = (
"52 0 LINE",
"169 200 LINE",
"492 200 LINE",
"525 0 LINE",
"550 0 LINE",
"444 644 LINE",
"399 644 LINE",
"20 0 LINE"
);
},
{
closed = 1;
nodes = (
"421 628 LINE",
"487 225 LINE",
"183 225 LINE"
);
},
{
closed = 1;
nodes = (
"352 688 LINE",
"455 792 LINE",
"514 688 LINE",
"541 688 LINE",
"472 810 LINE",
"442 810 LINE",
"322 688 LINE"
);
}
);
width = 650;
}
);
leftKerningGroup = A;
note = Acircumflex;
rightKerningGroup = A;
unicode = 00C2;
},
{
glyphname = Acircumflexacute;
lastChange = "2015-10-25 05:59:50 +0000";
layers = (
{
layerId = "45AE5D37-AE90-4B36-85E4-274E7BAA8508";
name = "Light Italic";
paths = (
{
closed = 1;
nodes = (
"52 0 LINE",
"169 200 LINE",
"492 200 LINE",
"525 0 LINE",
"550 0 LINE",
"444 644 LINE",
"399 644 LINE",
"20 0 LINE"
);
},
{
closed = 1;
nodes = (
"421 628 LINE",
"487 225 LINE",
"183 225 LINE"
);
},
{
closed = 1;
nodes = (
"351 688 LINE",
"450 774 LINE",
"513 688 LINE",
"540 688 LINE",
"466 790 LINE",
"436 790 LINE",
"320 688 LINE"
);
},
{
closed = 1;
nodes = (
"532 790 LINE",
"619 899 LINE",
"591 899 LINE",
"510 790 LINE"
);
}
);
width = 650;
}
);
leftKerningGroup = A;
note = Acircumflexacute;
rightKerningGroup = A;
unicode = 1EA4;
},
{
glyphname = Acircumflexdotbelow;
lastChange = "2015-10-25 05:59:50 +0000";
layers = (
{
layerId = "45AE5D37-AE90-4B36-85E4-274E7BAA8508";
name = "Light Italic";
paths = (
{
closed = 1;
nodes = (
"52 0 LINE",
"169 200 LINE",
"492 200 LINE",
"525 0 LINE",
"550 0 LINE",
"444 644 LINE",
"399 644 LINE",
"20 0 LINE"
);
},
{
closed = 1;
nodes = (
"275 -139 LINE",
"283 -102 LINE",
"246 -102 LINE",
"238 -139 LINE"
);
},
{
closed = 1;
nodes = (
"421 628 LINE",
"487 225 LINE",
"183 225 LINE"
);
},
{
closed = 1;
nodes = (
"352 688 LINE",
"455 792 LINE",
"514 688 LINE",
"541 688 LINE",
"472 810 LINE",
"442 810 LINE",
"322 688 LINE"
);
}
);
width = 650;
}
);
leftKerningGroup = A;
note = Acircumflexdotbelow;
rightKerningGroup = A;
unicode = 1EAC;
},
{
glyphname = Acircumflexgrave;
lastChange = "2015-10-25 05:59:50 +0000";
layers = (
{
layerId = "45AE5D37-AE90-4B36-85E4-274E7BAA8508";
name = "Light Italic";
paths = (
{
closed = 1;
nodes = (
"52 0 LINE",
"169 200 LINE",
"492 200 LINE",
"525 0 LINE",
"550 0 LINE",
"444 644 LINE",
"399 644 LINE",
"20 0 LINE"
);
},
{
closed = 1;
nodes = (
"421 628 LINE",
"487 225 LINE",
"183 225 LINE"
);
},
{
closed = 1;
nodes = (
"359 688 LINE",
"458 774 LINE",
"521 688 LINE",
"548 688 LINE",
"474 790 LINE",
"444 790 LINE",
"328 688 LINE"
);
},
{
closed = 1;
nodes = (
"400 790 LINE",
"367 899 LINE",
"338 899 LINE",
"378 790 LINE"
);
}
);
width = 650;
}
);
leftKerningGroup = A;
note = Acircumflexgrave;
rightKerningGroup = A;
unicode = 1EA6;
},
{
glyphname = Acircumflexhookabove;
lastChange = "2015-10-25 05:59:50 +0000";
layers = (
{
layerId = "45AE5D37-AE90-4B36-85E4-274E7BAA8508";
name = "Light Italic";
paths = (
{
closed = 1;
nodes = (
"52 0 LINE",
"169 200 LINE",
"492 200 LINE",
"525 0 LINE",
"550 0 LINE",
"444 644 LINE",
"399 644 LINE",
"20 0 LINE"
);
},
{
closed = 1;
nodes = (
"421 628 LINE",
"487 225 LINE",
"183 225 LINE"
);
},
{
closed = 1;
nodes = (
"355 688 LINE",
"454 774 LINE",
"517 688 LINE",
"544 688 LINE",
"470 790 LINE",
"440 790 LINE",
"324 688 LINE"
);
},
{
closed = 1;
nodes = (
"545 769 LINE",
"553 806 LINE",
"611 812 OFFCURVE",
"640 833 OFFCURVE",
"648 875 CURVE SMOOTH",
"658 920 OFFCURVE",
"632 944 OFFCURVE",
"582 944 CURVE SMOOTH",
"559 944 OFFCURVE",
"538 939 OFFCURVE",
"521 932 CURVE",
"515 907 LINE",
"535 915 OFFCURVE",
"554 920 OFFCURVE",
"577 920 CURVE SMOOTH",
"615 920 OFFCURVE",
"630 904 OFFCURVE",
"623 875 CURVE",
"617 844 OFFCURVE",
"601 829 OFFCURVE",
"529 825 CURVE",
"517 769 LINE"
);
}
);
width = 650;
}
);
leftKerningGroup = A;
note = Acircumflexhookabove;
rightKerningGroup = A;
unicode = 1EA8;
},
{
glyphname = Acircumflextilde;
lastChange = "2015-10-25 05:59:49 +0000";
layers = (
{
layerId = "45AE5D37-AE90-4B36-85E4-274E7BAA8508";
name = "Light Italic";
paths = (
{
closed = 1;
nodes = (
"52 0 LINE",
"169 200 LINE",
"492 200 LINE",
"525 0 LINE",
"550 0 LINE",
"444 644 LINE",
"399 644 LINE",
"20 0 LINE"
);
},
{
closed = 1;
nodes = (
"421 628 LINE",
"487 225 LINE",
"183 225 LINE"
);
},
{
closed = 1;
nodes = (
"351 688 LINE",
"450 774 LINE",
"513 688 LINE",
"540 688 LINE",
"466 790 LINE",
"436 790 LINE",
"320 688 LINE"
);
},
{
closed = 1;
nodes = (
"359 829 OFFCURVE",
"382 835 OFFCURVE",
"410 835 CURVE SMOOTH",
"447 835 OFFCURVE",
"467 803 OFFCURVE",
"513 803 CURVE SMOOTH",
"542 803 OFFCURVE",
"568 812 OFFCURVE",
"588 829 CURVE",
"594 860 LINE",
"566 834 OFFCURVE",
"543 828 OFFCURVE",
"515 828 CURVE SMOOTH",
"472 828 OFFCURVE",
"461 860 OFFCURVE",
"412 860 CURVE SMOOTH",
"383 860 OFFCURVE",
"356 851 OFFCURVE",
"337 834 CURVE",
"330 803 LINE"
);
}
);
width = 650;
}
);
leftKerningGroup = A;
note = Acircumflextilde;
rightKerningGroup = A;
unicode = 1EAA;
},
{
glyphname = Adieresis;
lastChange = "2015-10-25 05:59:50 +0000";
layers = (
{
layerId = "45AE5D37-AE90-4B36-85E4-274E7BAA8508";
name = "Light Italic";
paths = (
{
closed = 1;
nodes = (
"52 0 LINE",
"169 200 LINE",
"492 200 LINE",
"525 0 LINE",
"550 0 LINE",
"444 644 LINE",
"399 644 LINE",
"20 0 LINE"
);
},
{
closed = 1;
nodes = (
"421 628 LINE",
"487 225 LINE",
"183 225 LINE"
);
},
{
closed = 1;
nodes = (
"376 718 LINE",
"383 753 LINE",
"348 753 LINE",
"341 718 LINE"
);
},
{
closed = 1;
nodes = (
"533 718 LINE",
"540 753 LINE",
"505 753 LINE",
"498 718 LINE"
);
}
);
width = 650;
}
);
leftKerningGroup = A;
note = Adieresis;
rightKerningGroup = A;
unicode = 00C4;
},
{
glyphname = Adotbelow;
lastChange = "2015-10-25 05:59:50 +0000";
layers = (
{
layerId = "45AE5D37-AE90-4B36-85E4-274E7BAA8508";
name = "Light Italic";
paths = (
{
closed = 1;
nodes = (
"52 0 LINE",
"169 200 LINE",
"492 200 LINE",
"525 0 LINE",
"550 0 LINE",
"444 644 LINE",
"399 644 LINE",
"20 0 LINE"
);
},
{
closed = 1;
nodes = (
"275 -139 LINE",
"283 -102 LINE",
"246 -102 LINE",
"238 -139 LINE"
);
},
{
closed = 1;
nodes = (
"421 628 LINE",
"487 225 LINE",
"183 225 LINE"
);
}
);
width = 650;
}
);
leftKerningGroup = A;
note = Adotbelow;
rightKerningGroup = A;
unicode = 1EA0;
},
{
glyphname = Agrave;
lastChange = "2015-10-25 05:59:50 +0000";
layers = (
{
layerId = "45AE5D37-AE90-4B36-85E4-274E7BAA8508";
name = "Light Italic";
paths = (
{
closed = 1;
nodes = (
"52 0 LINE",
"169 200 LINE",
"492 200 LINE",
"525 0 LINE",
"550 0 LINE",
"444 644 LINE",
"399 644 LINE",
"20 0 LINE"
);
},
{
closed = 1;
nodes = (
"421 628 LINE",
"487 225 LINE",
"183 225 LINE"
);
},
{
closed = 1;
nodes = (
"442 688 LINE",
"411 837 LINE",
"381 837 LINE",
"419 688 LINE"
);
}
);
width = 650;
}
);
leftKerningGroup = A;
note = Agrave;
rightKerningGroup = A;
unicode = 00C0;
},
{
glyphname = Ahookabove;
lastChange = "2015-10-25 05:59:50 +0000";
layers = (
{
layerId = "45AE5D37-AE90-4B36-85E4-274E7BAA8508";
name = "Light Italic";
paths = (
{
closed = 1;
nodes = (
"52 0 LINE",
"169 200 LINE",
"492 200 LINE",
"525 0 LINE",
"550 0 LINE",
"444 644 LINE",
"399 644 LINE",
"20 0 LINE"
);
},
{
closed = 1;
nodes = (
"421 628 LINE",
"487 225 LINE",
"183 225 LINE"
);
},
{
closed = 1;
nodes = (
"444 688 LINE",
"456 744 LINE",
"528 750 OFFCURVE",
"555 778 OFFCURVE",
"567 830 CURVE SMOOTH",
"578 885 OFFCURVE",
"544 915 OFFCURVE",
"474 915 CURVE SMOOTH",
"454 915 OFFCURVE",
"419 910 OFFCURVE",
"401 903 CURVE",
"396 878 LINE",
"415 885 OFFCURVE",
"445 890 OFFCURVE",
"467 890 CURVE SMOOTH",
"534 890 OFFCURVE",
"550 869 OFFCURVE",
"542 830 CURVE SMOOTH",
"533 789 OFFCURVE",
"518 766 OFFCURVE",
"432 763 CURVE",
"416 688 LINE"
);
}
);
width = 650;
}
);
leftKerningGroup = A;
note = Ahookabove;
rightKerningGroup = A;
unicode = 1EA2;
},
{
glyphname = Amacron;
lastChange = "2015-10-25 05:59:50 +0000";
layers = (
{
layerId = "45AE5D37-AE90-4B36-85E4-274E7BAA8508";
name = "Light Italic";
paths = (
{
closed = 1;
nodes = (
"52 0 LINE",
"169 200 LINE",
"492 200 LINE",
"525 0 LINE",
"550 0 LINE",
"444 644 LINE",
"399 644 LINE",
"20 0 LINE"
);
},
{
closed = 1;
nodes = (
"421 628 LINE",
"487 225 LINE",
"183 225 LINE"
);
},
{
closed = 1;
nodes = (
"570 718 LINE",
"576 743 LINE",
"310 743 LINE",
"304 718 LINE"
);
}
);
width = 650;
}
);
leftKerningGroup = A;
note = Amacron;
rightKerningGroup = A;
unicode = 0100;
},
{
glyphname = Aogonek;
lastChange = "2015-10-25 05:59:50 +0000";
layers = (
{
layerId = "45AE5D37-AE90-4B36-85E4-274E7BAA8508";
name = "Light Italic";
paths = (
{
closed = 1;
nodes = (
"498 -220 OFFCURVE",
"518 -217 OFFCURVE",
"534 -209 CURVE",
"539 -184 LINE",
"526 -191 OFFCURVE",
"505 -195 OFFCURVE",
"488 -195 CURVE SMOOTH",
"444 -195 OFFCURVE",
"436 -176 OFFCURVE",
"445 -135 CURVE SMOOTH",
"455 -88 OFFCURVE",
"489 -39 OFFCURVE",
"550 0 CURVE",
"444 644 LINE",
"399 644 LINE",
"20 0 LINE",
"52 0 LINE",
"169 200 LINE",
"492 200 LINE",
"525 0 LINE",
"476 -27 OFFCURVE",
"429 -80 OFFCURVE",
"418 -135 CURVE SMOOTH",
"404 -198 OFFCURVE",
"438 -220 OFFCURVE",
"483 -220 CURVE SMOOTH"
);
},
{
closed = 1;
nodes = (
"421 628 LINE",
"487 225 LINE",
"183 225 LINE"
);
}
);
width = 644;
}
);
leftKerningGroup = A;
note = Aogonek;
rightKerningGroup = A;
unicode = 0104;
},
{
glyphname = Aring;
lastChange = "2015-10-25 05:59:50 +0000";
layers = (
{
layerId = "45AE5D37-AE90-4B36-85E4-274E7BAA8508";
name = "Light Italic";
paths = (
{
closed = 1;
nodes = (
"52 0 LINE",
"169 200 LINE",
"492 200 LINE",
"525 0 LINE",
"550 0 LINE",
"446 631 LINE",
"491 642 OFFCURVE",
"525 679 OFFCURVE",
"534 723 CURVE SMOOTH",
"545 777 OFFCURVE",
"515 819 OFFCURVE",
"458 819 CURVE SMOOTH",
"401 819 OFFCURVE",
"354 777 OFFCURVE",
"343 723 CURVE SMOOTH",
"334 679 OFFCURVE",
"352 642 OFFCURVE",
"391 631 CURVE",
"20 0 LINE"
);
},
{
closed = 1;
nodes = (
"421 628 LINE",
"487 225 LINE",
"183 225 LINE"
);
},
{
closed = 1;
nodes = (
"372 653 OFFCURVE",
"359 683 OFFCURVE",
"368 723 CURVE SMOOTH",
"376 764 OFFCURVE",
"413 794 OFFCURVE",
"453 794 CURVE SMOOTH",
"507 794 OFFCURVE",
"518 764 OFFCURVE",
"509 723 CURVE SMOOTH",
"501 683 OFFCURVE",
"464 653 OFFCURVE",
"423 653 CURVE SMOOTH"
);
}
);
width = 650;
}
);
leftKerningGroup = A;
note = Aring;
rightKerningGroup = A;
unicode = 00C5;
},
{
glyphname = Aringacute;
lastChange = "2015-10-25 05:59:50 +0000";
layers = (
{
layerId = "45AE5D37-AE90-4B36-85E4-274E7BAA8508";
name = "Light Italic";
paths = (
{
closed = 1;
nodes = (
"52 0 LINE",
"169 200 LINE",
"492 200 LINE",
"525 0 LINE",
"550 0 LINE",
"444 644 LINE",
"399 644 LINE",
"20 0 LINE"
);
},
{
closed = 1;
nodes = (
"421 628 LINE",
"487 225 LINE",
"183 225 LINE"
);
},
{
closed = 1;
nodes = (
"494 850 LINE",
"596 969 LINE",
"566 969 LINE",
"471 850 LINE"
);
}
);
width = 650;
}
);
leftKerningGroup = A;
note = Aringacute;
rightKerningGroup = A;
unicode = 01FA;
},
{
glyphname = Atilde;
lastChange = "2015-10-25 05:59:50 +0000";
layers = (
{
layerId = "45AE5D37-AE90-4B36-85E4-274E7BAA8508";
name = "Light Italic";
paths = (
{
closed = 1;
nodes = (
"52 0 LINE",
"169 200 LINE",
"492 200 LINE",
"525 0 LINE",
"550 0 LINE",
"444 644 LINE",
"399 644 LINE",
"20 0 LINE"
);
},
{
closed = 1;
nodes = (
"421 628 LINE",
"487 225 LINE",
"183 225 LINE"
);
},
{
closed = 1;
nodes = (
"534 718 OFFCURVE",
"557 728 OFFCURVE",
"574 746 CURVE",
"581 777 LINE",
"557 751 OFFCURVE",
"534 743 OFFCURVE",
"505 743 CURVE SMOOTH",
"462 743 OFFCURVE",
"441 779 OFFCURVE",
"392 779 CURVE SMOOTH",
"364 779 OFFCURVE",
"333 769 OFFCURVE",
"314 751 CURVE",
"308 720 LINE",
"335 747 OFFCURVE",
"362 754 OFFCURVE",
"390 754 CURVE SMOOTH",
"427 754 OFFCURVE",
"457 718 OFFCURVE",
"503 718 CURVE SMOOTH"
);
}
);
width = 650;
}
);
leftKerningGroup = A;
note = Atilde;
rightKerningGroup = A;
unicode = 00C3;
},
{
glyphname = AE;
lastChange = "2015-10-25 05:59:50 +0000";
layers = (
{
layerId = "45AE5D37-AE90-4B36-85E4-274E7BAA8508";
name = "Light Italic";
paths = (
{
closed = 1;
nodes = (
"49 0 LINE",
"166 200 LINE",
"414 200 LINE",
"372 0 LINE",
"725 0 LINE",
"730 25 LINE",
"405 25 LINE",
"465 309 LINE",
"755 309 LINE",
"761 335 LINE",
"471 335 LINE",
"531 618 LINE",
"856 618 LINE",
"861 644 LINE",
"399 644 LINE",
"20 0 LINE"
);
},
{
closed = 1;
nodes = (
"413 618 LINE",
"503 618 LINE",
"419 225 LINE",
"181 225 LINE"
);
}
);
width = 825;
}
);
leftKerningGroup = A;
note = AE;
rightKerningGroup = E;
unicode = 00C6;
},
{
glyphname = AEacute;
lastChange = "2015-10-25 05:59:49 +0000";
layers = (
{
layerId = "45AE5D37-AE90-4B36-85E4-274E7BAA8508";
name = "Light Italic";
paths = (
{
closed = 1;
nodes = (
"49 0 LINE",
"166 200 LINE",
"414 200 LINE",
"372 0 LINE",
"725 0 LINE",
"730 25 LINE",
"405 25 LINE",
"465 309 LINE",
"755 309 LINE",
"761 335 LINE",
"471 335 LINE",
"531 618 LINE",
"856 618 LINE",
"861 644 LINE",
"399 644 LINE",
"20 0 LINE"
);
},
{
closed = 1;
nodes = (
"413 618 LINE",
"503 618 LINE",
"419 225 LINE",
"181 225 LINE"
);
},
{
closed = 1;
nodes = (
"573 688 LINE",
"675 837 LINE",
"645 837 LINE",
"550 688 LINE"
);
}
);
width = 825;
}
);
leftKerningGroup = A;
note = AEacute;
rightKerningGroup = E;
unicode = 01FC;
},
{
glyphname = B;
lastChange = "2015-10-25 05:59:50 +0000";
layers = (
{
layerId = "45AE5D37-AE90-4B36-85E4-274E7BAA8508";
name = "Light Italic";
paths = (
{
closed = 1;
nodes = (
"330 0 LINE SMOOTH",
"452 0 OFFCURVE",
"524 54 OFFCURVE",
"550 181 CURVE SMOOTH",
"568 270 OFFCURVE",
"535 321 OFFCURVE",
"468 335 CURVE",
"527 357 OFFCURVE",
"571 405 OFFCURVE",
"586 478 CURVE SMOOTH",
"609 584 OFFCURVE",
"565 644 OFFCURVE",
"445 644 CURVE SMOOTH",
"176 644 LINE",
"40 0 LINE"
);
},
{
closed = 1;
nodes = (
"136 322 LINE",
"385 322 LINE SMOOTH",
"520 322 OFFCURVE",
"542 271 OFFCURVE",
"523 181 CURVE SMOOTH",
"499 69 OFFCURVE",
"443 25 OFFCURVE",
"339 25 CURVE SMOOTH",
"73 25 LINE"
);
},
{
closed = 1;
nodes = (
"199 619 LINE",
"435 619 LINE SMOOTH",
"562 619 OFFCURVE",
"578 568 OFFCURVE",
"559 478 CURVE SMOOTH",
"543 403 OFFCURVE",
"495 347 OFFCURVE",
"397 347 CURVE SMOOTH",
"141 347 LINE"
);
}
);
width = 612;
}
);
note = B;
unicode = 0042;
},
{
glyphname = C;
lastChange = "2015-10-25 05:59:50 +0000";
layers = (
{
layerId = "45AE5D37-AE90-4B36-85E4-274E7BAA8508";
name = "Light Italic";
paths = (
{
closed = 1;
nodes = (
"371 -10 OFFCURVE",
"433 -1 OFFCURVE",
"486 14 CURVE",
"492 40 LINE",
"439 24 OFFCURVE",
"370 15 OFFCURVE",
"312 15 CURVE SMOOTH",
"114 15 OFFCURVE",
"73 124 OFFCURVE",
"110 301 CURVE SMOOTH",
"152 494 OFFCURVE",
"245 629 OFFCURVE",
"439 629 CURVE SMOOTH",
"505 629 OFFCURVE",
"565 618 OFFCURVE",
"611 600 CURVE",
"617 626 LINE",
"570 644 OFFCURVE",
"513 654 OFFCURVE",
"442 654 CURVE SMOOTH",
"230 654 OFFCURVE",
"127 508 OFFCURVE",
"83 301 CURVE SMOOTH",
"44 117 OFFCURVE",
"100 -10 OFFCURVE",
"300 -10 CURVE SMOOTH"
);
}
);
width = 584;
}
);
leftKerningGroup = C;
note = C;
rightKerningGroup = C;
unicode = 0043;
},
{
glyphname = Cacute;
lastChange = "2015-10-25 05:59:50 +0000";
layers = (
{
layerId = "45AE5D37-AE90-4B36-85E4-274E7BAA8508";
name = "Light Italic";
paths = (
{
closed = 1;
nodes = (
"371 -10 OFFCURVE",
"433 -1 OFFCURVE",
"486 14 CURVE",
"492 40 LINE",
"439 24 OFFCURVE",
"370 15 OFFCURVE",
"312 15 CURVE SMOOTH",
"114 15 OFFCURVE",
"73 124 OFFCURVE",
"110 301 CURVE SMOOTH",
"152 494 OFFCURVE",
"245 629 OFFCURVE",
"439 629 CURVE SMOOTH",
"505 629 OFFCURVE",
"565 618 OFFCURVE",
"611 600 CURVE",
"617 626 LINE",
"570 644 OFFCURVE",
"513 654 OFFCURVE",
"442 654 CURVE SMOOTH",
"230 654 OFFCURVE",
"127 508 OFFCURVE",
"83 301 CURVE SMOOTH",
"44 117 OFFCURVE",
"100 -10 OFFCURVE",
"300 -10 CURVE SMOOTH"
);
},
{
closed = 1;
nodes = (
"455 688 LINE",
"557 837 LINE",
"527 837 LINE",
"432 688 LINE"
);
}
);
width = 584;
}
);
leftKerningGroup = C;
note = Cacute;
rightKerningGroup = C;
unicode = 0106;
},
{
glyphname = Ccaron;
lastChange = "2015-10-25 05:59:50 +0000";
layers = (
{
layerId = "45AE5D37-AE90-4B36-85E4-274E7BAA8508";
name = "Light Italic";
paths = (
{
closed = 1;
nodes = (
"371 -10 OFFCURVE",
"433 -1 OFFCURVE",
"486 14 CURVE",
"492 40 LINE",
"439 24 OFFCURVE",
"370 15 OFFCURVE",
"312 15 CURVE SMOOTH",
"114 15 OFFCURVE",
"73 124 OFFCURVE",
"110 301 CURVE SMOOTH",
"152 494 OFFCURVE",
"245 629 OFFCURVE",
"439 629 CURVE SMOOTH",
"505 629 OFFCURVE",
"565 618 OFFCURVE",
"611 600 CURVE",
"617 626 LINE",
"570 644 OFFCURVE",
"513 654 OFFCURVE",
"442 654 CURVE SMOOTH",
"230 654 OFFCURVE",
"127 508 OFFCURVE",
"83 301 CURVE SMOOTH",
"44 117 OFFCURVE",
"100 -10 OFFCURVE",
"300 -10 CURVE SMOOTH"
);
},
{
closed = 1;
nodes = (
"483 688 LINE",
"604 810 LINE",
"573 810 LINE",
"470 706 LINE",
"411 810 LINE",
"384 810 LINE",
"453 688 LINE"
);
}
);
width = 584;
}
);
leftKerningGroup = C;
note = Ccaron;
rightKerningGroup = C;
unicode = 010C;
},
{
glyphname = Ccedilla;
lastChange = "2015-10-25 05:59:50 +0000";
layers = (
{
layerId = "45AE5D37-AE90-4B36-85E4-274E7BAA8508";
name = "Light Italic";
paths = (
{
closed = 1;
nodes = (
"329 -240 OFFCURVE",
"375 -204 OFFCURVE",
"389 -139 CURVE SMOOTH",
"401 -81 OFFCURVE",
"361 -53 OFFCURVE",
"290 -53 CURVE",
"314 -10 LINE",
"379 -9 OFFCURVE",
"436 0 OFFCURVE",
"486 14 CURVE",
"492 40 LINE",
"439 24 OFFCURVE",
"370 15 OFFCURVE",
"312 15 CURVE SMOOTH",
"114 15 OFFCURVE",
"72 124 OFFCURVE",
"110 301 CURVE SMOOTH",
"151 494 OFFCURVE",
"245 629 OFFCURVE",
"439 629 CURVE SMOOTH",
"505 629 OFFCURVE",
"565 618 OFFCURVE",
"611 600 CURVE",
"617 626 LINE",
"570 644 OFFCURVE",
"513 654 OFFCURVE",
"442 654 CURVE SMOOTH",
"230 654 OFFCURVE",
"127 508 OFFCURVE",
"83 301 CURVE SMOOTH",
"45 121 OFFCURVE",
"97 -4 OFFCURVE",
"286 -10 CURVE",
"249 -76 LINE",
"277 -76 LINE SMOOTH",
"348 -76 OFFCURVE",
"372 -93 OFFCURVE",
"362 -141 CURVE SMOOTH",
"350 -195 OFFCURVE",
"311 -215 OFFCURVE",
"240 -215 CURVE SMOOTH",
"217 -215 OFFCURVE",
"194 -212 OFFCURVE",
"178 -207 CURVE",
"172 -232 LINE",
"186 -236 OFFCURVE",
"212 -240 OFFCURVE",
"233 -240 CURVE SMOOTH"
);
}
);
width = 584;
}
);
leftKerningGroup = C;
note = Ccedilla;
rightKerningGroup = C;
unicode = 00C7;
},
{
glyphname = Ccircumflex;
lastChange = "2015-10-25 05:59:50 +0000";
layers = (
{
layerId = "45AE5D37-AE90-4B36-85E4-274E7BAA8508";
name = "Light Italic";
paths = (
{
closed = 1;
nodes = (
"371 -10 OFFCURVE",
"433 -1 OFFCURVE",
"486 14 CURVE",
"492 40 LINE",
"439 24 OFFCURVE",
"370 15 OFFCURVE",
"312 15 CURVE SMOOTH",
"114 15 OFFCURVE",
"73 124 OFFCURVE",
"110 301 CURVE SMOOTH",
"152 494 OFFCURVE",
"245 629 OFFCURVE",
"439 629 CURVE SMOOTH",
"505 629 OFFCURVE",
"565 618 OFFCURVE",
"611 600 CURVE",
"617 626 LINE",
"570 644 OFFCURVE",
"513 654 OFFCURVE",
"442 654 CURVE SMOOTH",
"230 654 OFFCURVE",
"127 508 OFFCURVE",
"83 301 CURVE SMOOTH",
"44 117 OFFCURVE",
"100 -10 OFFCURVE",
"300 -10 CURVE SMOOTH"
);
},
{
closed = 1;
nodes = (
"367 688 LINE",
"470 792 LINE",
"529 688 LINE",
"556 688 LINE",
"487 810 LINE",
"457 810 LINE",
"337 688 LINE"
);
}
);
width = 584;
}
);
leftKerningGroup = C;
note = Ccircumflex;
rightKerningGroup = C;
unicode = 0108;
},
{
glyphname = Cdotaccent;
lastChange = "2015-10-25 05:59:49 +0000";
layers = (
{
layerId = "45AE5D37-AE90-4B36-85E4-274E7BAA8508";
name = "Light Italic";
paths = (
{
closed = 1;
nodes = (
"371 -10 OFFCURVE",
"433 -1 OFFCURVE",
"486 14 CURVE",
"492 40 LINE",
"439 24 OFFCURVE",
"370 15 OFFCURVE",
"312 15 CURVE SMOOTH",
"114 15 OFFCURVE",
"73 124 OFFCURVE",
"110 301 CURVE SMOOTH",
"152 494 OFFCURVE",
"245 629 OFFCURVE",
"439 629 CURVE SMOOTH",
"505 629 OFFCURVE",
"565 618 OFFCURVE",
"611 600 CURVE",
"617 626 LINE",
"570 644 OFFCURVE",
"513 654 OFFCURVE",
"442 654 CURVE SMOOTH",
"230 654 OFFCURVE",
"127 508 OFFCURVE",
"83 301 CURVE SMOOTH",
"44 117 OFFCURVE",
"100 -10 OFFCURVE",
"300 -10 CURVE SMOOTH"
);
},
{
closed = 1;
nodes = (
"478 718 LINE",
"485 753 LINE",
"450 753 LINE",
"443 718 LINE"
);
}
);
width = 584;
}
);
leftKerningGroup = C;
note = Cdotaccent;
rightKerningGroup = C;
unicode = 010A;
},
{
glyphname = D;
lastChange = "2015-10-25 05:59:50 +0000";
layers = (
{
layerId = "45AE5D37-AE90-4B36-85E4-274E7BAA8508";
name = "Light Italic";
paths = (
{
closed = 1;
nodes = (
"274 0 LINE SMOOTH",
"469 0 OFFCURVE",
"542 98 OFFCURVE",
"589 317 CURVE SMOOTH",
"639 552 OFFCURVE",
"589 644 OFFCURVE",
"407 644 CURVE SMOOTH",
"176 644 LINE",
"40 0 LINE"
);
},
{
closed = 1;
nodes = (
"199 619 LINE",
"402 619 LINE SMOOTH",
"573 619 OFFCURVE",
"611 544 OFFCURVE",
"562 317 CURVE SMOOTH",
"511 79 OFFCURVE",
"427 25 OFFCURVE",
"268 25 CURVE SMOOTH",
"73 25 LINE"
);
}
);
width = 622;
}
);
note = D;
rightKerningGroup = D;
unicode = 0044;
},
{
glyphname = Eth;
lastChange = "2015-10-25 05:59:50 +0000";
layers = (
{
layerId = "45AE5D37-AE90-4B36-85E4-274E7BAA8508";
name = "Light Italic";
paths = (
{
closed = 1;
nodes = (
"325 0 LINE SMOOTH",
"520 0 OFFCURVE",
"593 98 OFFCURVE",
"640 317 CURVE SMOOTH",
"690 552 OFFCURVE",
"640 644 OFFCURVE",
"458 644 CURVE SMOOTH",
"227 644 LINE",
"161 330 LINE",
"70 330 LINE",
"64 305 LINE",
"155 305 LINE",
"91 0 LINE"
);
},
{
closed = 1;
nodes = (
"183 305 LINE",
"381 305 LINE",
"387 330 LINE",
"188 330 LINE",
"250 619 LINE",
"453 619 LINE SMOOTH",
"624 619 OFFCURVE",
"662 544 OFFCURVE",
"613 317 CURVE SMOOTH",
"562 79 OFFCURVE",
"478 25 OFFCURVE",
"319 25 CURVE SMOOTH",
"124 25 LINE"
);
}
);
width = 673;
}
);
note = Eth;
rightKerningGroup = D;
unicode = 00D0;
},
{
glyphname = Dcaron;
lastChange = "2015-10-25 05:59:50 +0000";
layers = (
{
layerId = "45AE5D37-AE90-4B36-85E4-274E7BAA8508";
name = "Light Italic";
paths = (
{
closed = 1;
nodes = (
"274 0 LINE SMOOTH",
"469 0 OFFCURVE",
"542 98 OFFCURVE",
"589 317 CURVE SMOOTH",
"639 552 OFFCURVE",
"589 644 OFFCURVE",
"407 644 CURVE SMOOTH",
"176 644 LINE",
"40 0 LINE"
);
},
{
closed = 1;
nodes = (
"199 619 LINE",
"402 619 LINE SMOOTH",
"573 619 OFFCURVE",
"611 544 OFFCURVE",
"562 317 CURVE SMOOTH",
"511 79 OFFCURVE",
"427 25 OFFCURVE",
"268 25 CURVE SMOOTH",
"73 25 LINE"
);
},
{
closed = 1;
nodes = (
"439 732 LINE",
"560 854 LINE",
"529 854 LINE",
"426 750 LINE",
"367 854 LINE",
"340 854 LINE",
"409 732 LINE"
);
}
);
width = 622;
}
);
note = Dcaron;
rightKerningGroup = D;
unicode = 010E;
},
{
glyphname = Dcroat;
lastChange = "2015-10-25 05:59:50 +0000";
layers = (
{
layerId = "45AE5D37-AE90-4B36-85E4-274E7BAA8508";
name = "Light Italic";
paths = (
{
closed = 1;
nodes = (
"315 0 LINE SMOOTH",
"510 0 OFFCURVE",
"583 98 OFFCURVE",
"630 317 CURVE SMOOTH",
"680 552 OFFCURVE",
"630 644 OFFCURVE",
"448 644 CURVE SMOOTH",
"217 644 LINE",
"151 330 LINE",
"60 330 LINE",
"54 305 LINE",
"145 305 LINE",
"81 0 LINE"
);
},
{
closed = 1;
nodes = (
"173 305 LINE",
"371 305 LINE",
"377 330 LINE",
"178 330 LINE",
"240 619 LINE",
"443 619 LINE SMOOTH",
"614 619 OFFCURVE",
"652 544 OFFCURVE",
"603 317 CURVE SMOOTH",
"552 79 OFFCURVE",
"468 25 OFFCURVE",
"309 25 CURVE SMOOTH",
"114 25 LINE"
);
}
);
width = 663;
}
);
note = Dcroat;
rightKerningGroup = D;
unicode = 0110;
},
{
glyphname = Ddotbelow;
lastChange = "2015-10-25 05:59:50 +0000";
layers = (
{
layerId = "45AE5D37-AE90-4B36-85E4-274E7BAA8508";
name = "Light Italic";
paths = (
{
closed = 1;
nodes = (
"274 0 LINE SMOOTH",
"469 0 OFFCURVE",
"542 98 OFFCURVE",
"589 317 CURVE SMOOTH",
"639 552 OFFCURVE",
"589 644 OFFCURVE",
"407 644 CURVE SMOOTH",
"176 644 LINE",
"40 0 LINE"
);
},
{
closed = 1;
nodes = (
"284 -139 LINE",
"292 -102 LINE",
"255 -102 LINE",
"247 -139 LINE"
);
},
{
closed = 1;
nodes = (
"199 619 LINE",
"402 619 LINE SMOOTH",
"573 619 OFFCURVE",
"611 544 OFFCURVE",
"562 317 CURVE SMOOTH",
"511 79 OFFCURVE",
"427 25 OFFCURVE",
"268 25 CURVE SMOOTH",
"73 25 LINE"
);
}
);
width = 622;
}
);
note = Ddotbelow;
rightKerningGroup = D;
unicode = 1E0C;
},
{
glyphname = Dlinebelow;
lastChange = "2015-10-25 05:59:50 +0000";
layers = (
{
layerId = "45AE5D37-AE90-4B36-85E4-274E7BAA8508";
name = "Light Italic";
paths = (
{
closed = 1;
nodes = (
"274 0 LINE SMOOTH",
"469 0 OFFCURVE",
"542 98 OFFCURVE",
"589 317 CURVE SMOOTH",
"639 552 OFFCURVE",
"589 644 OFFCURVE",
"407 644 CURVE SMOOTH",
"176 644 LINE",
"40 0 LINE"
);
},
{
closed = 1;
nodes = (
"363 -101 LINE",
"368 -76 LINE",
"102 -76 LINE",
"97 -101 LINE"
);
},
{
closed = 1;
nodes = (
"199 619 LINE",
"402 619 LINE SMOOTH",
"573 619 OFFCURVE",
"611 544 OFFCURVE",
"562 317 CURVE SMOOTH",
"511 79 OFFCURVE",
"427 25 OFFCURVE",
"268 25 CURVE SMOOTH",
"73 25 LINE"
);
}
);
width = 622;
}
);
note = Dlinebelow;
rightKerningGroup = D;
unicode = 1E0E;
},
{
glyphname = E;
lastChange = "2015-10-25 05:59:50 +0000";
layers = (
{
layerId = "45AE5D37-AE90-4B36-85E4-274E7BAA8508";
name = "Light Italic";
paths = (
{
closed = 1;
nodes = (
"448 0 LINE",
"453 25 LINE",
"73 25 LINE",
"133 310 LINE",
"478 310 LINE",
"484 335 LINE",
"139 335 LINE",
"199 619 LINE",
"579 619 LINE",
"584 644 LINE",
"176 644 LINE",
"40 0 LINE"
);
}
);
width = 538;
}
);
leftKerningGroup = E;
note = E;
rightKerningGroup = E;
unicode = 0045;
},
{
glyphname = Eacute;
lastChange = "2015-10-25 05:59:50 +0000";
layers = (
{
layerId = "45AE5D37-AE90-4B36-85E4-274E7BAA8508";
name = "Light Italic";
paths = (
{
closed = 1;
nodes = (
"448 0 LINE",
"453 25 LINE",
"73 25 LINE",
"133 310 LINE",
"478 310 LINE",
"484 335 LINE",
"139 335 LINE",
"199 619 LINE",
"579 619 LINE",
"584 644 LINE",
"176 644 LINE",
"40 0 LINE"
);
},
{
closed = 1;
nodes = (
"406 688 LINE",
"508 837 LINE",
"478 837 LINE",
"383 688 LINE"
);
}
);
width = 538;
}
);
leftKerningGroup = E;
note = Eacute;
rightKerningGroup = E;
unicode = 00C9;
},
{
glyphname = Ebreve;
lastChange = "2015-10-25 05:59:50 +0000";
layers = (
{
layerId = "45AE5D37-AE90-4B36-85E4-274E7BAA8508";
name = "Light Italic";
paths = (
{
closed = 1;
nodes = (
"448 0 LINE",
"453 25 LINE",
"73 25 LINE",
"133 310 LINE",
"478 310 LINE",
"484 335 LINE",
"139 335 LINE",
"199 619 LINE",
"579 619 LINE",
"584 644 LINE",
"176 644 LINE",
"40 0 LINE"
);
},
{
closed = 1;
nodes = (
"457 688 OFFCURVE",
"507 730 OFFCURVE",
"519 783 CURVE",
"492 783 LINE",
"483 743 OFFCURVE",
"447 713 OFFCURVE",
"406 713 CURVE SMOOTH",
"366 713 OFFCURVE",
"342 743 OFFCURVE",
"351 783 CURVE",
"328 783 LINE",
"316 730 OFFCURVE",
"350 688 OFFCURVE",
"403 688 CURVE SMOOTH"
);
}
);
width = 548;
}
);
leftKerningGroup = E;
note = Ebreve;
rightKerningGroup = E;
unicode = 0114;
},
{
glyphname = Ecaron;
lastChange = "2015-10-25 05:59:50 +0000";
layers = (
{
layerId = "45AE5D37-AE90-4B36-85E4-274E7BAA8508";
name = "Light Italic";
paths = (
{
closed = 1;
nodes = (
"448 0 LINE",
"453 25 LINE",
"73 25 LINE",
"133 310 LINE",
"478 310 LINE",
"484 335 LINE",
"139 335 LINE",
"199 619 LINE",
"579 619 LINE",
"584 644 LINE",
"176 644 LINE",
"40 0 LINE"
);
},
{
closed = 1;
nodes = (
"419 688 LINE",
"540 810 LINE",
"509 810 LINE",
"406 706 LINE",
"347 810 LINE",
"320 810 LINE",
"389 688 LINE"
);
}
);
width = 548;
}
);
leftKerningGroup = E;
note = Ecaron;
rightKerningGroup = E;
unicode = 011A;
},
{
glyphname = Ecircumflex;
lastChange = "2015-10-25 05:59:50 +0000";
layers = (
{
layerId = "45AE5D37-AE90-4B36-85E4-274E7BAA8508";
name = "Light Italic";
paths = (
{
closed = 1;
nodes = (
"448 0 LINE",
"453 25 LINE",
"73 25 LINE",
"133 310 LINE",
"478 310 LINE",
"484 335 LINE",
"139 335 LINE",
"199 619 LINE",
"579 619 LINE",
"584 644 LINE",
"176 644 LINE",
"40 0 LINE"
);
},
{
closed = 1;
nodes = (
"309 688 LINE",
"412 792 LINE",
"471 688 LINE",
"498 688 LINE",
"429 810 LINE",
"399 810 LINE",
"279 688 LINE"
);
}
);
width = 548;
}
);
leftKerningGroup = E;
note = Ecircumflex;
rightKerningGroup = E;
unicode = 00CA;
},
{
glyphname = Ecircumflexacute;
lastChange = "2015-10-25 05:59:50 +0000";
layers = (
{
layerId = "45AE5D37-AE90-4B36-85E4-274E7BAA8508";
name = "Light Italic";
paths = (
{
closed = 1;
nodes = (
"448 0 LINE",
"453 25 LINE",
"73 25 LINE",
"133 310 LINE",
"478 310 LINE",
"484 335 LINE",
"139 335 LINE",
"199 619 LINE",
"579 619 LINE",
"584 644 LINE",
"176 644 LINE",
"40 0 LINE"
);
},
{
closed = 1;
nodes = (
"310 688 LINE",
"409 774 LINE",
"472 688 LINE",
"499 688 LINE",
"425 790 LINE",
"395 790 LINE",
"279 688 LINE"
);
},
{
closed = 1;
nodes = (
"491 790 LINE",
"578 899 LINE",
"550 899 LINE",
"469 790 LINE"
);
}
);
width = 548;
}
);
leftKerningGroup = E;
note = Ecircumflexacute;
rightKerningGroup = E;
unicode = 1EBE;
},
{
glyphname = Ecircumflexdotbelow;
lastChange = "2015-10-25 05:59:50 +0000";
layers = (
{
layerId = "45AE5D37-AE90-4B36-85E4-274E7BAA8508";
name = "Light Italic";
paths = (
{
closed = 1;
nodes = (
"448 0 LINE",
"453 25 LINE",
"73 25 LINE",
"133 310 LINE",
"478 310 LINE",
"484 335 LINE",
"139 335 LINE",
"199 619 LINE",
"579 619 LINE",
"584 644 LINE",
"176 644 LINE",
"40 0 LINE"
);
},
{
closed = 1;
nodes = (
"227 -139 LINE",
"235 -102 LINE",
"198 -102 LINE",
"190 -139 LINE"
);
},
{
closed = 1;
nodes = (
"304 688 LINE",
"407 792 LINE",
"466 688 LINE",
"493 688 LINE",
"424 810 LINE",
"394 810 LINE",
"274 688 LINE"
);
}
);
width = 548;
}
);
leftKerningGroup = E;
note = Ecircumflexdotbelow;
rightKerningGroup = E;
unicode = 1EC6;
},
{
glyphname = Ecircumflexgrave;
lastChange = "2015-10-25 05:59:50 +0000";
layers = (
{
layerId = "45AE5D37-AE90-4B36-85E4-274E7BAA8508";
name = "Light Italic";
paths = (
{
closed = 1;
nodes = (
"448 0 LINE",
"453 25 LINE",
"73 25 LINE",
"133 310 LINE",
"478 310 LINE",
"484 335 LINE",
"139 335 LINE",
"199 619 LINE",
"579 619 LINE",
"584 644 LINE",
"176 644 LINE",
"40 0 LINE"
);
},
{
closed = 1;
nodes = (
"324 688 LINE",
"423 774 LINE",
"486 688 LINE",
"513 688 LINE",
"439 790 LINE",
"409 790 LINE",
"293 688 LINE"
);
},
{
closed = 1;
nodes = (
"365 790 LINE",
"332 899 LINE",
"303 899 LINE",
"343 790 LINE"
);
}
);
width = 548;
}
);
leftKerningGroup = E;
note = Ecircumflexgrave;
rightKerningGroup = E;
unicode = 1EC0;
},
{
glyphname = Ecircumflexhookabove;
lastChange = "2015-10-25 05:59:50 +0000";
layers = (
{
layerId = "45AE5D37-AE90-4B36-85E4-274E7BAA8508";
name = "Light Italic";
paths = (
{
closed = 1;
nodes = (
"448 0 LINE",
"453 25 LINE",
"73 25 LINE",
"133 310 LINE",
"478 310 LINE",
"484 335 LINE",
"139 335 LINE",
"199 619 LINE",
"579 619 LINE",
"584 644 LINE",
"176 644 LINE",
"40 0 LINE"
);
},
{
closed = 1;
nodes = (
"319 688 LINE",
"418 774 LINE",
"481 688 LINE",
"508 688 LINE",
"434 790 LINE",
"404 790 LINE",
"288 688 LINE"
);
},
{
closed = 1;
nodes = (
"509 769 LINE",
"517 806 LINE",
"575 812 OFFCURVE",
"604 833 OFFCURVE",
"612 875 CURVE SMOOTH",
"622 920 OFFCURVE",
"596 944 OFFCURVE",
"546 944 CURVE SMOOTH",
"523 944 OFFCURVE",
"502 939 OFFCURVE",
"485 932 CURVE",
"479 907 LINE",
"499 915 OFFCURVE",
"518 920 OFFCURVE",
"541 920 CURVE SMOOTH",
"579 920 OFFCURVE",
"594 904 OFFCURVE",
"587 875 CURVE",
"581 844 OFFCURVE",
"565 829 OFFCURVE",
"493 825 CURVE",
"481 769 LINE"
);
}
);
width = 548;
}
);
leftKerningGroup = E;
note = Ecircumflexhookabove;
rightKerningGroup = E;
unicode = 1EC2;
},
{
glyphname = Ecircumflextilde;
lastChange = "2015-10-25 05:59:50 +0000";
layers = (
{
layerId = "45AE5D37-AE90-4B36-85E4-274E7BAA8508";
name = "Light Italic";
paths = (
{
closed = 1;
nodes = (
"448 0 LINE",
"453 25 LINE",
"73 25 LINE",
"133 310 LINE",
"478 310 LINE",
"484 335 LINE",
"139 335 LINE",
"199 619 LINE",
"579 619 LINE",
"584 644 LINE",
"176 644 LINE",
"40 0 LINE"
);
},
{
closed = 1;
nodes = (
"321 688 LINE",
"420 774 LINE",
"483 688 LINE",
"510 688 LINE",
"436 790 LINE",
"406 790 LINE",
"290 688 LINE"
);
},
{
closed = 1;
nodes = (
"329 829 OFFCURVE",
"352 835 OFFCURVE",
"380 835 CURVE SMOOTH",
"417 835 OFFCURVE",
"437 803 OFFCURVE",
"483 803 CURVE SMOOTH",
"512 803 OFFCURVE",
"538 812 OFFCURVE",
"558 829 CURVE",
"564 860 LINE",
"536 834 OFFCURVE",
"513 828 OFFCURVE",
"485 828 CURVE SMOOTH",
"442 828 OFFCURVE",
"431 860 OFFCURVE",
"382 860 CURVE SMOOTH",
"353 860 OFFCURVE",
"326 851 OFFCURVE",
"307 834 CURVE",
"300 803 LINE"
);
}
);
width = 548;
}
);
leftKerningGroup = E;
note = Ecircumflextilde;
rightKerningGroup = E;
unicode = 1EC4;
},
{
glyphname = Edieresis;
lastChange = "2015-10-25 05:59:50 +0000";
layers = (
{
layerId = "45AE5D37-AE90-4B36-85E4-274E7BAA8508";
name = "Light Italic";
paths = (
{
closed = 1;
nodes = (
"448 0 LINE",
"453 25 LINE",
"73 25 LINE",
"133 310 LINE",
"478 310 LINE",
"484 335 LINE",
"139 335 LINE",
"199 619 LINE",
"579 619 LINE",
"584 644 LINE",
"176 644 LINE",
"40 0 LINE"
);
},
{
closed = 1;
nodes = (
"340 718 LINE",
"347 753 LINE",
"312 753 LINE",
"305 718 LINE"
);
},
{
closed = 1;
nodes = (
"497 718 LINE",
"504 753 LINE",
"469 753 LINE",
"462 718 LINE"
);
}
);
width = 548;
}
);
leftKerningGroup = E;
note = Edieresis;
rightKerningGroup = E;
unicode = 00CB;
},
{
glyphname = Edotaccent;
lastChange = "2015-10-25 05:59:50 +0000";
layers = (
{
layerId = "45AE5D37-AE90-4B36-85E4-274E7BAA8508";
name = "Light Italic";
paths = (
{
closed = 1;
nodes = (
"448 0 LINE",
"453 25 LINE",
"73 25 LINE",
"133 310 LINE",
"478 310 LINE",
"484 335 LINE",
"139 335 LINE",
"199 619 LINE",
"579 619 LINE",
"584 644 LINE",
"176 644 LINE",
"40 0 LINE"
);
},
{
closed = 1;
nodes = (
"420 718 LINE",
"427 753 LINE",
"392 753 LINE",
"385 718 LINE"
);
}
);
width = 548;
}
);
leftKerningGroup = E;
note = Edotaccent;
rightKerningGroup = E;
unicode = 0116;
},
{
glyphname = Edotbelow;
lastChange = "2015-10-25 05:59:50 +0000";
layers = (
{
layerId = "45AE5D37-AE90-4B36-85E4-274E7BAA8508";
name = "Light Italic";
paths = (
{
closed = 1;
nodes = (
"448 0 LINE",
"453 25 LINE",
"73 25 LINE",
"133 310 LINE",
"478 310 LINE",
"484 335 LINE",
"139 335 LINE",
"199 619 LINE",
"579 619 LINE",
"584 644 LINE",
"176 644 LINE",
"40 0 LINE"
);
},
{
closed = 1;
nodes = (
"237 -139 LINE",
"245 -102 LINE",
"208 -102 LINE",
"200 -139 LINE"
);
}
);
width = 548;
}
);
leftKerningGroup = E;
note = Edotbelow;
rightKerningGroup = E;
unicode = 1EB8;
},
{
glyphname = Egrave;
lastChange = "2015-10-25 05:59:49 +0000";
layers = (
{
layerId = "45AE5D37-AE90-4B36-85E4-274E7BAA8508";
name = "Light Italic";
paths = (
{
closed = 1;
nodes = (
"448 0 LINE",
"453 25 LINE",
"73 25 LINE",
"133 310 LINE",
"478 310 LINE",
"484 335 LINE",
"139 335 LINE",
"199 619 LINE",
"579 619 LINE",
"584 644 LINE",
"176 644 LINE",
"40 0 LINE"
);
},
{
closed = 1;
nodes = (
"415 688 LINE",
"384 837 LINE",
"354 837 LINE",
"392 688 LINE"
);
}
);
width = 548;
}
);
leftKerningGroup = E;
note = Egrave;
rightKerningGroup = E;
unicode = 00C8;
},
{
glyphname = Ehookabove;
lastChange = "2015-10-25 05:59:50 +0000";
layers = (
{
layerId = "45AE5D37-AE90-4B36-85E4-274E7BAA8508";
name = "Light Italic";
paths = (
{
closed = 1;
nodes = (
"448 0 LINE",
"453 25 LINE",
"73 25 LINE",
"133 310 LINE",
"478 310 LINE",
"484 335 LINE",
"139 335 LINE",
"199 619 LINE",
"579 619 LINE",
"584 644 LINE",
"176 644 LINE",
"40 0 LINE"
);
},
{
closed = 1;
nodes = (
"401 688 LINE",
"413 744 LINE",
"485 750 OFFCURVE",
"512 778 OFFCURVE",
"524 830 CURVE SMOOTH",
"535 885 OFFCURVE",
"501 915 OFFCURVE",
"431 915 CURVE SMOOTH",
"411 915 OFFCURVE",
"376 910 OFFCURVE",
"358 903 CURVE",
"353 878 LINE",
"372 885 OFFCURVE",
"402 890 OFFCURVE",
"424 890 CURVE SMOOTH",
"491 890 OFFCURVE",
"507 869 OFFCURVE",
"499 830 CURVE SMOOTH",
"490 789 OFFCURVE",
"475 766 OFFCURVE",
"389 763 CURVE",
"373 688 LINE"
);
}
);
width = 548;
}
);
leftKerningGroup = E;
note = Ehookabove;
rightKerningGroup = E;
unicode = 1EBA;
},
{
glyphname = Emacron;
lastChange = "2015-10-25 05:59:50 +0000";
layers = (
{
layerId = "45AE5D37-AE90-4B36-85E4-274E7BAA8508";
name = "Light Italic";
paths = (
{
closed = 1;
nodes = (
"448 0 LINE",
"453 25 LINE",
"73 25 LINE",
"133 310 LINE",
"478 310 LINE",
"484 335 LINE",
"139 335 LINE",
"199 619 LINE",
"579 619 LINE",
"584 644 LINE",
"176 644 LINE",
"40 0 LINE"
);
},
{
closed = 1;
nodes = (
"532 718 LINE",
"538 743 LINE",
"272 743 LINE",
"266 718 LINE"
);
}
);
width = 548;
}
);
leftKerningGroup = E;
note = Emacron;
rightKerningGroup = E;
unicode = 0112;
},
{
glyphname = Eogonek;
lastChange = "2015-10-25 05:59:50 +0000";
layers = (
{
layerId = "45AE5D37-AE90-4B36-85E4-274E7BAA8508";
name = "Light Italic";
paths = (
{
closed = 1;
nodes = (
"372 -220 OFFCURVE",
"392 -217 OFFCURVE",
"408 -209 CURVE",
"413 -184 LINE",
"400 -191 OFFCURVE",
"379 -195 OFFCURVE",
"362 -195 CURVE SMOOTH",
"318 -195 OFFCURVE",
"310 -176 OFFCURVE",
"319 -135 CURVE SMOOTH",
"329 -88 OFFCURVE",
"363 -39 OFFCURVE",
"424 0 CURVE",
"448 0 LINE",
"453 25 LINE",
"73 25 LINE",
"133 310 LINE",
"478 310 LINE",
"484 335 LINE",
"139 335 LINE",
"199 619 LINE",
"579 619 LINE",
"584 644 LINE",
"176 644 LINE",
"40 0 LINE",
"396 0 LINE",
"350 -27 OFFCURVE",
"304 -80 OFFCURVE",
"292 -135 CURVE SMOOTH",
"279 -198 OFFCURVE",
"312 -220 OFFCURVE",
"357 -220 CURVE SMOOTH"
);
}
);
width = 548;
}
);
leftKerningGroup = E;
note = Eogonek;
rightKerningGroup = E;
unicode = 0118;
},
{
glyphname = Etilde;
lastChange = "2015-10-25 05:59:50 +0000";
layers = (
{
layerId = "45AE5D37-AE90-4B36-85E4-274E7BAA8508";
name = "Light Italic";
paths = (
{
closed = 1;
nodes = (
"448 0 LINE",
"453 25 LINE",
"73 25 LINE",
"133 310 LINE",
"478 310 LINE",
"484 335 LINE",
"139 335 LINE",
"199 619 LINE",
"579 619 LINE",
"584 644 LINE",
"176 644 LINE",
"40 0 LINE"
);
},
{
closed = 1;
nodes = (
"495 718 OFFCURVE",
"518 728 OFFCURVE",
"535 746 CURVE",
"542 777 LINE",
"518 751 OFFCURVE",
"495 743 OFFCURVE",
"466 743 CURVE SMOOTH",
"423 743 OFFCURVE",
"402 779 OFFCURVE",
"353 779 CURVE SMOOTH",
"325 779 OFFCURVE",
"294 769 OFFCURVE",
"275 751 CURVE",
"269 720 LINE",
"296 747 OFFCURVE",
"323 754 OFFCURVE",
"351 754 CURVE SMOOTH",
"388 754 OFFCURVE",
"418 718 OFFCURVE",
"464 718 CURVE SMOOTH"
);
}
);
width = 548;
}
);
leftKerningGroup = E;
note = Etilde;
rightKerningGroup = E;
unicode = 1EBC;
},
{
glyphname = F;
lastChange = "2015-10-25 05:59:50 +0000";
layers = (
{
layerId = "45AE5D37-AE90-4B36-85E4-274E7BAA8508";
name = "Light Italic";
paths = (
{
closed = 1;
nodes = (
"68 0 LINE",
"133 310 LINE",
"459 310 LINE",
"465 335 LINE",
"139 335 LINE",
"199 619 LINE",
"561 619 LINE",
"566 644 LINE",
"176 644 LINE",
"40 0 LINE"
);
}
);
width = 510;
}
);
note = F;
unicode = 0046;
},
{
glyphname = G;
lastChange = "2015-10-25 05:59:50 +0000";
layers = (
{
layerId = "45AE5D37-AE90-4B36-85E4-274E7BAA8508";
name = "Light Italic";
paths = (
{
closed = 1;
nodes = (
"422 -10 OFFCURVE",
"497 15 OFFCURVE",
"534 37 CURVE",
"597 334 LINE",
"375 334 LINE",
"370 308 LINE",
"564 308 LINE",
"509 48 LINE",
"455 27 OFFCURVE",
"381 15 OFFCURVE",
"313 15 CURVE SMOOTH",
"118 15 OFFCURVE",
"73 127 OFFCURVE",
"110 301 CURVE SMOOTH",
"151 494 OFFCURVE",
"245 629 OFFCURVE",
"440 629 CURVE SMOOTH",
"505 629 OFFCURVE",
"565 619 OFFCURVE",
"612 604 CURVE",
"617 630 LINE",
"571 645 OFFCURVE",
"513 654 OFFCURVE",
"442 654 CURVE SMOOTH",
"231 654 OFFCURVE",
"127 508 OFFCURVE",
"83 301 CURVE SMOOTH",
"44 117 OFFCURVE",
"106 -10 OFFCURVE",
"301 -10 CURVE SMOOTH"
);
}
);
width = 627;
}
);
leftKerningGroup = G;
note = G;
unicode = 0047;
},
{
glyphname = Gbreve;
lastChange = "2015-10-25 05:59:50 +0000";
layers = (
{
layerId = "45AE5D37-AE90-4B36-85E4-274E7BAA8508";
name = "Light Italic";
paths = (
{
closed = 1;
nodes = (
"422 -10 OFFCURVE",
"497 15 OFFCURVE",
"534 37 CURVE",
"597 334 LINE",
"375 334 LINE",
"370 308 LINE",
"564 308 LINE",
"509 48 LINE",
"455 27 OFFCURVE",
"381 15 OFFCURVE",
"313 15 CURVE SMOOTH",
"118 15 OFFCURVE",
"73 127 OFFCURVE",
"110 301 CURVE SMOOTH",
"151 494 OFFCURVE",
"245 629 OFFCURVE",
"440 629 CURVE SMOOTH",
"505 629 OFFCURVE",
"565 619 OFFCURVE",
"612 604 CURVE",
"617 630 LINE",
"571 645 OFFCURVE",
"513 654 OFFCURVE",
"442 654 CURVE SMOOTH",
"231 654 OFFCURVE",
"127 508 OFFCURVE",
"83 301 CURVE SMOOTH",
"44 117 OFFCURVE",
"106 -10 OFFCURVE",
"301 -10 CURVE SMOOTH"
);
},
{
closed = 1;
nodes = (
"511 688 OFFCURVE",
"561 730 OFFCURVE",
"573 783 CURVE",
"546 783 LINE",
"537 743 OFFCURVE",
"501 713 OFFCURVE",
"460 713 CURVE SMOOTH",
"420 713 OFFCURVE",
"396 743 OFFCURVE",
"405 783 CURVE",
"382 783 LINE",
"370 730 OFFCURVE",
"404 688 OFFCURVE",
"457 688 CURVE SMOOTH"
);
}
);
width = 627;
}
);
leftKerningGroup = G;
note = Gbreve;
unicode = 011E;
},
{
glyphname = Gcaron;
lastChange = "2015-10-25 05:59:50 +0000";
layers = (
{
layerId = "45AE5D37-AE90-4B36-85E4-274E7BAA8508";
name = "Light Italic";
paths = (
{
closed = 1;
nodes = (
"422 -10 OFFCURVE",
"497 15 OFFCURVE",
"534 37 CURVE",
"597 334 LINE",
"375 334 LINE",
"370 308 LINE",
"564 308 LINE",
"509 48 LINE",
"455 27 OFFCURVE",
"381 15 OFFCURVE",
"313 15 CURVE SMOOTH",
"118 15 OFFCURVE",
"73 127 OFFCURVE",
"110 301 CURVE SMOOTH",
"151 494 OFFCURVE",
"245 629 OFFCURVE",
"440 629 CURVE SMOOTH",
"505 629 OFFCURVE",
"565 619 OFFCURVE",
"612 604 CURVE",
"617 630 LINE",
"571 645 OFFCURVE",
"513 654 OFFCURVE",
"442 654 CURVE SMOOTH",
"231 654 OFFCURVE",
"127 508 OFFCURVE",
"83 301 CURVE SMOOTH",
"44 117 OFFCURVE",
"106 -10 OFFCURVE",
"301 -10 CURVE SMOOTH"
);
},
{
closed = 1;
nodes = (
"475 688 LINE",
"596 810 LINE",
"565 810 LINE",
"462 706 LINE",
"403 810 LINE",
"376 810 LINE",
"445 688 LINE"
);
}
);
width = 627;
}
);
leftKerningGroup = G;
note = Gcaron;
unicode = 01E6;
},
{
glyphname = Gcircumflex;
lastChange = "2015-10-25 05:59:50 +0000";
layers = (
{
layerId = "45AE5D37-AE90-4B36-85E4-274E7BAA8508";
name = "Light Italic";
paths = (
{
closed = 1;
nodes = (
"422 -10 OFFCURVE",
"497 15 OFFCURVE",
"534 37 CURVE",
"597 334 LINE",
"375 334 LINE",
"370 308 LINE",
"564 308 LINE",
"509 48 LINE",
"455 27 OFFCURVE",
"381 15 OFFCURVE",
"313 15 CURVE SMOOTH",
"118 15 OFFCURVE",
"73 127 OFFCURVE",
"110 301 CURVE SMOOTH",
"151 494 OFFCURVE",
"245 629 OFFCURVE",
"440 629 CURVE SMOOTH",
"505 629 OFFCURVE",
"565 619 OFFCURVE",
"612 604 CURVE",
"617 630 LINE",
"571 645 OFFCURVE",
"513 654 OFFCURVE",
"442 654 CURVE SMOOTH",
"231 654 OFFCURVE",
"127 508 OFFCURVE",
"83 301 CURVE SMOOTH",
"44 117 OFFCURVE",
"106 -10 OFFCURVE",
"301 -10 CURVE SMOOTH"
);
},
{
closed = 1;
nodes = (
"379 688 LINE",
"482 792 LINE",
"541 688 LINE",
"568 688 LINE",
"499 810 LINE",
"469 810 LINE",
"349 688 LINE"
);
}
);
width = 627;
}
);
leftKerningGroup = G;
note = Gcircumflex;
unicode = 011C;
},
{
glyphname = Gcommaaccent;
lastChange = "2015-10-25 05:59:50 +0000";
layers = (
{
layerId = "45AE5D37-AE90-4B36-85E4-274E7BAA8508";
name = "Light Italic";
paths = (
{
closed = 1;
nodes = (
"422 -10 OFFCURVE",
"497 15 OFFCURVE",
"534 37 CURVE",
"597 334 LINE",
"375 334 LINE",
"370 308 LINE",
"564 308 LINE",
"509 48 LINE",
"455 27 OFFCURVE",
"381 15 OFFCURVE",
"313 15 CURVE SMOOTH",
"118 15 OFFCURVE",
"73 127 OFFCURVE",
"110 301 CURVE SMOOTH",
"151 494 OFFCURVE",
"245 629 OFFCURVE",
"440 629 CURVE SMOOTH",
"505 629 OFFCURVE",
"565 619 OFFCURVE",
"612 604 CURVE",
"617 630 LINE",
"571 645 OFFCURVE",
"513 654 OFFCURVE",
"442 654 CURVE SMOOTH",
"231 654 OFFCURVE",
"127 508 OFFCURVE",
"83 301 CURVE SMOOTH",
"44 117 OFFCURVE",
"106 -10 OFFCURVE",
"301 -10 CURVE SMOOTH"
);
},
{
closed = 1;
nodes = (
"259 -190 LINE",
"327 -37 LINE",
"294 -37 LINE",
"237 -190 LINE"
);
}
);
width = 627;
}
);
leftKerningGroup = G;
note = Gcommaaccent;
unicode = 0122;
},
{
glyphname = Gdotaccent;
lastChange = "2015-10-25 05:59:50 +0000";
layers = (
{
layerId = "45AE5D37-AE90-4B36-85E4-274E7BAA8508";
name = "Light Italic";
paths = (
{
closed = 1;
nodes = (
"422 -10 OFFCURVE",
"497 15 OFFCURVE",
"534 37 CURVE",
"597 334 LINE",
"375 334 LINE",
"370 308 LINE",
"564 308 LINE",
"509 48 LINE",
"455 27 OFFCURVE",
"381 15 OFFCURVE",
"313 15 CURVE SMOOTH",
"118 15 OFFCURVE",
"73 127 OFFCURVE",
"110 301 CURVE SMOOTH",
"151 494 OFFCURVE",
"245 629 OFFCURVE",
"440 629 CURVE SMOOTH",
"505 629 OFFCURVE",
"565 619 OFFCURVE",
"612 604 CURVE",
"617 630 LINE",
"571 645 OFFCURVE",
"513 654 OFFCURVE",
"442 654 CURVE SMOOTH",
"231 654 OFFCURVE",
"127 508 OFFCURVE",
"83 301 CURVE SMOOTH",
"44 117 OFFCURVE",
"106 -10 OFFCURVE",
"301 -10 CURVE SMOOTH"
);
},
{
closed = 1;
nodes = (
"480 718 LINE",
"487 753 LINE",
"452 753 LINE",
"445 718 LINE"
);
}
);
width = 627;
}
);
leftKerningGroup = G;
note = Gdotaccent;
unicode = 0120;
},
{
glyphname = Gmacron;
lastChange = "2015-10-25 05:59:50 +0000";
layers = (
{
layerId = "45AE5D37-AE90-4B36-85E4-274E7BAA8508";
name = "Light Italic";
paths = (
{
closed = 1;
nodes = (
"422 -10 OFFCURVE",
"497 15 OFFCURVE",
"534 37 CURVE",
"597 334 LINE",
"375 334 LINE",
"370 308 LINE",
"564 308 LINE",
"509 48 LINE",
"455 27 OFFCURVE",
"381 15 OFFCURVE",
"313 15 CURVE SMOOTH",
"118 15 OFFCURVE",
"73 127 OFFCURVE",
"110 301 CURVE SMOOTH",
"151 494 OFFCURVE",
"245 629 OFFCURVE",
"440 629 CURVE SMOOTH",
"505 629 OFFCURVE",
"565 619 OFFCURVE",
"612 604 CURVE",
"617 630 LINE",
"571 645 OFFCURVE",
"513 654 OFFCURVE",
"442 654 CURVE SMOOTH",
"231 654 OFFCURVE",
"127 508 OFFCURVE",
"83 301 CURVE SMOOTH",
"44 117 OFFCURVE",
"106 -10 OFFCURVE",
"301 -10 CURVE SMOOTH"
);
},
{
closed = 1;
nodes = (
"597 718 LINE",
"603 743 LINE",
"337 743 LINE",
"331 718 LINE"
);
}
);
width = 627;
}
);
leftKerningGroup = G;
note = Gmacron;
unicode = 1E20;
},
{
glyphname = H;
lastChange = "2015-10-25 05:59:50 +0000";
layers = (
{
layerId = "45AE5D37-AE90-4B36-85E4-274E7BAA8508";
name = "Light Italic";
paths = (
{
closed = 1;
nodes = (
"68 0 LINE",
"133 310 LINE",
"534 310 LINE",
"469 0 LINE",
"497 0 LINE",
"633 644 LINE",
"605 644 LINE",
"540 335 LINE",
"139 335 LINE",
"204 644 LINE",
"176 644 LINE",
"40 0 LINE"
);
}
);
width = 617;
}
);
note = H;
unicode = 0048;
},
{
glyphname = Hbar;
lastChange = "2015-10-25 05:59:50 +0000";
layers = (
{
layerId = "45AE5D37-AE90-4B36-85E4-274E7BAA8508";
name = "Light Italic";
paths = (
{
closed = 1;
nodes = (
"96 0 LINE",
"161 310 LINE",
"562 310 LINE",
"497 0 LINE",
"525 0 LINE",
"661 644 LINE",
"633 644 LINE",
"568 335 LINE",
"167 335 LINE",
"232 644 LINE",
"204 644 LINE",
"68 0 LINE"
);
},
{
closed = 1;
nodes = (
"705 478 LINE",
"710 503 LINE",
"91 503 LINE",
"86 478 LINE"
);
}
);
width = 699;
}
);
note = Hbar;
unicode = 0126;
},
{
glyphname = Hbrevebelow;
lastChange = "2015-10-25 05:59:50 +0000";
layers = (
{
layerId = "45AE5D37-AE90-4B36-85E4-274E7BAA8508";
name = "Light Italic";
paths = (
{
closed = 1;
nodes = (
"68 0 LINE",
"133 310 LINE",
"534 310 LINE",
"469 0 LINE",
"497 0 LINE",
"633 644 LINE",
"605 644 LINE",
"540 335 LINE",
"139 335 LINE",
"204 644 LINE",
"176 644 LINE",
"40 0 LINE"
);
},
{
closed = 1;
nodes = (
"308 -174 OFFCURVE",
"382 -142 OFFCURVE",
"404 -40 CURVE",
"379 -40 LINE",
"362 -119 OFFCURVE",
"302 -149 OFFCURVE",
"237 -149 CURVE SMOOTH",
"164 -149 OFFCURVE",
"123 -119 OFFCURVE",
"140 -40 CURVE",
"115 -40 LINE",
"93 -142 OFFCURVE",
"161 -174 OFFCURVE",
"232 -174 CURVE SMOOTH"
);
}
);
width = 617;
}
);
note = Hbrevebelow;
unicode = 1E2A;
},
{
glyphname = Hcircumflex;
lastChange = "2015-10-25 05:59:50 +0000";
layers = (
{
layerId = "45AE5D37-AE90-4B36-85E4-274E7BAA8508";
name = "Light Italic";
paths = (
{
closed = 1;
nodes = (
"68 0 LINE",
"133 310 LINE",
"534 310 LINE",
"469 0 LINE",
"497 0 LINE",
"633 644 LINE",
"605 644 LINE",
"540 335 LINE",
"139 335 LINE",
"204 644 LINE",
"176 644 LINE",
"40 0 LINE"
);
},
{
closed = 1;
nodes = (
"335 688 LINE",
"438 792 LINE",
"497 688 LINE",
"524 688 LINE",
"455 810 LINE",
"425 810 LINE",
"305 688 LINE"
);
}
);
width = 617;
}
);
note = Hcircumflex;
unicode = 0124;
},
{
glyphname = Hdotbelow;
lastChange = "2015-10-25 05:59:50 +0000";
layers = (
{
layerId = "45AE5D37-AE90-4B36-85E4-274E7BAA8508";
name = "Light Italic";
paths = (
{
closed = 1;
nodes = (
"68 0 LINE",
"133 310 LINE",
"534 310 LINE",
"469 0 LINE",
"497 0 LINE",
"633 644 LINE",
"605 644 LINE",
"540 335 LINE",
"139 335 LINE",
"204 644 LINE",
"176 644 LINE",
"40 0 LINE"
);
},
{
closed = 1;
nodes = (
"258 -139 LINE",
"266 -102 LINE",
"229 -102 LINE",
"221 -139 LINE"
);
}
);
width = 617;
}
);
note = Hdotbelow;
unicode = 1E24;
},
{
glyphname = I;
lastChange = "2015-10-25 05:59:50 +0000";
layers = (
{
layerId = "45AE5D37-AE90-4B36-85E4-274E7BAA8508";
name = "Light Italic";
paths = (
{
closed = 1;
nodes = (
"68 0 LINE",
"204 644 LINE",
"176 644 LINE",
"40 0 LINE"
);
}
);
width = 188;
}
);
note = I;
unicode = 0049;
},
{
glyphname = IJ;
lastChange = "2015-10-25 05:59:50 +0000";
layers = (
{
layerId = "45AE5D37-AE90-4B36-85E4-274E7BAA8508";
name = "Light Italic";
paths = (
{
closed = 1;
nodes = (
"413 -10 OFFCURVE",
"471 45 OFFCURVE",
"494 153 CURVE SMOOTH",
"598 644 LINE",
"570 644 LINE",
"466 153 LINE SMOOTH",
"446 58 OFFCURVE",
"403 16 OFFCURVE",
"291 16 CURVE SMOOTH",
"245 16 OFFCURVE",
"202 25 OFFCURVE",
"174 40 CURVE",
"168 14 LINE",
"195 1 OFFCURVE",
"236 -10 OFFCURVE",
"289 -10 CURVE SMOOTH"
);
},
{
closed = 1;
nodes = (
"68 0 LINE",
"204 644 LINE",
"176 644 LINE",
"40 0 LINE"
);
}
);
width = 577;
}
);
note = IJ;
unicode = 0132;
},
{
glyphname = Iacute;
lastChange = "2015-10-25 05:59:50 +0000";
layers = (
{
layerId = "45AE5D37-AE90-4B36-85E4-274E7BAA8508";
name = "Light Italic";
paths = (
{
closed = 1;
nodes = (
"68 0 LINE",
"204 644 LINE",
"176 644 LINE",
"40 0 LINE"
);
},
{
closed = 1;
nodes = (
"216 688 LINE",
"318 837 LINE",
"288 837 LINE",
"193 688 LINE"
);
}
);
width = 188;
}
);
note = Iacute;
unicode = 00CD;
},
{
glyphname = Ibreve;
lastChange = "2015-10-25 05:59:50 +0000";
layers = (
{
layerId = "45AE5D37-AE90-4B36-85E4-274E7BAA8508";
name = "Light Italic";
paths = (
{
closed = 1;
nodes = (
"68 0 LINE",
"204 644 LINE",
"176 644 LINE",
"40 0 LINE"
);
},
{
closed = 1;
nodes = (
"254 688 OFFCURVE",
"304 730 OFFCURVE",
"316 783 CURVE",
"289 783 LINE",
"280 743 OFFCURVE",
"244 713 OFFCURVE",
"203 713 CURVE SMOOTH",
"163 713 OFFCURVE",
"139 743 OFFCURVE",
"148 783 CURVE",
"125 783 LINE",
"113 730 OFFCURVE",
"147 688 OFFCURVE",
"200 688 CURVE SMOOTH"
);
}
);
width = 188;
}
);
note = Ibreve;
unicode = 012C;
},
{
glyphname = Icaron;
lastChange = "2015-10-25 05:59:50 +0000";
layers = (
{
layerId = "45AE5D37-AE90-4B36-85E4-274E7BAA8508";
name = "Light Italic";
paths = (
{
closed = 1;
nodes = (
"68 0 LINE",
"204 644 LINE",
"176 644 LINE",
"40 0 LINE"
);
},
{
closed = 1;
nodes = (
"215 688 LINE",
"336 810 LINE",
"305 810 LINE",
"202 706 LINE",
"143 810 LINE",
"116 810 LINE",
"185 688 LINE"
);
}
);
width = 188;
}
);
note = Icaron;
unicode = 01CF;
},
{
glyphname = Icircumflex;
lastChange = "2015-10-25 05:59:50 +0000";
layers = (
{
layerId = "45AE5D37-AE90-4B36-85E4-274E7BAA8508";
name = "Light Italic";
paths = (
{
closed = 1;
nodes = (
"68 0 LINE",
"204 644 LINE",
"176 644 LINE",
"40 0 LINE"
);
},
{
closed = 1;
nodes = (
"121 688 LINE",
"224 792 LINE",
"283 688 LINE",
"310 688 LINE",
"241 810 LINE",
"211 810 LINE",
"91 688 LINE"
);
}
);
width = 188;
}
);
note = Icircumflex;
unicode = 00CE;
},
{
glyphname = Idieresis;
lastChange = "2015-10-25 05:59:50 +0000";
layers = (
{
layerId = "45AE5D37-AE90-4B36-85E4-274E7BAA8508";
name = "Light Italic";
paths = (
{
closed = 1;
nodes = (
"68 0 LINE",
"204 644 LINE",
"176 644 LINE",
"40 0 LINE"
);
},
{
closed = 1;
nodes = (
"145 718 LINE",
"152 753 LINE",
"117 753 LINE",
"110 718 LINE"
);
},
{
closed = 1;
nodes = (
"302 718 LINE",
"309 753 LINE",
"274 753 LINE",
"267 718 LINE"
);
}
);
width = 188;
}
);
note = Idieresis;
unicode = 00CF;
},
{
glyphname = Idotaccent;
lastChange = "2015-10-25 05:59:50 +0000";
layers = (
{
layerId = "45AE5D37-AE90-4B36-85E4-274E7BAA8508";
name = "Light Italic";
paths = (
{
closed = 1;
nodes = (
"68 0 LINE",
"204 644 LINE",
"176 644 LINE",
"40 0 LINE"
);
},
{
closed = 1;
nodes = (
"224 718 LINE",
"231 753 LINE",
"196 753 LINE",
"189 718 LINE"
);
}
);
width = 188;
}
);
note = Idotaccent;
unicode = 0130;
},
{
glyphname = Idotbelow;
lastChange = "2015-10-25 05:59:50 +0000";
layers = (
{
layerId = "45AE5D37-AE90-4B36-85E4-274E7BAA8508";
name = "Light Italic";
paths = (
{
closed = 1;
nodes = (
"68 0 LINE",
"204 644 LINE",
"176 644 LINE",
"40 0 LINE"
);
},
{
closed = 1;
nodes = (
"44 -139 LINE",
"52 -102 LINE",
"15 -102 LINE",
"7 -139 LINE"
);
}
);
width = 188;
}
);
note = Idotbelow;
unicode = 1ECA;
},
{
glyphname = Igrave;
lastChange = "2015-10-25 05:59:50 +0000";
layers = (
{
layerId = "45AE5D37-AE90-4B36-85E4-274E7BAA8508";
name = "Light Italic";
paths = (
{
closed = 1;
nodes = (
"68 0 LINE",
"204 644 LINE",
"176 644 LINE",
"40 0 LINE"
);
},
{
closed = 1;
nodes = (
"210 688 LINE",
"179 837 LINE",
"149 837 LINE",
"187 688 LINE"
);
}
);
width = 188;
}
);
note = Igrave;
unicode = 00CC;
},
{
glyphname = Ihookabove;
lastChange = "2015-10-25 05:59:50 +0000";
layers = (
{
layerId = "45AE5D37-AE90-4B36-85E4-274E7BAA8508";
name = "Light Italic";
paths = (
{
closed = 1;
nodes = (
"68 0 LINE",
"204 644 LINE",
"176 644 LINE",
"40 0 LINE"
);
},
{
closed = 1;
nodes = (
"214 688 LINE",
"226 744 LINE",
"298 750 OFFCURVE",
"325 778 OFFCURVE",
"337 830 CURVE SMOOTH",
"348 885 OFFCURVE",
"314 915 OFFCURVE",
"244 915 CURVE SMOOTH",
"224 915 OFFCURVE",
"189 910 OFFCURVE",
"171 903 CURVE",
"166 878 LINE",
"185 885 OFFCURVE",
"215 890 OFFCURVE",
"237 890 CURVE SMOOTH",
"304 890 OFFCURVE",
"320 869 OFFCURVE",
"312 830 CURVE SMOOTH",
"303 789 OFFCURVE",
"288 766 OFFCURVE",
"202 763 CURVE",
"186 688 LINE"
);
}
);
width = 188;
}
);
note = Ihookabove;
unicode = 1EC8;
},
{
glyphname = Imacron;
lastChange = "2015-10-25 05:59:50 +0000";
layers = (
{
layerId = "45AE5D37-AE90-4B36-85E4-274E7BAA8508";
name = "Light Italic";
paths = (
{
closed = 1;
nodes = (
"68 0 LINE",
"204 644 LINE",
"176 644 LINE",
"40 0 LINE"
);
},
{
closed = 1;
nodes = (
"340 718 LINE",
"346 743 LINE",
"79 743 LINE",
"73 718 LINE"
);
}
);
width = 188;
}
);
note = Imacron;
unicode = 012A;
},
{
glyphname = Iogonek;
lastChange = "2015-10-25 05:59:50 +0000";
layers = (
{
layerId = "45AE5D37-AE90-4B36-85E4-274E7BAA8508";
name = "Light Italic";
paths = (
{
closed = 1;
nodes = (
"16 -220 OFFCURVE",
"36 -217 OFFCURVE",
"52 -209 CURVE",
"57 -184 LINE",
"44 -191 OFFCURVE",
"23 -195 OFFCURVE",
"6 -195 CURVE SMOOTH",
"-38 -195 OFFCURVE",
"-46 -176 OFFCURVE",
"-37 -135 CURVE SMOOTH",
"-27 -88 OFFCURVE",
"7 -39 OFFCURVE",
"68 0 CURVE",
"204 644 LINE",
"176 644 LINE",
"40 0 LINE",
"-6 -27 OFFCURVE",
"-53 -80 OFFCURVE",
"-64 -135 CURVE SMOOTH",
"-78 -198 OFFCURVE",
"-44 -220 OFFCURVE",
"1 -220 CURVE SMOOTH"
);
}
);
width = 188;
}
);
note = Iogonek;
unicode = 012E;
},
{
glyphname = Itilde;
lastChange = "2015-10-25 05:59:50 +0000";
layers = (
{
layerId = "45AE5D37-AE90-4B36-85E4-274E7BAA8508";
name = "Light Italic";
paths = (
{
closed = 1;
nodes = (
"68 0 LINE",
"204 644 LINE",
"176 644 LINE",
"40 0 LINE"
);
},
{
closed = 1;
nodes = (
"297 688 OFFCURVE",
"320 698 OFFCURVE",
"337 716 CURVE",
"344 747 LINE",
"320 721 OFFCURVE",
"297 713 OFFCURVE",
"268 713 CURVE SMOOTH",
"225 713 OFFCURVE",
"204 749 OFFCURVE",
"155 749 CURVE SMOOTH",
"127 749 OFFCURVE",
"96 739 OFFCURVE",
"77 721 CURVE",
"71 690 LINE",
"98 717 OFFCURVE",
"125 724 OFFCURVE",
"153 724 CURVE SMOOTH",
"190 724 OFFCURVE",
"220 688 OFFCURVE",
"266 688 CURVE SMOOTH"
);
}
);
width = 188;
}
);
note = Itilde;
unicode = 0128;
},
{
glyphname = J;
lastChange = "2015-10-25 05:59:50 +0000";
layers = (
{
layerId = "45AE5D37-AE90-4B36-85E4-274E7BAA8508";
name = "Light Italic";
paths = (
{
closed = 1;
nodes = (
"247 -10 OFFCURVE",
"305 45 OFFCURVE",
"328 153 CURVE SMOOTH",
"432 644 LINE",
"404 644 LINE",
"300 153 LINE SMOOTH",
"280 58 OFFCURVE",
"237 16 OFFCURVE",
"125 16 CURVE SMOOTH",
"79 16 OFFCURVE",
"36 25 OFFCURVE",
"8 40 CURVE",
"2 14 LINE",
"29 1 OFFCURVE",
"70 -10 OFFCURVE",
"123 -10 CURVE SMOOTH"
);
}
);
width = 411;
}
);
note = J;
unicode = 004A;
},
{
glyphname = Jcircumflex;
lastChange = "2015-10-25 05:59:50 +0000";
layers = (
{
layerId = "45AE5D37-AE90-4B36-85E4-274E7BAA8508";
name = "Light Italic";
paths = (
{
closed = 1;
nodes = (
"247 -10 OFFCURVE",
"305 45 OFFCURVE",
"328 153 CURVE SMOOTH",
"432 644 LINE",
"404 644 LINE",
"300 153 LINE SMOOTH",
"280 58 OFFCURVE",
"237 16 OFFCURVE",
"125 16 CURVE SMOOTH",
"79 16 OFFCURVE",
"36 25 OFFCURVE",
"8 40 CURVE",
"2 14 LINE",
"29 1 OFFCURVE",
"70 -10 OFFCURVE",
"123 -10 CURVE SMOOTH"
);
},
{
closed = 1;
nodes = (
"348 688 LINE",
"451 792 LINE",
"510 688 LINE",
"537 688 LINE",
"468 810 LINE",
"438 810 LINE",
"318 688 LINE"
);
}
);
width = 411;
}
);
note = Jcircumflex;
unicode = 0134;
},
{
glyphname = K;
lastChange = "2015-10-25 05:59:50 +0000";
layers = (
{
layerId = "45AE5D37-AE90-4B36-85E4-274E7BAA8508";
name = "Light Italic";
paths = (
{
closed = 1;
nodes = (
"68 0 LINE",
"119 241 LINE",
"271 370 LINE",
"431 0 LINE",
"463 0 LINE",
"295 389 LINE",
"596 644 LINE",
"558 644 LINE",
"127 279 LINE",
"204 644 LINE",
"176 644 LINE",
"40 0 LINE"
);
}
);
width = 563;
}
);
leftKerningGroup = K;
note = K;
rightKerningGroup = K;
unicode = 004B;
},
{
glyphname = Kcommaaccent;
lastChange = "2015-10-25 05:59:50 +0000";
layers = (
{
layerId = "45AE5D37-AE90-4B36-85E4-274E7BAA8508";
name = "Light Italic";
paths = (
{
closed = 1;
nodes = (
"68 0 LINE",
"119 241 LINE",
"271 370 LINE",
"431 0 LINE",
"463 0 LINE",
"295 389 LINE",
"596 644 LINE",
"558 644 LINE",
"127 279 LINE",
"204 644 LINE",
"176 644 LINE",
"40 0 LINE"
);
},
{
closed = 1;
nodes = (
"176 -190 LINE",
"244 -37 LINE",
"211 -37 LINE",
"154 -190 LINE"
);
}
);
width = 563;
}
);
leftKerningGroup = K;
note = Kcommaaccent;
rightKerningGroup = K;
unicode = 0136;
},
{
glyphname = L;
lastChange = "2015-10-25 05:59:50 +0000";
layers = (
{
layerId = "45AE5D37-AE90-4B36-85E4-274E7BAA8508";
name = "Light Italic";
paths = (
{
closed = 1;
nodes = (
"438 0 LINE",
"443 25 LINE",
"73 25 LINE",
"204 644 LINE",
"176 644 LINE",
"40 0 LINE"
);
}
);
width = 518;
}
);
note = L;
rightKerningGroup = L;
unicode = 004C;
},
{
glyphname = Lacute;
lastChange = "2015-10-25 05:59:50 +0000";
layers = (
{
layerId = "45AE5D37-AE90-4B36-85E4-274E7BAA8508";
name = "Light Italic";
paths = (
{
closed = 1;
nodes = (
"438 0 LINE",
"443 25 LINE",
"73 25 LINE",
"204 644 LINE",
"176 644 LINE",
"40 0 LINE"
);
},
{
closed = 1;
nodes = (
"215 688 LINE",
"317 837 LINE",
"287 837 LINE",
"192 688 LINE"
);
}
);
width = 518;
}
);
note = Lacute;
rightKerningGroup = L;
unicode = 0139;
},
{
glyphname = Lcaron;
lastChange = "2015-10-25 05:59:50 +0000";
layers = (
{
layerId = "45AE5D37-AE90-4B36-85E4-274E7BAA8508";
name = "Light Italic";
paths = (
{
closed = 1;
nodes = (
"438 0 LINE",
"443 25 LINE",
"73 25 LINE",
"204 644 LINE",
"176 644 LINE",
"40 0 LINE"
);
},
{
closed = 1;
nodes = (
"385 573 LINE",
"453 726 LINE",
"420 726 LINE",
"363 573 LINE"
);
}
);
width = 518;
}
);
note = Lcaron;
rightKerningGroup = L;
unicode = 013D;
},
{
glyphname = Lcommaaccent;
lastChange = "2015-10-25 05:59:50 +0000";
layers = (
{
layerId = "45AE5D37-AE90-4B36-85E4-274E7BAA8508";
name = "Light Italic";
paths = (
{
closed = 1;
nodes = (
"438 0 LINE",
"443 25 LINE",
"73 25 LINE",
"204 644 LINE",
"176 644 LINE",
"40 0 LINE"
);
},
{
closed = 1;
nodes = (
"171 -190 LINE",
"239 -37 LINE",
"206 -37 LINE",
"149 -190 LINE"
);
}
);
width = 518;
}
);
note = Lcommaaccent;
rightKerningGroup = L;
unicode = 013B;
},
{
glyphname = Ldot;
lastChange = "2015-10-25 05:59:50 +0000";
layers = (
{
layerId = "45AE5D37-AE90-4B36-85E4-274E7BAA8508";
name = "Light Italic";
paths = (
{
closed = 1;
nodes = (
"438 0 LINE",
"443 25 LINE",
"73 25 LINE",
"204 644 LINE",
"176 644 LINE",
"40 0 LINE"
);
},
{
closed = 1;
nodes = (
"352 253 LINE",
"359 288 LINE",
"324 288 LINE",
"317 253 LINE"
);
}
);
width = 518;
}
);
note = Ldot;
rightKerningGroup = L;
unicode = 013F;
},
{
glyphname = Ldotbelow;
lastChange = "2015-10-25 05:59:50 +0000";
layers = (
{
layerId = "45AE5D37-AE90-4B36-85E4-274E7BAA8508";
name = "Light Italic";
paths = (
{
closed = 1;
nodes = (
"438 0 LINE",
"443 25 LINE",
"73 25 LINE",
"204 644 LINE",
"176 644 LINE",
"40 0 LINE"
);
},
{
closed = 1;
nodes = (
"224 -139 LINE",
"232 -102 LINE",
"195 -102 LINE",
"187 -139 LINE"
);
}
);
width = 518;
}
);
note = Ldotbelow;
rightKerningGroup = L;
unicode = 1E36;
},
{
glyphname = Ldotbelowmacron;
lastChange = "2015-10-25 05:59:50 +0000";
layers = (
{
layerId = "45AE5D37-AE90-4B36-85E4-274E7BAA8508";
name = "Light Italic";
paths = (
{
closed = 1;
nodes = (
"466 0 LINE",
"471 25 LINE",
"101 25 LINE",
"232 644 LINE",
"204 644 LINE",
"68 0 LINE"
);
},
{
closed = 1;
nodes = (
"255 -139 LINE",
"263 -102 LINE",
"226 -102 LINE",
"218 -139 LINE"
);
},
{
closed = 1;
nodes = (
"408 718 LINE",
"414 743 LINE",
"148 743 LINE",
"142 718 LINE"
);
}
);
width = 546;
}
);
note = Ldotbelowmacron;
rightKerningGroup = L;
unicode = 1E38;
},
{
glyphname = Llinebelow;
lastChange = "2015-10-25 05:59:50 +0000";
layers = (
{
layerId = "45AE5D37-AE90-4B36-85E4-274E7BAA8508";
name = "Light Italic";
paths = (
{
closed = 1;
nodes = (
"438 0 LINE",
"443 25 LINE",
"73 25 LINE",
"204 644 LINE",
"176 644 LINE",
"40 0 LINE"
);
},
{
closed = 1;
nodes = (
"350 -101 LINE",
"355 -76 LINE",
"89 -76 LINE",
"84 -101 LINE"
);
}
);
width = 518;
}
);
note = Llinebelow;
rightKerningGroup = L;
unicode = 1E3A;
},
{
glyphname = Lslash;
lastChange = "2015-10-25 05:59:50 +0000";
layers = (
{
layerId = "45AE5D37-AE90-4B36-85E4-274E7BAA8508";
name = "Light Italic";
paths = (
{
closed = 1;
nodes = (
"485 0 LINE",
"490 25 LINE",
"120 25 LINE",
"251 644 LINE",
"223 644 LINE",
"87 0 LINE"
);
},
{
closed = 1;
nodes = (
"370 394 LINE",
"376 419 LINE",
"51 289 LINE",
"46 264 LINE"
);
}
);
width = 565;
}
);
note = Lslash;
rightKerningGroup = L;
unicode = 0141;
},
{
glyphname = M;
lastChange = "2015-10-25 05:59:50 +0000";
layers = (
{
layerId = "45AE5D37-AE90-4B36-85E4-274E7BAA8508";
name = "Light Italic";
paths = (
{
closed = 1;
nodes = (
"68 0 LINE",
"198 613 LINE",
"337 113 LINE",
"369 113 LINE",
"719 613 LINE",
"589 0 LINE",
"617 0 LINE",
"753 644 LINE",
"711 644 LINE",
"357 137 LINE",
"216 644 LINE",
"176 644 LINE",
"40 0 LINE"
);
}
);
width = 737;
}
);
note = M;
unicode = 004D;
},
{
glyphname = Mdotbelow;
lastChange = "2015-10-25 05:59:50 +0000";
layers = (
{
layerId = "45AE5D37-AE90-4B36-85E4-274E7BAA8508";
name = "Light Italic";
paths = (
{
closed = 1;
nodes = (
"68 0 LINE",
"198 613 LINE",
"337 113 LINE",
"369 113 LINE",
"719 613 LINE",
"589 0 LINE",
"617 0 LINE",
"753 644 LINE",
"711 644 LINE",
"357 137 LINE",
"216 644 LINE",
"176 644 LINE",
"40 0 LINE"
);
},
{
closed = 1;
nodes = (
"343 -139 LINE",
"351 -102 LINE",
"314 -102 LINE",
"306 -139 LINE"
);
}
);
width = 737;
}
);
note = Mdotbelow;
unicode = 1E42;
},
{
glyphname = N;
lastChange = "2015-10-25 05:59:50 +0000";
layers = (
{
layerId = "45AE5D37-AE90-4B36-85E4-274E7BAA8508";
name = "Light Italic";
paths = (
{
closed = 1;
nodes = (
"68 0 LINE",
"196 606 LINE",
"498 0 LINE",
"529 0 LINE",
"665 644 LINE",
"637 644 LINE",
"509 38 LINE",
"207 644 LINE",
"176 644 LINE",
"40 0 LINE"
);
}
);
width = 649;
}
);
note = N;
unicode = 004E;
},
{
glyphname = Nacute;
lastChange = "2015-10-25 05:59:50 +0000";
layers = (
{
layerId = "45AE5D37-AE90-4B36-85E4-274E7BAA8508";
name = "Light Italic";
paths = (
{
closed = 1;
nodes = (
"68 0 LINE",
"196 606 LINE",
"498 0 LINE",
"529 0 LINE",
"665 644 LINE",
"637 644 LINE",
"509 38 LINE",
"207 644 LINE",
"176 644 LINE",
"40 0 LINE"
);
},
{
closed = 1;
nodes = (
"453 688 LINE",
"555 837 LINE",
"525 837 LINE",
"430 688 LINE"
);
}
);
width = 649;
}
);
note = Nacute;
unicode = 0143;
},
{
glyphname = Ncaron;
lastChange = "2015-10-25 05:59:50 +0000";
layers = (
{
layerId = "45AE5D37-AE90-4B36-85E4-274E7BAA8508";
name = "Light Italic";
paths = (
{
closed = 1;
nodes = (
"68 0 LINE",
"196 606 LINE",
"498 0 LINE",
"529 0 LINE",
"665 644 LINE",
"637 644 LINE",
"509 38 LINE",
"207 644 LINE",
"176 644 LINE",
"40 0 LINE"
);
},
{
closed = 1;
nodes = (
"476 688 LINE",
"597 810 LINE",
"566 810 LINE",
"463 706 LINE",
"404 810 LINE",
"377 810 LINE",
"446 688 LINE"
);
}
);
width = 649;
}
);
note = Ncaron;
unicode = 0147;
},
{
glyphname = Ncommaaccent;
lastChange = "2015-10-25 05:59:50 +0000";
layers = (
{
layerId = "45AE5D37-AE90-4B36-85E4-274E7BAA8508";
name = "Light Italic";
paths = (
{
closed = 1;
nodes = (
"68 0 LINE",
"196 606 LINE",
"498 0 LINE",
"529 0 LINE",
"665 644 LINE",
"637 644 LINE",
"509 38 LINE",
"207 644 LINE",
"176 644 LINE",
"40 0 LINE"
);
},
{
closed = 1;
nodes = (
"222 -190 LINE",
"290 -37 LINE",
"257 -37 LINE",
"200 -190 LINE"
);
}
);
width = 649;
}
);
note = Ncommaaccent;
unicode = 0145;
},
{
glyphname = Ndotaccent;
lastChange = "2015-10-25 05:59:50 +0000";
layers = (
{
layerId = "45AE5D37-AE90-4B36-85E4-274E7BAA8508";
name = "Light Italic";
paths = (
{
closed = 1;
nodes = (
"68 0 LINE",
"196 606 LINE",
"498 0 LINE",
"529 0 LINE",
"665 644 LINE",
"637 644 LINE",
"509 38 LINE",
"207 644 LINE",
"176 644 LINE",
"40 0 LINE"
);
},
{
closed = 1;
nodes = (
"472 718 LINE",
"479 753 LINE",
"444 753 LINE",
"437 718 LINE"
);
}
);
width = 649;
}
);
note = Ndotaccent;
unicode = 1E44;
},
{
glyphname = Ndotbelow;
lastChange = "2015-10-25 05:59:50 +0000";
layers = (
{
layerId = "45AE5D37-AE90-4B36-85E4-274E7BAA8508";
name = "Light Italic";
paths = (
{
closed = 1;
nodes = (
"68 0 LINE",
"196 606 LINE",
"498 0 LINE",
"529 0 LINE",
"665 644 LINE",
"637 644 LINE",
"509 38 LINE",
"207 644 LINE",
"176 644 LINE",
"40 0 LINE"
);
},
{
closed = 1;
nodes = (
"271 -139 LINE",
"279 -102 LINE",
"242 -102 LINE",
"234 -139 LINE"
);
}
);
width = 649;
}
);
note = Ndotbelow;
unicode = 1E46;
},
{
glyphname = Eng;
lastChange = "2015-10-25 05:59:50 +0000";
layers = (
{
layerId = "45AE5D37-AE90-4B36-85E4-274E7BAA8508";
name = "Light Italic";
paths = (
{
closed = 1;
nodes = (
"437 -234 OFFCURVE",
"489 -188 OFFCURVE",
"505 -110 CURVE SMOOTH",
"665 644 LINE",
"637 644 LINE",
"509 38 LINE",
"207 644 LINE",
"176 644 LINE",
"40 0 LINE",
"68 0 LINE",
"196 606 LINE",
"500 -4 LINE",
"477 -110 LINE SMOOTH",
"464 -174 OFFCURVE",
"430 -209 OFFCURVE",
"350 -209 CURVE SMOOTH",
"334 -209 OFFCURVE",
"313 -206 OFFCURVE",
"291 -198 CURVE",
"286 -224 LINE",
"304 -230 OFFCURVE",
"330 -234 OFFCURVE",
"354 -234 CURVE SMOOTH"
);
}
);
width = 649;
}
);
note = Eng;
unicode = 014A;
},
{
glyphname = Nlinebelow;
lastChange = "2015-10-25 05:59:50 +0000";
layers = (
{
layerId = "45AE5D37-AE90-4B36-85E4-274E7BAA8508";
name = "Light Italic";
paths = (
{
closed = 1;
nodes = (
"68 0 LINE",
"196 606 LINE",
"498 0 LINE",
"529 0 LINE",
"665 644 LINE",
"637 644 LINE",
"509 38 LINE",
"207 644 LINE",
"176 644 LINE",
"40 0 LINE"
);
},
{
closed = 1;
nodes = (
"404 -101 LINE",
"409 -76 LINE",
"143 -76 LINE",
"138 -101 LINE"
);
}
);
width = 649;
}
);
note = Nlinebelow;
unicode = 1E48;
},
{
glyphname = Ntilde;
lastChange = "2015-10-25 05:59:50 +0000";
layers = (
{
layerId = "45AE5D37-AE90-4B36-85E4-274E7BAA8508";
name = "Light Italic";
paths = (
{
closed = 1;
nodes = (
"68 0 LINE",
"196 606 LINE",
"498 0 LINE",
"529 0 LINE",
"665 644 LINE",
"637 644 LINE",
"509 38 LINE",
"207 644 LINE",
"176 644 LINE",
"40 0 LINE"
);
},
{
closed = 1;
nodes = (
"543 718 OFFCURVE",
"566 728 OFFCURVE",
"583 746 CURVE",
"590 777 LINE",
"566 751 OFFCURVE",
"543 743 OFFCURVE",
"514 743 CURVE SMOOTH",
"471 743 OFFCURVE",
"450 779 OFFCURVE",
"401 779 CURVE SMOOTH",
"373 779 OFFCURVE",
"342 769 OFFCURVE",
"323 751 CURVE",
"317 720 LINE",
"344 747 OFFCURVE",
"371 754 OFFCURVE",
"399 754 CURVE SMOOTH",
"436 754 OFFCURVE",
"466 718 OFFCURVE",
"512 718 CURVE SMOOTH"
);
}
);
width = 649;
}
);
note = Ntilde;
unicode = 00D1;
},
{
glyphname = O;
lastChange = "2015-10-25 05:59:50 +0000";
layers = (
{
layerId = "45AE5D37-AE90-4B36-85E4-274E7BAA8508";
name = "Light Italic";
paths = (
{
closed = 1;
nodes = (
"500 -10 OFFCURVE",
"606 117 OFFCURVE",
"649 316 CURVE SMOOTH",
"698 546 OFFCURVE",
"631 654 OFFCURVE",
"440 654 CURVE SMOOTH",
"244 654 OFFCURVE",
"136 546 OFFCURVE",
"87 316 CURVE SMOOTH",
"44 117 OFFCURVE",
"107 -10 OFFCURVE",
"298 -10 CURVE SMOOTH"
);
},
{
closed = 1;
nodes = (
"124 15 OFFCURVE",
"72 120 OFFCURVE",
"114 316 CURVE SMOOTH",
"163 546 OFFCURVE",
"275 629 OFFCURVE",
"434 629 CURVE SMOOTH",
"610 629 OFFCURVE",
"671 546 OFFCURVE",
"622 316 CURVE SMOOTH",
"580 120 OFFCURVE",
"474 15 OFFCURVE",
"304 15 CURVE SMOOTH"
);
}
);
width = 682;
}
);
leftKerningGroup = O;
note = O;
rightKerningGroup = O;
unicode = 004F;
},
{
glyphname = Oacute;
lastChange = "2015-10-25 05:59:50 +0000";
layers = (
{
layerId = "45AE5D37-AE90-4B36-85E4-274E7BAA8508";
name = "Light Italic";
paths = (
{
closed = 1;
nodes = (
"500 -10 OFFCURVE",
"606 117 OFFCURVE",
"649 316 CURVE SMOOTH",
"698 546 OFFCURVE",
"631 654 OFFCURVE",
"440 654 CURVE SMOOTH",
"244 654 OFFCURVE",
"136 546 OFFCURVE",
"87 316 CURVE SMOOTH",
"44 117 OFFCURVE",
"107 -10 OFFCURVE",
"298 -10 CURVE SMOOTH"
);
},
{
closed = 1;
nodes = (
"124 15 OFFCURVE",
"72 120 OFFCURVE",
"114 316 CURVE SMOOTH",
"163 546 OFFCURVE",
"275 629 OFFCURVE",
"434 629 CURVE SMOOTH",
"610 629 OFFCURVE",
"671 546 OFFCURVE",
"622 316 CURVE SMOOTH",
"580 120 OFFCURVE",
"474 15 OFFCURVE",
"304 15 CURVE SMOOTH"
);
},
{
closed = 1;
nodes = (
"463 688 LINE",
"565 837 LINE",
"535 837 LINE",
"440 688 LINE"
);
}
);
width = 682;
}
);
leftKerningGroup = O;
note = Oacute;
rightKerningGroup = O;
unicode = 00D3;
},
{
glyphname = Obreve;
lastChange = "2015-10-25 05:59:50 +0000";
layers = (
{
layerId = "45AE5D37-AE90-4B36-85E4-274E7BAA8508";
name = "Light Italic";
paths = (
{
closed = 1;
nodes = (
"500 -10 OFFCURVE",
"606 117 OFFCURVE",
"649 316 CURVE SMOOTH",
"698 546 OFFCURVE",
"631 654 OFFCURVE",
"440 654 CURVE SMOOTH",
"244 654 OFFCURVE",
"136 546 OFFCURVE",
"87 316 CURVE SMOOTH",
"44 117 OFFCURVE",
"107 -10 OFFCURVE",
"298 -10 CURVE SMOOTH"
);
},
{
closed = 1;
nodes = (
"124 15 OFFCURVE",
"72 120 OFFCURVE",
"114 316 CURVE SMOOTH",
"163 546 OFFCURVE",
"275 629 OFFCURVE",
"434 629 CURVE SMOOTH",
"610 629 OFFCURVE",
"671 546 OFFCURVE",
"622 316 CURVE SMOOTH",
"580 120 OFFCURVE",
"474 15 OFFCURVE",
"304 15 CURVE SMOOTH"
);
},
{
closed = 1;
nodes = (
"501 688 OFFCURVE",
"551 730 OFFCURVE",
"563 783 CURVE",
"536 783 LINE",
"527 743 OFFCURVE",
"491 713 OFFCURVE",
"450 713 CURVE SMOOTH",
"410 713 OFFCURVE",
"386 743 OFFCURVE",
"395 783 CURVE",
"372 783 LINE",
"360 730 OFFCURVE",
"394 688 OFFCURVE",
"447 688 CURVE SMOOTH"
);
}
);
width = 682;
}
);
leftKerningGroup = O;
note = Obreve;
rightKerningGroup = O;
unicode = 014E;
},
{
glyphname = Ocaron;
lastChange = "2015-10-25 05:59:50 +0000";
layers = (
{
layerId = "45AE5D37-AE90-4B36-85E4-274E7BAA8508";
name = "Light Italic";
paths = (
{
closed = 1;
nodes = (
"500 -10 OFFCURVE",
"606 117 OFFCURVE",
"649 316 CURVE SMOOTH",
"698 546 OFFCURVE",
"631 654 OFFCURVE",
"440 654 CURVE SMOOTH",
"244 654 OFFCURVE",
"136 546 OFFCURVE",
"87 316 CURVE SMOOTH",
"44 117 OFFCURVE",
"107 -10 OFFCURVE",
"298 -10 CURVE SMOOTH"
);
},
{
closed = 1;
nodes = (
"124 15 OFFCURVE",
"72 120 OFFCURVE",
"114 316 CURVE SMOOTH",
"163 546 OFFCURVE",
"275 629 OFFCURVE",
"434 629 CURVE SMOOTH",
"610 629 OFFCURVE",
"671 546 OFFCURVE",
"622 316 CURVE SMOOTH",
"580 120 OFFCURVE",
"474 15 OFFCURVE",
"304 15 CURVE SMOOTH"
);
},
{
closed = 1;
nodes = (
"462 688 LINE",
"583 810 LINE",
"552 810 LINE",
"449 706 LINE",
"390 810 LINE",
"363 810 LINE",
"432 688 LINE"
);
}
);
width = 682;
}
);
leftKerningGroup = O;
note = Ocaron;
rightKerningGroup = O;
unicode = 01D1;
},
{
glyphname = Ocircumflex;
lastChange = "2015-10-25 05:59:50 +0000";
layers = (
{
layerId = "45AE5D37-AE90-4B36-85E4-274E7BAA8508";
name = "Light Italic";
paths = (
{
closed = 1;
nodes = (
"500 -10 OFFCURVE",
"606 117 OFFCURVE",
"649 316 CURVE SMOOTH",
"698 546 OFFCURVE",
"631 654 OFFCURVE",
"440 654 CURVE SMOOTH",
"244 654 OFFCURVE",
"136 546 OFFCURVE",
"87 316 CURVE SMOOTH",
"44 117 OFFCURVE",
"107 -10 OFFCURVE",
"298 -10 CURVE SMOOTH"
);
},
{
closed = 1;
nodes = (
"124 15 OFFCURVE",
"72 120 OFFCURVE",
"114 316 CURVE SMOOTH",
"163 546 OFFCURVE",
"275 629 OFFCURVE",
"434 629 CURVE SMOOTH",
"610 629 OFFCURVE",
"671 546 OFFCURVE",
"622 316 CURVE SMOOTH",
"580 120 OFFCURVE",
"474 15 OFFCURVE",
"304 15 CURVE SMOOTH"
);
},
{
closed = 1;
nodes = (
"368 688 LINE",
"471 792 LINE",
"530 688 LINE",
"557 688 LINE",
"488 810 LINE",
"458 810 LINE",
"338 688 LINE"
);
}
);
width = 682;
}
);
leftKerningGroup = O;
note = Ocircumflex;
rightKerningGroup = O;
unicode = 00D4;
},
{
glyphname = Ocircumflexacute;
lastChange = "2015-10-25 05:59:50 +0000";
layers = (
{
layerId = "45AE5D37-AE90-4B36-85E4-274E7BAA8508";
name = "Light Italic";
paths = (
{
closed = 1;
nodes = (
"500 -10 OFFCURVE",
"606 117 OFFCURVE",
"649 316 CURVE SMOOTH",
"698 546 OFFCURVE",
"631 654 OFFCURVE",
"440 654 CURVE SMOOTH",
"244 654 OFFCURVE",
"136 546 OFFCURVE",
"87 316 CURVE SMOOTH",
"44 117 OFFCURVE",
"107 -10 OFFCURVE",
"298 -10 CURVE SMOOTH"
);
},
{
closed = 1;
nodes = (
"124 15 OFFCURVE",
"72 120 OFFCURVE",
"114 316 CURVE SMOOTH",
"163 546 OFFCURVE",
"275 629 OFFCURVE",
"434 629 CURVE SMOOTH",
"610 629 OFFCURVE",
"671 546 OFFCURVE",
"622 316 CURVE SMOOTH",
"580 120 OFFCURVE",
"474 15 OFFCURVE",
"304 15 CURVE SMOOTH"
);
},
{
closed = 1;
nodes = (
"375 688 LINE",
"474 774 LINE",
"537 688 LINE",
"564 688 LINE",
"490 790 LINE",
"460 790 LINE",
"344 688 LINE"
);
},
{
closed = 1;
nodes = (
"556 790 LINE",
"643 899 LINE",
"615 899 LINE",
"534 790 LINE"
);
}
);
width = 682;
}
);
leftKerningGroup = O;
note = Ocircumflexacute;
rightKerningGroup = O;
unicode = 1ED0;
},
{
glyphname = Ocircumflexdotbelow;
lastChange = "2015-10-25 05:59:50 +0000";
layers = (
{
layerId = "45AE5D37-AE90-4B36-85E4-274E7BAA8508";
name = "Light Italic";
paths = (
{
closed = 1;
nodes = (
"500 -10 OFFCURVE",
"606 117 OFFCURVE",
"649 316 CURVE SMOOTH",
"698 546 OFFCURVE",
"631 654 OFFCURVE",
"440 654 CURVE SMOOTH",
"244 654 OFFCURVE",
"136 546 OFFCURVE",
"87 316 CURVE SMOOTH",
"44 117 OFFCURVE",
"107 -10 OFFCURVE",
"298 -10 CURVE SMOOTH"
);
},
{
closed = 1;
nodes = (
"291 -139 LINE",
"299 -102 LINE",
"262 -102 LINE",
"254 -139 LINE"
);
},
{
closed = 1;
nodes = (
"124 15 OFFCURVE",
"72 120 OFFCURVE",
"114 316 CURVE SMOOTH",
"163 546 OFFCURVE",
"275 629 OFFCURVE",
"434 629 CURVE SMOOTH",
"610 629 OFFCURVE",
"671 546 OFFCURVE",
"622 316 CURVE SMOOTH",
"580 120 OFFCURVE",
"474 15 OFFCURVE",
"304 15 CURVE SMOOTH"
);
},
{
closed = 1;
nodes = (
"372 708 LINE",
"475 812 LINE",
"534 708 LINE",
"561 708 LINE",
"492 830 LINE",
"462 830 LINE",
"342 708 LINE"
);
}
);
width = 682;
}
);
leftKerningGroup = O;
note = Ocircumflexdotbelow;
rightKerningGroup = O;
unicode = 1ED8;
},
{
glyphname = Ocircumflexgrave;
lastChange = "2015-10-25 05:59:50 +0000";
layers = (
{
layerId = "45AE5D37-AE90-4B36-85E4-274E7BAA8508";
name = "Light Italic";
paths = (
{
closed = 1;
nodes = (
"500 -10 OFFCURVE",
"606 117 OFFCURVE",
"649 316 CURVE SMOOTH",
"698 546 OFFCURVE",
"631 654 OFFCURVE",
"440 654 CURVE SMOOTH",
"244 654 OFFCURVE",
"136 546 OFFCURVE",
"87 316 CURVE SMOOTH",
"44 117 OFFCURVE",
"107 -10 OFFCURVE",
"298 -10 CURVE SMOOTH"
);
},
{
closed = 1;
nodes = (
"124 15 OFFCURVE",
"72 120 OFFCURVE",
"114 316 CURVE SMOOTH",
"163 546 OFFCURVE",
"275 629 OFFCURVE",
"434 629 CURVE SMOOTH",
"610 629 OFFCURVE",
"671 546 OFFCURVE",
"622 316 CURVE SMOOTH",
"580 120 OFFCURVE",
"474 15 OFFCURVE",
"304 15 CURVE SMOOTH"
);
},
{
closed = 1;
nodes = (
"372 688 LINE",
"471 774 LINE",
"534 688 LINE",
"561 688 LINE",
"487 790 LINE",
"457 790 LINE",
"341 688 LINE"
);
},
{
closed = 1;
nodes = (
"413 790 LINE",
"380 899 LINE",
"351 899 LINE",
"391 790 LINE"
);
}
);
width = 682;
}
);
leftKerningGroup = O;
note = Ocircumflexgrave;
rightKerningGroup = O;
unicode = 1ED2;
},
{
glyphname = Ocircumflexhookabove;
lastChange = "2015-10-25 05:59:50 +0000";
layers = (
{
layerId = "45AE5D37-AE90-4B36-85E4-274E7BAA8508";
name = "Light Italic";
paths = (
{
closed = 1;
nodes = (
"500 -10 OFFCURVE",
"606 117 OFFCURVE",
"649 316 CURVE SMOOTH",
"698 546 OFFCURVE",
"631 654 OFFCURVE",
"440 654 CURVE SMOOTH",
"244 654 OFFCURVE",
"136 546 OFFCURVE",
"87 316 CURVE SMOOTH",
"44 117 OFFCURVE",
"107 -10 OFFCURVE",
"298 -10 CURVE SMOOTH"
);
},
{
closed = 1;
nodes = (
"124 15 OFFCURVE",
"72 120 OFFCURVE",
"114 316 CURVE SMOOTH",
"163 546 OFFCURVE",
"275 629 OFFCURVE",
"434 629 CURVE SMOOTH",
"610 629 OFFCURVE",
"671 546 OFFCURVE",
"622 316 CURVE SMOOTH",
"580 120 OFFCURVE",
"474 15 OFFCURVE",
"304 15 CURVE SMOOTH"
);
},
{
closed = 1;
nodes = (
"371 688 LINE",
"470 774 LINE",
"533 688 LINE",
"560 688 LINE",
"486 790 LINE",
"456 790 LINE",
"340 688 LINE"
);
},
{
closed = 1;
nodes = (
"561 769 LINE",
"569 806 LINE",
"627 812 OFFCURVE",
"656 833 OFFCURVE",
"664 875 CURVE SMOOTH",
"674 920 OFFCURVE",
"648 944 OFFCURVE",
"598 944 CURVE SMOOTH",
"575 944 OFFCURVE",
"554 939 OFFCURVE",
"537 932 CURVE",
"531 907 LINE",
"551 915 OFFCURVE",
"570 920 OFFCURVE",
"593 920 CURVE SMOOTH",
"631 920 OFFCURVE",
"646 904 OFFCURVE",
"639 875 CURVE",
"633 844 OFFCURVE",
"617 829 OFFCURVE",
"545 825 CURVE",
"533 769 LINE"
);
}
);
width = 682;
}
);
leftKerningGroup = O;
note = Ocircumflexhookabove;
rightKerningGroup = O;
unicode = 1ED4;
},
{
glyphname = Ocircumflextilde;
lastChange = "2015-10-25 05:59:50 +0000";
layers = (
{
layerId = "45AE5D37-AE90-4B36-85E4-274E7BAA8508";
name = "Light Italic";
paths = (
{
closed = 1;
nodes = (
"500 -10 OFFCURVE",
"606 117 OFFCURVE",
"649 316 CURVE SMOOTH",
"698 546 OFFCURVE",
"631 654 OFFCURVE",
"440 654 CURVE SMOOTH",
"244 654 OFFCURVE",
"136 546 OFFCURVE",
"87 316 CURVE SMOOTH",
"44 117 OFFCURVE",
"107 -10 OFFCURVE",
"298 -10 CURVE SMOOTH"
);
},
{
closed = 1;
nodes = (
"124 15 OFFCURVE",
"72 120 OFFCURVE",
"114 316 CURVE SMOOTH",
"163 546 OFFCURVE",
"275 629 OFFCURVE",
"434 629 CURVE SMOOTH",
"610 629 OFFCURVE",
"671 546 OFFCURVE",
"622 316 CURVE SMOOTH",
"580 120 OFFCURVE",
"474 15 OFFCURVE",
"304 15 CURVE SMOOTH"
);
},
{
closed = 1;
nodes = (
"518 688 OFFCURVE",
"584 720 OFFCURVE",
"603 812 CURVE",
"577 812 LINE",
"563 743 OFFCURVE",
"512 713 OFFCURVE",
"451 713 CURVE SMOOTH",
"384 713 OFFCURVE",
"353 743 OFFCURVE",
"367 812 CURVE",
"343 812 LINE",
"324 720 OFFCURVE",
"381 688 OFFCURVE",
"447 688 CURVE SMOOTH"
);
},
{
closed = 1;
nodes = (
"381 874 OFFCURVE",
"405 880 OFFCURVE",
"433 880 CURVE SMOOTH",
"470 880 OFFCURVE",
"490 848 OFFCURVE",
"536 848 CURVE SMOOTH",
"565 848 OFFCURVE",
"592 857 OFFCURVE",
"611 874 CURVE",
"618 905 LINE",
"589 879 OFFCURVE",
"566 873 OFFCURVE",
"538 873 CURVE SMOOTH",
"495 873 OFFCURVE",
"484 905 OFFCURVE",
"435 905 CURVE SMOOTH",
"406 905 OFFCURVE",
"379 896 OFFCURVE",
"359 879 CURVE",
"353 848 LINE"
);
}
);
width = 682;
}
);
leftKerningGroup = O;
note = Ocircumflextilde;
rightKerningGroup = O;
unicode = 1ED6;
},
{
glyphname = Odieresis;
lastChange = "2015-10-25 05:59:50 +0000";
layers = (
{
layerId = "45AE5D37-AE90-4B36-85E4-274E7BAA8508";
name = "Light Italic";
paths = (
{
closed = 1;
nodes = (
"500 -10 OFFCURVE",
"606 117 OFFCURVE",
"649 316 CURVE SMOOTH",
"698 546 OFFCURVE",
"631 654 OFFCURVE",
"440 654 CURVE SMOOTH",
"244 654 OFFCURVE",
"136 546 OFFCURVE",
"87 316 CURVE SMOOTH",
"44 117 OFFCURVE",
"107 -10 OFFCURVE",
"298 -10 CURVE SMOOTH"
);
},
{
closed = 1;
nodes = (
"124 15 OFFCURVE",
"72 120 OFFCURVE",
"114 316 CURVE SMOOTH",
"163 546 OFFCURVE",
"275 629 OFFCURVE",
"434 629 CURVE SMOOTH",
"610 629 OFFCURVE",
"671 546 OFFCURVE",
"622 316 CURVE SMOOTH",
"580 120 OFFCURVE",
"474 15 OFFCURVE",
"304 15 CURVE SMOOTH"
);
},
{
closed = 1;
nodes = (
"392 718 LINE",
"399 753 LINE",
"364 753 LINE",
"357 718 LINE"
);
},
{
closed = 1;
nodes = (
"549 718 LINE",
"556 753 LINE",
"521 753 LINE",
"514 718 LINE"
);
}
);
width = 682;
}
);
leftKerningGroup = O;
note = Odieresis;
rightKerningGroup = O;
unicode = 00D6;
},
{
glyphname = Odotbelow;
lastChange = "2015-10-25 05:59:50 +0000";
layers = (
{
layerId = "45AE5D37-AE90-4B36-85E4-274E7BAA8508";
name = "Light Italic";
paths = (
{
closed = 1;
nodes = (
"500 -10 OFFCURVE",
"606 117 OFFCURVE",
"649 316 CURVE SMOOTH",
"698 546 OFFCURVE",
"631 654 OFFCURVE",
"440 654 CURVE SMOOTH",
"244 654 OFFCURVE",
"136 546 OFFCURVE",
"87 316 CURVE SMOOTH",
"44 117 OFFCURVE",
"107 -10 OFFCURVE",
"298 -10 CURVE SMOOTH"
);
},
{
closed = 1;
nodes = (
"291 -139 LINE",
"299 -102 LINE",
"262 -102 LINE",
"254 -139 LINE"
);
},
{
closed = 1;
nodes = (
"124 15 OFFCURVE",
"72 120 OFFCURVE",
"114 316 CURVE SMOOTH",
"163 546 OFFCURVE",
"275 629 OFFCURVE",
"434 629 CURVE SMOOTH",
"610 629 OFFCURVE",
"671 546 OFFCURVE",
"622 316 CURVE SMOOTH",
"580 120 OFFCURVE",
"474 15 OFFCURVE",
"304 15 CURVE SMOOTH"
);
}
);
width = 682;
}
);
leftKerningGroup = O;
note = Odotbelow;
rightKerningGroup = O;
unicode = 1ECC;
},
{
glyphname = Ograve;
lastChange = "2015-10-25 05:59:50 +0000";
layers = (
{
layerId = "45AE5D37-AE90-4B36-85E4-274E7BAA8508";
name = "Light Italic";
paths = (
{
closed = 1;
nodes = (
"500 -10 OFFCURVE",
"606 117 OFFCURVE",
"649 316 CURVE SMOOTH",
"698 546 OFFCURVE",
"631 654 OFFCURVE",
"440 654 CURVE SMOOTH",
"244 654 OFFCURVE",
"136 546 OFFCURVE",
"87 316 CURVE SMOOTH",
"44 117 OFFCURVE",
"107 -10 OFFCURVE",
"298 -10 CURVE SMOOTH"
);
},
{
closed = 1;
nodes = (
"124 15 OFFCURVE",
"72 120 OFFCURVE",
"114 316 CURVE SMOOTH",
"163 546 OFFCURVE",
"275 629 OFFCURVE",
"434 629 CURVE SMOOTH",
"610 629 OFFCURVE",
"671 546 OFFCURVE",
"622 316 CURVE SMOOTH",
"580 120 OFFCURVE",
"474 15 OFFCURVE",
"304 15 CURVE SMOOTH"
);
},
{
closed = 1;
nodes = (
"464 688 LINE",
"433 837 LINE",
"403 837 LINE",
"441 688 LINE"
);
}
);
width = 682;
}
);
leftKerningGroup = O;
note = Ograve;
rightKerningGroup = O;
unicode = 00D2;
},
{
glyphname = Ohookabove;
lastChange = "2015-10-25 05:59:50 +0000";
layers = (
{
layerId = "45AE5D37-AE90-4B36-85E4-274E7BAA8508";
name = "Light Italic";
paths = (
{
closed = 1;
nodes = (
"500 -10 OFFCURVE",
"606 117 OFFCURVE",
"649 316 CURVE SMOOTH",
"698 546 OFFCURVE",
"631 654 OFFCURVE",
"440 654 CURVE SMOOTH",
"244 654 OFFCURVE",
"136 546 OFFCURVE",
"87 316 CURVE SMOOTH",
"44 117 OFFCURVE",
"107 -10 OFFCURVE",
"298 -10 CURVE SMOOTH"
);
},
{
closed = 1;
nodes = (
"124 15 OFFCURVE",
"72 120 OFFCURVE",
"114 316 CURVE SMOOTH",
"163 546 OFFCURVE",
"275 629 OFFCURVE",
"434 629 CURVE SMOOTH",
"610 629 OFFCURVE",
"671 546 OFFCURVE",
"622 316 CURVE SMOOTH",
"580 120 OFFCURVE",
"474 15 OFFCURVE",
"304 15 CURVE SMOOTH"
);
},
{
closed = 1;
nodes = (
"465 688 LINE",
"477 744 LINE",
"549 750 OFFCURVE",
"576 778 OFFCURVE",
"588 830 CURVE SMOOTH",
"599 885 OFFCURVE",
"565 915 OFFCURVE",
"495 915 CURVE SMOOTH",
"475 915 OFFCURVE",
"440 910 OFFCURVE",
"422 903 CURVE",
"417 878 LINE",
"436 885 OFFCURVE",
"466 890 OFFCURVE",
"488 890 CURVE SMOOTH",
"555 890 OFFCURVE",
"571 869 OFFCURVE",
"563 830 CURVE SMOOTH",
"554 789 OFFCURVE",
"539 766 OFFCURVE",
"453 763 CURVE",
"437 688 LINE"
);
}
);
width = 682;
}
);
leftKerningGroup = O;
note = Ohookabove;
rightKerningGroup = O;
unicode = 1ECE;
},
{
glyphname = Ohorn;
lastChange = "2015-10-25 05:59:50 +0000";
layers = (
{
layerId = "45AE5D37-AE90-4B36-85E4-274E7BAA8508";
name = "Light Italic";
paths = (
{
closed = 1;
nodes = (
"501 -10 OFFCURVE",
"606 117 OFFCURVE",
"649 316 CURVE SMOOTH",
"668 408 OFFCURVE",
"670 480 OFFCURVE",
"652 534 CURVE",
"735 539 OFFCURVE",
"790 573 OFFCURVE",
"815 688 CURVE",
"790 688 LINE",
"769 590 OFFCURVE",
"729 559 OFFCURVE",
"642 559 CURVE",
"610 621 OFFCURVE",
"545 654 OFFCURVE",
"440 654 CURVE SMOOTH",
"238 654 OFFCURVE",
"136 546 OFFCURVE",
"87 316 CURVE SMOOTH",
"44 117 OFFCURVE",
"102 -10 OFFCURVE",
"298 -10 CURVE SMOOTH"
);
},
{
closed = 1;
nodes = (
"126 15 OFFCURVE",
"72 120 OFFCURVE",
"114 316 CURVE SMOOTH",
"163 546 OFFCURVE",
"263 629 OFFCURVE",
"434 629 CURVE SMOOTH",
"611 629 OFFCURVE",
"671 546 OFFCURVE",
"622 316 CURVE SMOOTH",
"580 120 OFFCURVE",
"477 15 OFFCURVE",
"304 15 CURVE SMOOTH"
);
}
);
width = 739;
}
);
leftKerningGroup = O;
note = Ohorn;
rightKerningGroup = O;
unicode = 01A0;
},
{
glyphname = Ohornacute;
lastChange = "2015-10-25 05:59:50 +0000";
layers = (
{
layerId = "45AE5D37-AE90-4B36-85E4-274E7BAA8508";
name = "Light Italic";
paths = (
{
closed = 1;
nodes = (
"501 -10 OFFCURVE",
"606 117 OFFCURVE",
"649 316 CURVE SMOOTH",
"668 408 OFFCURVE",
"670 480 OFFCURVE",
"652 534 CURVE",
"735 539 OFFCURVE",
"790 573 OFFCURVE",
"815 688 CURVE",
"790 688 LINE",
"769 590 OFFCURVE",
"729 559 OFFCURVE",
"642 559 CURVE",
"610 621 OFFCURVE",
"545 654 OFFCURVE",
"440 654 CURVE SMOOTH",
"238 654 OFFCURVE",
"136 546 OFFCURVE",
"87 316 CURVE SMOOTH",
"44 117 OFFCURVE",
"102 -10 OFFCURVE",
"298 -10 CURVE SMOOTH"
);
},
{
closed = 1;
nodes = (
"126 15 OFFCURVE",
"72 120 OFFCURVE",
"114 316 CURVE SMOOTH",
"163 546 OFFCURVE",
"263 629 OFFCURVE",
"434 629 CURVE SMOOTH",
"611 629 OFFCURVE",
"671 546 OFFCURVE",
"622 316 CURVE SMOOTH",
"580 120 OFFCURVE",
"477 15 OFFCURVE",
"304 15 CURVE SMOOTH"
);
},
{
closed = 1;
nodes = (
"472 688 LINE",
"574 837 LINE",
"544 837 LINE",
"449 688 LINE"
);
}
);
width = 739;
}
);
leftKerningGroup = O;
note = Ohornacute;
rightKerningGroup = O;
unicode = 1EDA;
},
{
glyphname = Ohorndotbelow;
lastChange = "2015-10-25 05:59:50 +0000";
layers = (
{
layerId = "45AE5D37-AE90-4B36-85E4-274E7BAA8508";
name = "Light Italic";
paths = (
{
closed = 1;
nodes = (
"501 -10 OFFCURVE",
"606 117 OFFCURVE",
"649 316 CURVE SMOOTH",
"668 408 OFFCURVE",
"670 480 OFFCURVE",
"652 534 CURVE",
"735 539 OFFCURVE",
"790 573 OFFCURVE",
"815 688 CURVE",
"790 688 LINE",
"769 590 OFFCURVE",
"729 559 OFFCURVE",
"642 559 CURVE",
"610 621 OFFCURVE",
"545 654 OFFCURVE",
"440 654 CURVE SMOOTH",
"238 654 OFFCURVE",
"136 546 OFFCURVE",
"87 316 CURVE SMOOTH",
"44 117 OFFCURVE",
"102 -10 OFFCURVE",
"298 -10 CURVE SMOOTH"
);
},
{
closed = 1;
nodes = (
"295 -139 LINE",
"303 -102 LINE",
"266 -102 LINE",
"258 -139 LINE"
);
},
{
closed = 1;
nodes = (
"126 15 OFFCURVE",
"72 120 OFFCURVE",
"114 316 CURVE SMOOTH",
"163 546 OFFCURVE",
"263 629 OFFCURVE",
"434 629 CURVE SMOOTH",
"611 629 OFFCURVE",
"671 546 OFFCURVE",
"622 316 CURVE SMOOTH",
"580 120 OFFCURVE",
"477 15 OFFCURVE",
"304 15 CURVE SMOOTH"
);
}
);
width = 739;
}
);
leftKerningGroup = O;
note = Ohorndotbelow;
rightKerningGroup = O;
unicode = 1EE2;
},
{
glyphname = Ohorngrave;
lastChange = "2015-10-25 05:59:50 +0000";
layers = (
{
layerId = "45AE5D37-AE90-4B36-85E4-274E7BAA8508";
name = "Light Italic";
paths = (
{
closed = 1;
nodes = (
"501 -10 OFFCURVE",
"606 117 OFFCURVE",
"649 316 CURVE SMOOTH",
"668 408 OFFCURVE",
"670 480 OFFCURVE",
"652 534 CURVE",
"735 539 OFFCURVE",
"790 573 OFFCURVE",
"815 688 CURVE",
"790 688 LINE",
"769 590 OFFCURVE",
"729 559 OFFCURVE",
"642 559 CURVE",
"610 621 OFFCURVE",
"545 654 OFFCURVE",
"440 654 CURVE SMOOTH",
"238 654 OFFCURVE",
"136 546 OFFCURVE",
"87 316 CURVE SMOOTH",
"44 117 OFFCURVE",
"102 -10 OFFCURVE",
"298 -10 CURVE SMOOTH"
);
},
{
closed = 1;
nodes = (
"126 15 OFFCURVE",
"72 120 OFFCURVE",
"114 316 CURVE SMOOTH",
"163 546 OFFCURVE",
"263 629 OFFCURVE",
"434 629 CURVE SMOOTH",
"611 629 OFFCURVE",
"671 546 OFFCURVE",
"622 316 CURVE SMOOTH",
"580 120 OFFCURVE",
"477 15 OFFCURVE",
"304 15 CURVE SMOOTH"
);
},
{
closed = 1;
nodes = (
"490 688 LINE",
"459 837 LINE",
"429 837 LINE",
"467 688 LINE"
);
}
);
width = 739;
}
);
leftKerningGroup = O;
note = Ohorngrave;
rightKerningGroup = O;
unicode = 1EDC;
},
{
glyphname = Ohornhookabove;
lastChange = "2015-10-25 05:59:50 +0000";
layers = (
{
layerId = "45AE5D37-AE90-4B36-85E4-274E7BAA8508";
name = "Light Italic";
paths = (
{
closed = 1;
nodes = (
"501 -10 OFFCURVE",
"606 117 OFFCURVE",
"649 316 CURVE SMOOTH",
"668 408 OFFCURVE",
"670 480 OFFCURVE",
"652 534 CURVE",
"735 539 OFFCURVE",
"790 573 OFFCURVE",
"815 688 CURVE",
"790 688 LINE",
"769 590 OFFCURVE",
"729 559 OFFCURVE",
"642 559 CURVE",
"610 621 OFFCURVE",
"545 654 OFFCURVE",
"440 654 CURVE SMOOTH",
"238 654 OFFCURVE",
"136 546 OFFCURVE",
"87 316 CURVE SMOOTH",
"44 117 OFFCURVE",
"102 -10 OFFCURVE",
"298 -10 CURVE SMOOTH"
);
},
{
closed = 1;
nodes = (
"126 15 OFFCURVE",
"72 120 OFFCURVE",
"114 316 CURVE SMOOTH",
"163 546 OFFCURVE",
"263 629 OFFCURVE",
"434 629 CURVE SMOOTH",
"611 629 OFFCURVE",
"671 546 OFFCURVE",
"622 316 CURVE SMOOTH",
"580 120 OFFCURVE",
"477 15 OFFCURVE",
"304 15 CURVE SMOOTH"
);
},
{
closed = 1;
nodes = (
"472 688 LINE",
"484 744 LINE",
"556 750 OFFCURVE",
"583 778 OFFCURVE",
"595 830 CURVE SMOOTH",
"606 885 OFFCURVE",
"572 915 OFFCURVE",
"502 915 CURVE SMOOTH",
"482 915 OFFCURVE",
"447 910 OFFCURVE",
"429 903 CURVE",
"424 878 LINE",
"443 885 OFFCURVE",
"473 890 OFFCURVE",
"495 890 CURVE SMOOTH",
"562 890 OFFCURVE",
"578 869 OFFCURVE",
"570 830 CURVE SMOOTH",
"561 789 OFFCURVE",
"546 766 OFFCURVE",
"460 763 CURVE",
"444 688 LINE"
);
}
);
width = 739;
}
);
leftKerningGroup = O;
note = Ohornhookabove;
rightKerningGroup = O;
unicode = 1EDE;
},
{
glyphname = Ohorntilde;
lastChange = "2015-10-25 05:59:50 +0000";
layers = (
{
layerId = "45AE5D37-AE90-4B36-85E4-274E7BAA8508";
name = "Light Italic";
paths = (
{
closed = 1;
nodes = (
"501 -10 OFFCURVE",
"606 117 OFFCURVE",
"649 316 CURVE SMOOTH",
"668 408 OFFCURVE",
"670 480 OFFCURVE",
"652 534 CURVE",
"735 539 OFFCURVE",
"790 573 OFFCURVE",
"815 688 CURVE",
"790 688 LINE",
"769 590 OFFCURVE",
"729 559 OFFCURVE",
"642 559 CURVE",
"610 621 OFFCURVE",
"545 654 OFFCURVE",
"440 654 CURVE SMOOTH",
"238 654 OFFCURVE",
"136 546 OFFCURVE",
"87 316 CURVE SMOOTH",
"44 117 OFFCURVE",
"102 -10 OFFCURVE",
"298 -10 CURVE SMOOTH"
);
},
{
closed = 1;
nodes = (
"126 15 OFFCURVE",
"72 120 OFFCURVE",
"114 316 CURVE SMOOTH",
"163 546 OFFCURVE",
"263 629 OFFCURVE",
"434 629 CURVE SMOOTH",
"611 629 OFFCURVE",
"671 546 OFFCURVE",
"622 316 CURVE SMOOTH",
"580 120 OFFCURVE",
"477 15 OFFCURVE",
"304 15 CURVE SMOOTH"
);
},
{
closed = 1;
nodes = (
"570 718 OFFCURVE",
"593 728 OFFCURVE",
"610 746 CURVE",
"617 777 LINE",
"593 751 OFFCURVE",
"570 743 OFFCURVE",
"541 743 CURVE SMOOTH",
"498 743 OFFCURVE",
"477 779 OFFCURVE",
"428 779 CURVE SMOOTH",
"400 779 OFFCURVE",
"369 769 OFFCURVE",
"350 751 CURVE",
"344 720 LINE",
"371 747 OFFCURVE",
"398 754 OFFCURVE",
"426 754 CURVE SMOOTH",
"463 754 OFFCURVE",
"493 718 OFFCURVE",
"539 718 CURVE SMOOTH"
);
}
);
width = 739;
}
);
leftKerningGroup = O;
note = Ohorntilde;
rightKerningGroup = O;
unicode = 1EE0;
},
{
glyphname = Ohungarumlaut;
lastChange = "2015-10-25 05:59:50 +0000";
layers = (
{
layerId = "45AE5D37-AE90-4B36-85E4-274E7BAA8508";
name = "Light Italic";
paths = (
{
closed = 1;
nodes = (
"500 -10 OFFCURVE",
"606 117 OFFCURVE",
"649 316 CURVE SMOOTH",
"698 546 OFFCURVE",
"631 654 OFFCURVE",
"440 654 CURVE SMOOTH",
"244 654 OFFCURVE",
"136 546 OFFCURVE",
"87 316 CURVE SMOOTH",
"44 117 OFFCURVE",
"107 -10 OFFCURVE",
"298 -10 CURVE SMOOTH"
);
},
{
closed = 1;
nodes = (
"124 15 OFFCURVE",
"72 120 OFFCURVE",
"114 316 CURVE SMOOTH",
"163 546 OFFCURVE",
"275 629 OFFCURVE",
"434 629 CURVE SMOOTH",
"610 629 OFFCURVE",
"671 546 OFFCURVE",
"622 316 CURVE SMOOTH",
"580 120 OFFCURVE",
"474 15 OFFCURVE",
"304 15 CURVE SMOOTH"
);
},
{
closed = 1;
nodes = (
"347 688 LINE",
"443 817 LINE",
"414 817 LINE",
"325 688 LINE"
);
},
{
closed = 1;
nodes = (
"538 688 LINE",
"635 817 LINE",
"606 817 LINE",
"516 688 LINE"
);
}
);
width = 682;
}
);
leftKerningGroup = O;
note = Ohungarumlaut;
rightKerningGroup = O;
unicode = 0150;
},
{
glyphname = Omacron;
lastChange = "2015-10-25 05:59:50 +0000";
layers = (
{
layerId = "45AE5D37-AE90-4B36-85E4-274E7BAA8508";
name = "Light Italic";
paths = (
{
closed = 1;
nodes = (
"500 -10 OFFCURVE",
"606 117 OFFCURVE",
"649 316 CURVE SMOOTH",
"698 546 OFFCURVE",
"631 654 OFFCURVE",
"440 654 CURVE SMOOTH",
"244 654 OFFCURVE",
"136 546 OFFCURVE",
"87 316 CURVE SMOOTH",
"44 117 OFFCURVE",
"107 -10 OFFCURVE",
"298 -10 CURVE SMOOTH"
);
},
{
closed = 1;
nodes = (
"124 15 OFFCURVE",
"72 120 OFFCURVE",
"114 316 CURVE SMOOTH",
"163 546 OFFCURVE",
"275 629 OFFCURVE",
"434 629 CURVE SMOOTH",
"610 629 OFFCURVE",
"671 546 OFFCURVE",
"622 316 CURVE SMOOTH",
"580 120 OFFCURVE",
"474 15 OFFCURVE",
"304 15 CURVE SMOOTH"
);
},
{
closed = 1;
nodes = (
"586 718 LINE",
"592 743 LINE",
"326 743 LINE",
"320 718 LINE"
);
}
);
width = 682;
}
);
leftKerningGroup = O;
note = Omacron;
rightKerningGroup = O;
unicode = 014C;
},
{
glyphname = Oslash;
lastChange = "2015-10-25 05:59:50 +0000";
layers = (
{
layerId = "45AE5D37-AE90-4B36-85E4-274E7BAA8508";
name = "Light Italic";
paths = (
{
closed = 1;
nodes = (
"155 -53 LINE",
"189 8 LINE",
"219 -4 OFFCURVE",
"255 -10 OFFCURVE",
"298 -10 CURVE SMOOTH",
"500 -10 OFFCURVE",
"606 117 OFFCURVE",
"649 316 CURVE SMOOTH",
"687 496 OFFCURVE",
"654 601 OFFCURVE",
"547 638 CURVE",
"578 693 LINE",
"551 693 LINE",
"523 645 LINE",
"499 651 OFFCURVE",
"471 654 OFFCURVE",
"440 654 CURVE SMOOTH",
"244 654 OFFCURVE",
"136 546 OFFCURVE",
"87 316 CURVE SMOOTH",
"56 172 OFFCURVE",
"80 66 OFFCURVE",
"168 18 CURVE",
"128 -53 LINE"
);
},
{
closed = 1;
nodes = (
"102 82 OFFCURVE",
"84 176 OFFCURVE",
"114 316 CURVE SMOOTH",
"163 546 OFFCURVE",
"275 629 OFFCURVE",
"434 629 CURVE SMOOTH",
"462 629 OFFCURVE",
"488 626 OFFCURVE",
"510 622 CURVE",
"180 40 LINE"
);
},
{
closed = 1;
nodes = (
"264 15 OFFCURVE",
"230 20 OFFCURVE",
"202 30 CURVE",
"534 616 LINE",
"632 585 OFFCURVE",
"660 495 OFFCURVE",
"622 316 CURVE SMOOTH",
"580 120 OFFCURVE",
"474 15 OFFCURVE",
"304 15 CURVE SMOOTH"
);
}
);
width = 682;
}
);
leftKerningGroup = O;
note = Oslash;
rightKerningGroup = O;
unicode = 00D8;
},
{
glyphname = Oslashacute;
lastChange = "2015-10-25 05:59:50 +0000";
layers = (
{
layerId = "45AE5D37-AE90-4B36-85E4-274E7BAA8508";
name = "Light Italic";
paths = (
{
closed = 1;
nodes = (
"155 -53 LINE",
"189 8 LINE",
"219 -4 OFFCURVE",
"255 -10 OFFCURVE",
"298 -10 CURVE SMOOTH",
"500 -10 OFFCURVE",
"606 117 OFFCURVE",
"649 316 CURVE SMOOTH",
"687 496 OFFCURVE",
"654 601 OFFCURVE",
"547 638 CURVE",
"578 693 LINE",
"551 693 LINE",
"523 645 LINE",
"499 651 OFFCURVE",
"471 654 OFFCURVE",
"440 654 CURVE SMOOTH",
"244 654 OFFCURVE",
"136 546 OFFCURVE",
"87 316 CURVE SMOOTH",
"56 172 OFFCURVE",
"80 66 OFFCURVE",
"168 18 CURVE",
"128 -53 LINE"
);
},
{
closed = 1;
nodes = (
"102 82 OFFCURVE",
"84 176 OFFCURVE",
"114 316 CURVE SMOOTH",
"163 546 OFFCURVE",
"275 629 OFFCURVE",
"434 629 CURVE SMOOTH",
"462 629 OFFCURVE",
"488 626 OFFCURVE",
"510 622 CURVE",
"180 40 LINE"
);
},
{
closed = 1;
nodes = (
"264 15 OFFCURVE",
"230 20 OFFCURVE",
"202 30 CURVE",
"534 616 LINE",
"632 585 OFFCURVE",
"660 495 OFFCURVE",
"622 316 CURVE SMOOTH",
"580 120 OFFCURVE",
"474 15 OFFCURVE",
"304 15 CURVE SMOOTH"
);
},
{
closed = 1;
nodes = (
"460 688 LINE",
"562 837 LINE",
"532 837 LINE",
"437 688 LINE"
);
}
);
width = 682;
}
);
leftKerningGroup = O;
note = Oslashacute;
rightKerningGroup = O;
unicode = 01FE;
},
{
glyphname = Otilde;
lastChange = "2015-10-25 05:59:50 +0000";
layers = (
{
layerId = "45AE5D37-AE90-4B36-85E4-274E7BAA8508";
name = "Light Italic";
paths = (
{
closed = 1;
nodes = (
"500 -10 OFFCURVE",
"606 117 OFFCURVE",
"649 316 CURVE SMOOTH",
"698 546 OFFCURVE",
"631 654 OFFCURVE",
"440 654 CURVE SMOOTH",
"244 654 OFFCURVE",
"136 546 OFFCURVE",
"87 316 CURVE SMOOTH",
"44 117 OFFCURVE",
"107 -10 OFFCURVE",
"298 -10 CURVE SMOOTH"
);
},
{
closed = 1;
nodes = (
"124 15 OFFCURVE",
"72 120 OFFCURVE",
"114 316 CURVE SMOOTH",
"163 546 OFFCURVE",
"275 629 OFFCURVE",
"434 629 CURVE SMOOTH",
"610 629 OFFCURVE",
"671 546 OFFCURVE",
"622 316 CURVE SMOOTH",
"580 120 OFFCURVE",
"474 15 OFFCURVE",
"304 15 CURVE SMOOTH"
);
},
{
closed = 1;
nodes = (
"550 718 OFFCURVE",
"573 728 OFFCURVE",
"590 746 CURVE",
"597 777 LINE",
"573 751 OFFCURVE",
"550 743 OFFCURVE",
"521 743 CURVE SMOOTH",
"478 743 OFFCURVE",
"457 779 OFFCURVE",
"408 779 CURVE SMOOTH",
"380 779 OFFCURVE",
"349 769 OFFCURVE",
"330 751 CURVE",
"324 720 LINE",
"351 747 OFFCURVE",
"378 754 OFFCURVE",
"406 754 CURVE SMOOTH",
"443 754 OFFCURVE",
"473 718 OFFCURVE",
"519 718 CURVE SMOOTH"
);
}
);
width = 682;
}
);
leftKerningGroup = O;
note = Otilde;
rightKerningGroup = O;
unicode = 00D5;
},
{
glyphname = OE;
lastChange = "2015-10-25 05:59:50 +0000";
layers = (
{
layerId = "45AE5D37-AE90-4B36-85E4-274E7BAA8508";
name = "Light Italic";
paths = (
{
closed = 1;
nodes = (
"436 -10 OFFCURVE",
"529 47 OFFCURVE",
"588 146 CURVE",
"557 0 LINE",
"965 0 LINE",
"970 25 LINE",
"590 25 LINE",
"650 310 LINE",
"995 310 LINE",
"1001 335 LINE",
"656 335 LINE",
"716 619 LINE",
"1096 619 LINE",
"1101 644 LINE",
"693 644 LINE",
"662 498 LINE",
"645 603 OFFCURVE",
"572 654 OFFCURVE",
"442 654 CURVE SMOOTH",
"246 654 OFFCURVE",
"138 546 OFFCURVE",
"89 316 CURVE SMOOTH",
"46 117 OFFCURVE",
"109 -10 OFFCURVE",
"300 -10 CURVE SMOOTH"
);
},
{
closed = 1;
nodes = (
"126 15 OFFCURVE",
"74 120 OFFCURVE",
"116 316 CURVE SMOOTH",
"165 546 OFFCURVE",
"277 629 OFFCURVE",
"436 629 CURVE SMOOTH",
"605 629 OFFCURVE",
"668 552 OFFCURVE",
"629 343 CURVE SMOOTH",
"622 308 LINE SMOOTH",
"584 116 OFFCURVE",
"474 15 OFFCURVE",
"306 15 CURVE SMOOTH"
);
}
);
width = 1065;
}
);
leftKerningGroup = O;
note = OE;
rightKerningGroup = E;
unicode = 0152;
},
{
glyphname = P;
lastChange = "2015-10-25 05:59:50 +0000";
layers = (
{
layerId = "45AE5D37-AE90-4B36-85E4-274E7BAA8508";
name = "Light Italic";
paths = (
{
closed = 1;
nodes = (
"68 0 LINE",
"123 261 LINE",
"332 261 LINE SMOOTH",
"465 261 OFFCURVE",
"550 331 OFFCURVE",
"575 451 CURVE SMOOTH",
"600 568 OFFCURVE",
"555 644 OFFCURVE",
"417 644 CURVE SMOOTH",
"176 644 LINE",
"40 0 LINE"
);
},
{
closed = 1;
nodes = (
"199 619 LINE",
"420 619 LINE SMOOTH",
"537 619 OFFCURVE",
"571 559 OFFCURVE",
"548 451 CURVE SMOOTH",
"527 350 OFFCURVE",
"459 286 OFFCURVE",
"339 286 CURVE SMOOTH",
"128 286 LINE"
);
}
);
width = 560;
}
);
note = P;
unicode = 0050;
},
{
glyphname = Thorn;
lastChange = "2015-10-25 05:59:50 +0000";
layers = (
{
layerId = "45AE5D37-AE90-4B36-85E4-274E7BAA8508";
name = "Light Italic";
paths = (
{
closed = 1;
nodes = (
"68 0 LINE",
"95 130 LINE",
"304 130 LINE SMOOTH",
"430 130 OFFCURVE",
"522 200 OFFCURVE",
"548 320 CURVE SMOOTH",
"572 437 OFFCURVE",
"528 513 OFFCURVE",
"390 513 CURVE SMOOTH",
"177 513 LINE",
"204 644 LINE",
"176 644 LINE",
"40 0 LINE"
);
},
{
closed = 1;
nodes = (
"171 487 LINE",
"387 487 LINE SMOOTH",
"500 487 OFFCURVE",
"543 428 OFFCURVE",
"521 320 CURVE SMOOTH",
"499 219 OFFCURVE",
"426 155 OFFCURVE",
"311 155 CURVE SMOOTH",
"100 155 LINE"
);
}
);
width = 580;
}
);
note = Thorn;
unicode = 00DE;
},
{
glyphname = Q;
lastChange = "2015-10-25 05:59:50 +0000";
layers = (
{
layerId = "45AE5D37-AE90-4B36-85E4-274E7BAA8508";
name = "Light Italic";
paths = (
{
closed = 1;
nodes = (
"383 -172 OFFCURVE",
"413 -168 OFFCURVE",
"434 -162 CURVE",
"440 -136 LINE",
"418 -142 OFFCURVE",
"386 -146 OFFCURVE",
"366 -146 CURVE SMOOTH",
"292 -146 OFFCURVE",
"284 -106 OFFCURVE",
"304 -10 CURVE",
"500 -7 OFFCURVE",
"606 119 OFFCURVE",
"649 316 CURVE SMOOTH",
"698 546 OFFCURVE",
"636 654 OFFCURVE",
"440 654 CURVE SMOOTH",
"244 654 OFFCURVE",
"136 546 OFFCURVE",
"87 316 CURVE SMOOTH",
"45 124 OFFCURVE",
"98 -1 OFFCURVE",
"277 -9 CURVE",
"257 -110 OFFCURVE",
"268 -172 OFFCURVE",
"361 -172 CURVE SMOOTH"
);
},
{
closed = 1;
nodes = (
"120 15 OFFCURVE",
"72 120 OFFCURVE",
"114 316 CURVE SMOOTH",
"163 546 OFFCURVE",
"273 629 OFFCURVE",
"434 629 CURVE SMOOTH",
"614 629 OFFCURVE",
"671 546 OFFCURVE",
"622 316 CURVE SMOOTH",
"580 120 OFFCURVE",
"474 15 OFFCURVE",
"304 15 CURVE SMOOTH"
);
}
);
width = 682;
}
);
leftKerningGroup = O;
note = Q;
rightKerningGroup = O;
unicode = 0051;
},
{
glyphname = R;
lastChange = "2015-10-25 05:59:50 +0000";
layers = (
{
layerId = "45AE5D37-AE90-4B36-85E4-274E7BAA8508";
name = "Light Italic";
paths = (
{
closed = 1;
nodes = (
"68 0 LINE",
"126 273 LINE",
"293 273 LINE SMOOTH",
"380 273 OFFCURVE",
"396 253 OFFCURVE",
"408 202 CURVE SMOOTH",
"454 0 LINE",
"482 0 LINE",
"437 208 LINE SMOOTH",
"429 244 OFFCURVE",
"422 264 OFFCURVE",
"392 278 CURVE",
"494 292 OFFCURVE",
"555 357 OFFCURVE",
"577 460 CURVE SMOOTH",
"601 573 OFFCURVE",
"559 644 OFFCURVE",
"432 644 CURVE SMOOTH",
"176 644 LINE",
"40 0 LINE"
);
},
{
closed = 1;
nodes = (
"199 619 LINE",
"430 619 LINE SMOOTH",
"542 619 OFFCURVE",
"573 566 OFFCURVE",
"550 460 CURVE SMOOTH",
"526 344 OFFCURVE",
"452 298 OFFCURVE",
"349 298 CURVE SMOOTH",
"131 298 LINE"
);
}
);
width = 582;
}
);
note = R;
rightKerningGroup = R;
unicode = 0052;
},
{
glyphname = Racute;
lastChange = "2015-10-25 05:59:50 +0000";
layers = (
{
layerId = "45AE5D37-AE90-4B36-85E4-274E7BAA8508";
name = "Light Italic";
paths = (
{
closed = 1;
nodes = (
"68 0 LINE",
"126 273 LINE",
"293 273 LINE SMOOTH",
"380 273 OFFCURVE",
"396 253 OFFCURVE",
"408 202 CURVE SMOOTH",
"454 0 LINE",
"482 0 LINE",
"437 208 LINE SMOOTH",
"429 244 OFFCURVE",
"422 264 OFFCURVE",
"392 278 CURVE",
"494 292 OFFCURVE",
"555 357 OFFCURVE",
"577 460 CURVE SMOOTH",
"601 573 OFFCURVE",
"559 644 OFFCURVE",
"432 644 CURVE SMOOTH",
"176 644 LINE",
"40 0 LINE"
);
},
{
closed = 1;
nodes = (
"199 619 LINE",
"430 619 LINE SMOOTH",
"542 619 OFFCURVE",
"573 566 OFFCURVE",
"550 460 CURVE SMOOTH",
"526 344 OFFCURVE",
"452 298 OFFCURVE",
"349 298 CURVE SMOOTH",
"131 298 LINE"
);
},
{
closed = 1;
nodes = (
"407 688 LINE",
"509 837 LINE",
"479 837 LINE",
"384 688 LINE"
);
}
);
width = 582;
}
);
note = Racute;
rightKerningGroup = R;
unicode = 0154;
},
{
glyphname = Rcaron;
lastChange = "2015-10-25 05:59:50 +0000";
layers = (
{
layerId = "45AE5D37-AE90-4B36-85E4-274E7BAA8508";
name = "Light Italic";
paths = (
{
closed = 1;
nodes = (
"68 0 LINE",
"126 273 LINE",
"293 273 LINE SMOOTH",
"380 273 OFFCURVE",
"396 253 OFFCURVE",
"408 202 CURVE SMOOTH",
"454 0 LINE",
"482 0 LINE",
"437 208 LINE SMOOTH",
"429 244 OFFCURVE",
"422 264 OFFCURVE",
"392 278 CURVE",
"494 292 OFFCURVE",
"555 357 OFFCURVE",
"577 460 CURVE SMOOTH",
"601 573 OFFCURVE",
"559 644 OFFCURVE",
"432 644 CURVE SMOOTH",
"176 644 LINE",
"40 0 LINE"
);
},
{
closed = 1;
nodes = (
"199 619 LINE",
"430 619 LINE SMOOTH",
"542 619 OFFCURVE",
"573 566 OFFCURVE",
"550 460 CURVE SMOOTH",
"526 344 OFFCURVE",
"452 298 OFFCURVE",
"349 298 CURVE SMOOTH",
"131 298 LINE"
);
},
{
closed = 1;
nodes = (
"419 688 LINE",
"540 810 LINE",
"509 810 LINE",
"406 706 LINE",
"347 810 LINE",
"320 810 LINE",
"389 688 LINE"
);
}
);
width = 582;
}
);
note = Rcaron;
rightKerningGroup = R;
unicode = 0158;
},
{
glyphname = Rcommaaccent;
lastChange = "2015-10-25 05:59:50 +0000";
layers = (
{
layerId = "45AE5D37-AE90-4B36-85E4-274E7BAA8508";
name = "Light Italic";
paths = (
{
closed = 1;
nodes = (
"68 0 LINE",
"126 273 LINE",
"293 273 LINE SMOOTH",
"380 273 OFFCURVE",
"396 253 OFFCURVE",
"408 202 CURVE SMOOTH",
"454 0 LINE",
"482 0 LINE",
"437 208 LINE SMOOTH",
"429 244 OFFCURVE",
"422 264 OFFCURVE",
"392 278 CURVE",
"494 292 OFFCURVE",
"555 357 OFFCURVE",
"577 460 CURVE SMOOTH",
"601 573 OFFCURVE",
"559 644 OFFCURVE",
"432 644 CURVE SMOOTH",
"176 644 LINE",
"40 0 LINE"
);
},
{
closed = 1;
nodes = (
"170 -190 LINE",
"238 -37 LINE",
"205 -37 LINE",
"148 -190 LINE"
);
},
{
closed = 1;
nodes = (
"199 619 LINE",
"430 619 LINE SMOOTH",
"542 619 OFFCURVE",
"573 566 OFFCURVE",
"550 460 CURVE SMOOTH",
"526 344 OFFCURVE",
"452 298 OFFCURVE",
"349 298 CURVE SMOOTH",
"131 298 LINE"
);
}
);
width = 582;
}
);
note = Rcommaaccent;
rightKerningGroup = R;
unicode = 0156;
},
{
glyphname = Rdotbelow;
lastChange = "2015-10-25 05:59:50 +0000";
layers = (
{
layerId = "45AE5D37-AE90-4B36-85E4-274E7BAA8508";
name = "Light Italic";
paths = (
{
closed = 1;
nodes = (
"68 0 LINE",
"126 273 LINE",
"293 273 LINE SMOOTH",
"380 273 OFFCURVE",
"396 253 OFFCURVE",
"408 202 CURVE SMOOTH",
"454 0 LINE",
"482 0 LINE",
"437 208 LINE SMOOTH",
"429 244 OFFCURVE",
"422 264 OFFCURVE",
"392 278 CURVE",
"494 292 OFFCURVE",
"555 357 OFFCURVE",
"577 460 CURVE SMOOTH",
"601 573 OFFCURVE",
"559 644 OFFCURVE",
"432 644 CURVE SMOOTH",
"176 644 LINE",
"40 0 LINE"
);
},
{
closed = 1;
nodes = (
"260 -139 LINE",
"268 -102 LINE",
"231 -102 LINE",
"223 -139 LINE"
);
},
{
closed = 1;
nodes = (
"199 619 LINE",
"430 619 LINE SMOOTH",
"542 619 OFFCURVE",
"573 566 OFFCURVE",
"550 460 CURVE SMOOTH",
"526 344 OFFCURVE",
"452 298 OFFCURVE",
"349 298 CURVE SMOOTH",
"131 298 LINE"
);
}
);
width = 582;
}
);
note = Rdotbelow;
rightKerningGroup = R;
unicode = 1E5A;
},
{
glyphname = Rdotbelowmacron;
lastChange = "2015-10-25 05:59:50 +0000";
layers = (
{
layerId = "45AE5D37-AE90-4B36-85E4-274E7BAA8508";
name = "Light Italic";
paths = (
{
closed = 1;
nodes = (
"68 0 LINE",
"126 273 LINE",
"293 273 LINE SMOOTH",
"380 273 OFFCURVE",
"396 253 OFFCURVE",
"408 202 CURVE SMOOTH",
"454 0 LINE",
"482 0 LINE",
"437 208 LINE SMOOTH",
"429 244 OFFCURVE",
"422 264 OFFCURVE",
"392 278 CURVE",
"494 292 OFFCURVE",
"555 357 OFFCURVE",
"577 460 CURVE SMOOTH",
"601 573 OFFCURVE",
"559 644 OFFCURVE",
"432 644 CURVE SMOOTH",
"176 644 LINE",
"40 0 LINE"
);
},
{
closed = 1;
nodes = (
"238 -139 LINE",
"246 -102 LINE",
"209 -102 LINE",
"201 -139 LINE"
);
},
{
closed = 1;
nodes = (
"199 619 LINE",
"430 619 LINE SMOOTH",
"542 619 OFFCURVE",
"573 566 OFFCURVE",
"550 460 CURVE SMOOTH",
"526 344 OFFCURVE",
"452 298 OFFCURVE",
"349 298 CURVE SMOOTH",
"131 298 LINE"
);
},
{
closed = 1;
nodes = (
"536 718 LINE",
"542 743 LINE",
"276 743 LINE",
"270 718 LINE"
);
}
);
width = 582;
}
);
note = Rdotbelowmacron;
rightKerningGroup = R;
unicode = 1E5C;
},
{
glyphname = Rlinebelow;
lastChange = "2015-10-25 05:59:50 +0000";
layers = (
{
layerId = "45AE5D37-AE90-4B36-85E4-274E7BAA8508";
name = "Light Italic";
paths = (
{
closed = 1;
nodes = (
"68 0 LINE",
"126 273 LINE",
"293 273 LINE SMOOTH",
"380 273 OFFCURVE",
"396 253 OFFCURVE",
"408 202 CURVE SMOOTH",
"454 0 LINE",
"482 0 LINE",
"437 208 LINE SMOOTH",
"429 244 OFFCURVE",
"422 264 OFFCURVE",
"392 278 CURVE",
"494 292 OFFCURVE",
"555 357 OFFCURVE",
"577 460 CURVE SMOOTH",
"601 573 OFFCURVE",
"559 644 OFFCURVE",
"432 644 CURVE SMOOTH",
"176 644 LINE",
"40 0 LINE"
);
},
{
closed = 1;
nodes = (
"356 -101 LINE",
"361 -76 LINE",
"95 -76 LINE",
"90 -101 LINE"
);
},
{
closed = 1;
nodes = (
"199 619 LINE",
"430 619 LINE SMOOTH",
"542 619 OFFCURVE",
"573 566 OFFCURVE",
"550 460 CURVE SMOOTH",
"526 344 OFFCURVE",
"452 298 OFFCURVE",
"349 298 CURVE SMOOTH",
"131 298 LINE"
);
}
);
width = 582;
}
);
note = Rlinebelow;
rightKerningGroup = R;
unicode = 1E5E;
},
{
glyphname = S;
lastChange = "2015-10-25 05:59:50 +0000";
layers = (
{
layerId = "45AE5D37-AE90-4B36-85E4-274E7BAA8508";
name = "Light Italic";
paths = (
{
closed = 1;
nodes = (
"369 -10 OFFCURVE",
"460 44 OFFCURVE",
"485 160 CURVE SMOOTH",
"504 253 OFFCURVE",
"462 303 OFFCURVE",
"313 338 CURVE SMOOTH",
"171 372 OFFCURVE",
"132 403 OFFCURVE",
"150 485 CURVE SMOOTH",
"171 584 OFFCURVE",
"250 629 OFFCURVE",
"385 629 CURVE SMOOTH",
"446 629 OFFCURVE",
"499 620 OFFCURVE",
"539 606 CURVE",
"545 631 LINE",
"517 641 OFFCURVE",
"453 654 OFFCURVE",
"383 654 CURVE SMOOTH",
"223 654 OFFCURVE",
"144 585 OFFCURVE",
"123 485 CURVE SMOOTH",
"104 397 OFFCURVE",
"145 350 OFFCURVE",
"288 318 CURVE SMOOTH",
"425 288 OFFCURVE",
"477 252 OFFCURVE",
"458 160 CURVE SMOOTH",
"436 58 OFFCURVE",
"354 14 OFFCURVE",
"219 14 CURVE SMOOTH",
"150 14 OFFCURVE",
"95 23 OFFCURVE",
"46 41 CURVE",
"41 16 LINE",
"83 -1 OFFCURVE",
"138 -10 OFFCURVE",
"214 -10 CURVE SMOOTH"
);
}
);
width = 551;
}
);
leftKerningGroup = S;
note = S;
rightKerningGroup = S;
unicode = 0053;
},
{
glyphname = Sacute;
lastChange = "2015-10-25 05:59:50 +0000";
layers = (
{
layerId = "45AE5D37-AE90-4B36-85E4-274E7BAA8508";
name = "Light Italic";
paths = (
{
closed = 1;
nodes = (
"369 -10 OFFCURVE",
"460 44 OFFCURVE",
"485 160 CURVE SMOOTH",
"504 253 OFFCURVE",
"462 303 OFFCURVE",
"313 338 CURVE SMOOTH",
"171 372 OFFCURVE",
"132 403 OFFCURVE",
"150 485 CURVE SMOOTH",
"171 584 OFFCURVE",
"250 629 OFFCURVE",
"385 629 CURVE SMOOTH",
"446 629 OFFCURVE",
"499 620 OFFCURVE",
"539 606 CURVE",
"545 631 LINE",
"517 641 OFFCURVE",
"453 654 OFFCURVE",
"383 654 CURVE SMOOTH",
"223 654 OFFCURVE",
"144 585 OFFCURVE",
"123 485 CURVE SMOOTH",
"104 397 OFFCURVE",
"145 350 OFFCURVE",
"288 318 CURVE SMOOTH",
"425 288 OFFCURVE",
"477 252 OFFCURVE",
"458 160 CURVE SMOOTH",
"436 58 OFFCURVE",
"354 14 OFFCURVE",
"219 14 CURVE SMOOTH",
"150 14 OFFCURVE",
"95 23 OFFCURVE",
"46 41 CURVE",
"41 16 LINE",
"83 -1 OFFCURVE",
"138 -10 OFFCURVE",
"214 -10 CURVE SMOOTH"
);
},
{
closed = 1;
nodes = (
"387 700 LINE",
"489 849 LINE",
"459 849 LINE",
"364 700 LINE"
);
}
);
width = 551;
}
);
leftKerningGroup = S;
note = Sacute;
rightKerningGroup = S;
unicode = 015A;
},
{
glyphname = Scaron;
lastChange = "2015-10-25 05:59:50 +0000";
layers = (
{
layerId = "45AE5D37-AE90-4B36-85E4-274E7BAA8508";
name = "Light Italic";
paths = (
{
closed = 1;
nodes = (
"369 -10 OFFCURVE",
"460 44 OFFCURVE",
"485 160 CURVE SMOOTH",
"504 253 OFFCURVE",
"462 303 OFFCURVE",
"313 338 CURVE SMOOTH",
"171 372 OFFCURVE",
"132 403 OFFCURVE",
"150 485 CURVE SMOOTH",
"171 584 OFFCURVE",
"250 629 OFFCURVE",
"385 629 CURVE SMOOTH",
"446 629 OFFCURVE",
"499 620 OFFCURVE",
"539 606 CURVE",
"545 631 LINE",
"517 641 OFFCURVE",
"453 654 OFFCURVE",
"383 654 CURVE SMOOTH",
"223 654 OFFCURVE",
"144 585 OFFCURVE",
"123 485 CURVE SMOOTH",
"104 397 OFFCURVE",
"145 350 OFFCURVE",
"288 318 CURVE SMOOTH",
"425 288 OFFCURVE",
"477 252 OFFCURVE",
"458 160 CURVE SMOOTH",
"436 58 OFFCURVE",
"354 14 OFFCURVE",
"219 14 CURVE SMOOTH",
"150 14 OFFCURVE",
"95 23 OFFCURVE",
"46 41 CURVE",
"41 16 LINE",
"83 -1 OFFCURVE",
"138 -10 OFFCURVE",
"214 -10 CURVE SMOOTH"
);
},
{
closed = 1;
nodes = (
"408 688 LINE",
"529 810 LINE",
"498 810 LINE",
"395 706 LINE",
"336 810 LINE",
"309 810 LINE",
"378 688 LINE"
);
}
);
width = 551;
}
);
leftKerningGroup = S;
note = Scaron;
rightKerningGroup = S;
unicode = 0160;
},
{
glyphname = Scedilla;
lastChange = "2015-10-25 05:59:50 +0000";
layers = (
{
layerId = "45AE5D37-AE90-4B36-85E4-274E7BAA8508";
name = "Light Italic";
paths = (
{
closed = 1;
nodes = (
"261 -240 OFFCURVE",
"307 -204 OFFCURVE",
"321 -139 CURVE SMOOTH",
"333 -81 OFFCURVE",
"293 -53 OFFCURVE",
"222 -53 CURVE",
"247 -9 LINE",
"382 -1 OFFCURVE",
"462 52 OFFCURVE",
"485 160 CURVE SMOOTH",
"504 253 OFFCURVE",
"462 303 OFFCURVE",
"313 338 CURVE SMOOTH",
"171 372 OFFCURVE",
"132 403 OFFCURVE",
"150 485 CURVE SMOOTH",
"171 584 OFFCURVE",
"250 629 OFFCURVE",
"385 629 CURVE SMOOTH",
"446 629 OFFCURVE",
"499 620 OFFCURVE",
"539 606 CURVE",
"545 631 LINE",
"517 641 OFFCURVE",
"453 654 OFFCURVE",
"383 654 CURVE SMOOTH",
"223 654 OFFCURVE",
"144 585 OFFCURVE",
"123 485 CURVE SMOOTH",
"104 397 OFFCURVE",
"145 350 OFFCURVE",
"288 318 CURVE SMOOTH",
"425 288 OFFCURVE",
"477 252 OFFCURVE",
"458 160 CURVE SMOOTH",
"436 58 OFFCURVE",
"354 14 OFFCURVE",
"219 14 CURVE SMOOTH",
"150 14 OFFCURVE",
"95 23 OFFCURVE",
"46 41 CURVE",
"41 16 LINE",
"83 -1 OFFCURVE",
"138 -10 OFFCURVE",
"218 -10 CURVE",
"181 -76 LINE",
"209 -76 LINE SMOOTH",
"280 -76 OFFCURVE",
"304 -93 OFFCURVE",
"294 -141 CURVE SMOOTH",
"282 -195 OFFCURVE",
"243 -215 OFFCURVE",
"172 -215 CURVE SMOOTH",
"149 -215 OFFCURVE",
"126 -212 OFFCURVE",
"110 -207 CURVE",
"104 -232 LINE",
"118 -236 OFFCURVE",
"144 -240 OFFCURVE",
"165 -240 CURVE SMOOTH"
);
}
);
width = 551;
}
);
leftKerningGroup = S;
note = Scedilla;
rightKerningGroup = S;
unicode = 015E;
},
{
glyphname = Scircumflex;
lastChange = "2015-10-25 05:59:50 +0000";
layers = (
{
layerId = "45AE5D37-AE90-4B36-85E4-274E7BAA8508";
name = "Light Italic";
paths = (
{
closed = 1;
nodes = (
"369 -10 OFFCURVE",
"460 44 OFFCURVE",
"485 160 CURVE SMOOTH",
"504 253 OFFCURVE",
"462 303 OFFCURVE",
"313 338 CURVE SMOOTH",
"171 372 OFFCURVE",
"132 403 OFFCURVE",
"150 485 CURVE SMOOTH",
"171 584 OFFCURVE",
"250 629 OFFCURVE",
"385 629 CURVE SMOOTH",
"446 629 OFFCURVE",
"499 620 OFFCURVE",
"539 606 CURVE",
"545 631 LINE",
"517 641 OFFCURVE",
"453 654 OFFCURVE",
"383 654 CURVE SMOOTH",
"223 654 OFFCURVE",
"144 585 OFFCURVE",
"123 485 CURVE SMOOTH",
"104 397 OFFCURVE",
"145 350 OFFCURVE",
"288 318 CURVE SMOOTH",
"425 288 OFFCURVE",
"477 252 OFFCURVE",
"458 160 CURVE SMOOTH",
"436 58 OFFCURVE",
"354 14 OFFCURVE",
"219 14 CURVE SMOOTH",
"150 14 OFFCURVE",
"95 23 OFFCURVE",
"46 41 CURVE",
"41 16 LINE",
"83 -1 OFFCURVE",
"138 -10 OFFCURVE",
"214 -10 CURVE SMOOTH"
);
},
{
closed = 1;
nodes = (
"305 720 LINE",
"408 824 LINE",
"467 720 LINE",
"494 720 LINE",
"425 842 LINE",
"395 842 LINE",
"275 720 LINE"
);
}
);
width = 551;
}
);
leftKerningGroup = S;
note = Scircumflex;
rightKerningGroup = S;
unicode = 015C;
},
{
glyphname = Scommaaccent;
lastChange = "2015-10-25 05:59:50 +0000";
layers = (
{
layerId = "45AE5D37-AE90-4B36-85E4-274E7BAA8508";
name = "Light Italic";
paths = (
{
closed = 1;
nodes = (
"369 -10 OFFCURVE",
"460 44 OFFCURVE",
"485 160 CURVE SMOOTH",
"504 253 OFFCURVE",
"462 303 OFFCURVE",
"313 338 CURVE SMOOTH",
"171 372 OFFCURVE",
"132 403 OFFCURVE",
"150 485 CURVE SMOOTH",
"171 584 OFFCURVE",
"250 629 OFFCURVE",
"385 629 CURVE SMOOTH",
"446 629 OFFCURVE",
"499 620 OFFCURVE",
"539 606 CURVE",
"545 631 LINE",
"517 641 OFFCURVE",
"453 654 OFFCURVE",
"383 654 CURVE SMOOTH",
"223 654 OFFCURVE",
"144 585 OFFCURVE",
"123 485 CURVE SMOOTH",
"104 397 OFFCURVE",
"145 350 OFFCURVE",
"288 318 CURVE SMOOTH",
"425 288 OFFCURVE",
"477 252 OFFCURVE",
"458 160 CURVE SMOOTH",
"436 58 OFFCURVE",
"354 14 OFFCURVE",
"219 14 CURVE SMOOTH",
"150 14 OFFCURVE",
"95 23 OFFCURVE",
"46 41 CURVE",
"41 16 LINE",
"83 -1 OFFCURVE",
"138 -10 OFFCURVE",
"214 -10 CURVE SMOOTH"
);
},
{
closed = 1;
nodes = (
"173 -210 LINE",
"240 -57 LINE",
"208 -57 LINE",
"151 -210 LINE"
);
}
);
width = 551;
}
);
leftKerningGroup = S;
note = Scommaaccent;
rightKerningGroup = S;
unicode = 0218;
},
{
glyphname = Sdotaccent;
lastChange = "2015-10-25 05:59:49 +0000";
layers = (
{
layerId = "45AE5D37-AE90-4B36-85E4-274E7BAA8508";
name = "Light Italic";
paths = (
{
closed = 1;
nodes = (
"369 -10 OFFCURVE",
"460 44 OFFCURVE",
"485 160 CURVE SMOOTH",
"504 253 OFFCURVE",
"462 303 OFFCURVE",
"313 338 CURVE SMOOTH",
"171 372 OFFCURVE",
"132 403 OFFCURVE",
"150 485 CURVE SMOOTH",
"171 584 OFFCURVE",
"250 629 OFFCURVE",
"385 629 CURVE SMOOTH",
"446 629 OFFCURVE",
"499 620 OFFCURVE",
"539 606 CURVE",
"545 631 LINE",
"517 641 OFFCURVE",
"453 654 OFFCURVE",
"383 654 CURVE SMOOTH",
"223 654 OFFCURVE",
"144 585 OFFCURVE",
"123 485 CURVE SMOOTH",
"104 397 OFFCURVE",
"145 350 OFFCURVE",
"288 318 CURVE SMOOTH",
"425 288 OFFCURVE",
"477 252 OFFCURVE",
"458 160 CURVE SMOOTH",
"436 58 OFFCURVE",
"354 14 OFFCURVE",
"219 14 CURVE SMOOTH",
"150 14 OFFCURVE",
"95 23 OFFCURVE",
"46 41 CURVE",
"41 16 LINE",
"83 -1 OFFCURVE",
"138 -10 OFFCURVE",
"214 -10 CURVE SMOOTH"
);
},
{
closed = 1;
nodes = (
"399 718 LINE",
"406 753 LINE",
"371 753 LINE",
"364 718 LINE"
);
}
);
width = 551;
}
);
leftKerningGroup = S;
note = Sdotaccent;
rightKerningGroup = S;
unicode = 1E60;
},
{
glyphname = Sdotbelow;
lastChange = "2015-10-25 05:59:50 +0000";
layers = (
{
layerId = "45AE5D37-AE90-4B36-85E4-274E7BAA8508";
name = "Light Italic";
paths = (
{
closed = 1;
nodes = (
"369 -10 OFFCURVE",
"460 44 OFFCURVE",
"485 160 CURVE SMOOTH",
"504 253 OFFCURVE",
"462 303 OFFCURVE",
"313 338 CURVE SMOOTH",
"171 372 OFFCURVE",
"132 403 OFFCURVE",
"150 485 CURVE SMOOTH",
"171 584 OFFCURVE",
"250 629 OFFCURVE",
"385 629 CURVE SMOOTH",
"446 629 OFFCURVE",
"499 620 OFFCURVE",
"539 606 CURVE",
"545 631 LINE",
"517 641 OFFCURVE",
"453 654 OFFCURVE",
"383 654 CURVE SMOOTH",
"223 654 OFFCURVE",
"144 585 OFFCURVE",
"123 485 CURVE SMOOTH",
"104 397 OFFCURVE",
"145 350 OFFCURVE",
"288 318 CURVE SMOOTH",
"425 288 OFFCURVE",
"477 252 OFFCURVE",
"458 160 CURVE SMOOTH",
"436 58 OFFCURVE",
"354 14 OFFCURVE",
"219 14 CURVE SMOOTH",
"150 14 OFFCURVE",
"95 23 OFFCURVE",
"46 41 CURVE",
"41 16 LINE",
"83 -1 OFFCURVE",
"138 -10 OFFCURVE",
"214 -10 CURVE SMOOTH"
);
},
{
closed = 1;
nodes = (
"223 -139 LINE",
"231 -102 LINE",
"194 -102 LINE",
"186 -139 LINE"
);
}
);
width = 551;
}
);
leftKerningGroup = S;
note = Sdotbelow;
rightKerningGroup = S;
unicode = 1E62;
},
{
glyphname = Germandbls;
lastChange = "2015-10-25 05:59:50 +0000";
layers = (
{
layerId = "45AE5D37-AE90-4B36-85E4-274E7BAA8508";
name = "Light Italic";
paths = (
{
closed = 1;
nodes = (
"448 -10 OFFCURVE",
"523 51 OFFCURVE",
"550 178 CURVE SMOOTH",
"573 286 OFFCURVE",
"528 347 OFFCURVE",
"408 347 CURVE SMOOTH",
"339 347 LINE",
"577 477 LINE",
"599 580 OFFCURVE",
"550 654 OFFCURVE",
"400 654 CURVE SMOOTH",
"251 654 OFFCURVE",
"159 588 OFFCURVE",
"131 453 CURVE SMOOTH",
"35 0 LINE",
"63 0 LINE",
"158 449 LINE SMOOTH",
"185 574 OFFCURVE",
"262 628 OFFCURVE",
"394 628 CURVE SMOOTH",
"537 628 OFFCURVE",
"568 567 OFFCURVE",
"551 488 CURVE",
"301 351 LINE",
"295 322 LINE",
"397 322 LINE SMOOTH",
"518 322 OFFCURVE",
"544 275 OFFCURVE",
"523 178 CURVE SMOOTH",
"500 66 OFFCURVE",
"432 15 OFFCURVE",
"324 15 CURVE SMOOTH",
"273 15 OFFCURVE",
"223 20 OFFCURVE",
"185 38 CURVE",
"179 12 LINE",
"215 -4 OFFCURVE",
"267 -10 OFFCURVE",
"318 -10 CURVE SMOOTH"
);
}
);
width = 613;
}
);
note = uni1E9E;
unicode = 1E9E;
},
{
glyphname = Schwa;
lastChange = "2015-10-25 05:59:50 +0000";
layers = (
{
layerId = "45AE5D37-AE90-4B36-85E4-274E7BAA8508";
name = "Light Italic";
paths = (
{
closed = 1;
nodes = (
"473 -10 OFFCURVE",
"579 113 OFFCURVE",
"622 317 CURVE SMOOTH",
"671 549 OFFCURVE",
"603 654 OFFCURVE",
"374 654 CURVE SMOOTH",
"317 654 OFFCURVE",
"250 642 OFFCURVE",
"195 622 CURVE",
"189 595 LINE",
"251 618 OFFCURVE",
"307 629 OFFCURVE",
"362 629 CURVE SMOOTH",
"594 629 OFFCURVE",
"636 530 OFFCURVE",
"600 343 CURVE",
"92 343 LINE",
"71 241 LINE SMOOTH",
"41 102 OFFCURVE",
"88 -10 OFFCURVE",
"267 -10 CURVE SMOOTH"
);
},
{
closed = 1;
nodes = (
"118 15 OFFCURVE",
"67 93 OFFCURVE",
"99 243 CURVE SMOOTH",
"115 317 LINE",
"595 317 LINE",
"554 125 OFFCURVE",
"457 15 OFFCURVE",
"273 15 CURVE SMOOTH"
);
}
);
width = 655;
}
);
note = uni018F;
unicode = 018F;
},
{
glyphname = T;
lastChange = "2015-10-25 05:59:50 +0000";
layers = (
{
layerId = "45AE5D37-AE90-4B36-85E4-274E7BAA8508";
name = "Light Italic";
paths = (
{
closed = 1;
nodes = (
"259 0 LINE",
"390 619 LINE",
"620 619 LINE",
"625 644 LINE",
"136 644 LINE",
"131 619 LINE",
"362 619 LINE",
"231 0 LINE"
);
}
);
width = 569;
}
);
leftKerningGroup = T;
note = T;
rightKerningGroup = T;
unicode = 0054;
},
{
glyphname = Tbar;
lastChange = "2015-10-25 05:59:50 +0000";
layers = (
{
layerId = "45AE5D37-AE90-4B36-85E4-274E7BAA8508";
name = "Light Italic";
paths = (
{
closed = 1;
nodes = (
"259 0 LINE",
"390 619 LINE",
"620 619 LINE",
"625 644 LINE",
"136 644 LINE",
"131 619 LINE",
"362 619 LINE",
"231 0 LINE"
);
},
{
closed = 1;
nodes = (
"493 347 LINE",
"499 372 LINE",
"145 372 LINE",
"139 347 LINE"
);
}
);
width = 569;
}
);
leftKerningGroup = T;
note = Tbar;
rightKerningGroup = T;
unicode = 0166;
},
{
glyphname = Tcaron;
lastChange = "2015-10-25 05:59:50 +0000";
layers = (
{
layerId = "45AE5D37-AE90-4B36-85E4-274E7BAA8508";
name = "Light Italic";
paths = (
{
closed = 1;
nodes = (
"259 0 LINE",
"390 619 LINE",
"620 619 LINE",
"625 644 LINE",
"136 644 LINE",
"131 619 LINE",
"362 619 LINE",
"231 0 LINE"
);
},
{
closed = 1;
nodes = (
"411 720 LINE",
"532 842 LINE",
"501 842 LINE",
"398 738 LINE",
"339 842 LINE",
"312 842 LINE",
"381 720 LINE"
);
}
);
width = 569;
}
);
leftKerningGroup = T;
note = Tcaron;
rightKerningGroup = T;
unicode = 0164;
},
{
glyphname = Tcedilla;
lastChange = "2015-10-25 05:59:50 +0000";
layers = (
{
layerId = "45AE5D37-AE90-4B36-85E4-274E7BAA8508";
name = "Light Italic";
paths = (
{
closed = 1;
nodes = (
"268 -240 OFFCURVE",
"314 -204 OFFCURVE",
"328 -139 CURVE SMOOTH",
"340 -81 OFFCURVE",
"300 -53 OFFCURVE",
"229 -53 CURVE",
"259 0 LINE",
"390 619 LINE",
"620 619 LINE",
"625 644 LINE",
"136 644 LINE",
"131 619 LINE",
"362 619 LINE",
"231 0 LINE",
"188 -76 LINE",
"216 -76 LINE SMOOTH",
"287 -76 OFFCURVE",
"311 -93 OFFCURVE",
"301 -141 CURVE SMOOTH",
"289 -195 OFFCURVE",
"250 -215 OFFCURVE",
"179 -215 CURVE SMOOTH",
"156 -215 OFFCURVE",
"133 -212 OFFCURVE",
"117 -207 CURVE",
"111 -232 LINE",
"125 -236 OFFCURVE",
"151 -240 OFFCURVE",
"172 -240 CURVE SMOOTH"
);
}
);
width = 569;
}
);
leftKerningGroup = T;
note = Tcedilla;
rightKerningGroup = T;
unicode = 0162;
},
{
glyphname = Tcommaaccent;
lastChange = "2015-10-25 05:59:50 +0000";
layers = (
{
layerId = "45AE5D37-AE90-4B36-85E4-274E7BAA8508";
name = "Light Italic";
paths = (
{
closed = 1;
nodes = (
"259 0 LINE",
"390 619 LINE",
"620 619 LINE",
"625 644 LINE",
"136 644 LINE",
"131 619 LINE",
"362 619 LINE",
"231 0 LINE"
);
},
{
closed = 1;
nodes = (
"184 -190 LINE",
"252 -37 LINE",
"219 -37 LINE",
"162 -190 LINE"
);
}
);
width = 569;
}
);
leftKerningGroup = T;
note = Tcommaaccent;
rightKerningGroup = T;
unicode = 021A;
},
{
glyphname = Tdotbelow;
lastChange = "2015-10-25 05:59:50 +0000";
layers = (
{
layerId = "45AE5D37-AE90-4B36-85E4-274E7BAA8508";
name = "Light Italic";
paths = (
{
closed = 1;
nodes = (
"259 0 LINE",
"390 619 LINE",
"620 619 LINE",
"625 644 LINE",
"136 644 LINE",
"131 619 LINE",
"362 619 LINE",
"231 0 LINE"
);
},
{
closed = 1;
nodes = (
"234 -139 LINE",
"242 -102 LINE",
"205 -102 LINE",
"197 -139 LINE"
);
}
);
width = 569;
}
);
leftKerningGroup = T;
note = Tdotbelow;
rightKerningGroup = T;
unicode = 1E6C;
},
{
glyphname = Tlinebelow;
lastChange = "2015-10-25 05:59:50 +0000";
layers = (
{
layerId = "45AE5D37-AE90-4B36-85E4-274E7BAA8508";
name = "Light Italic";
paths = (
{
closed = 1;
nodes = (
"259 0 LINE",
"390 619 LINE",
"620 619 LINE",
"625 644 LINE",
"136 644 LINE",
"131 619 LINE",
"362 619 LINE",
"231 0 LINE"
);
},
{
closed = 1;
nodes = (
"356 -101 LINE",
"361 -76 LINE",
"95 -76 LINE",
"90 -101 LINE"
);
}
);
width = 569;
}
);
leftKerningGroup = T;
note = Tlinebelow;
rightKerningGroup = T;
unicode = 1E6E;
},
{
glyphname = U;
lastChange = "2015-10-25 05:59:50 +0000";
layers = (
{
layerId = "45AE5D37-AE90-4B36-85E4-274E7BAA8508";
name = "Light Italic";
paths = (
{
closed = 1;
nodes = (
"470 -10 OFFCURVE",
"556 72 OFFCURVE",
"590 231 CURVE SMOOTH",
"677 644 LINE",
"649 644 LINE",
"559 219 LINE SMOOTH",
"530 82 OFFCURVE",
"442 16 OFFCURVE",
"291 16 CURVE SMOOTH",
"140 16 OFFCURVE",
"79 78 OFFCURVE",
"109 219 CURVE SMOOTH",
"199 644 LINE",
"171 644 LINE",
"84 231 LINE SMOOTH",
"50 74 OFFCURVE",
"112 -10 OFFCURVE",
"285 -10 CURVE SMOOTH"
);
}
);
width = 656;
}
);
leftKerningGroup = U;
note = U;
rightKerningGroup = U;
unicode = 0055;
},
{
glyphname = Uacute;
lastChange = "2015-10-25 05:59:50 +0000";
layers = (
{
layerId = "45AE5D37-AE90-4B36-85E4-274E7BAA8508";
name = "Light Italic";
paths = (
{
closed = 1;
nodes = (
"470 -10 OFFCURVE",
"556 72 OFFCURVE",
"590 231 CURVE SMOOTH",
"677 644 LINE",
"649 644 LINE",
"559 219 LINE SMOOTH",
"530 82 OFFCURVE",
"442 16 OFFCURVE",
"291 16 CURVE SMOOTH",
"140 16 OFFCURVE",
"79 78 OFFCURVE",
"109 219 CURVE SMOOTH",
"199 644 LINE",
"171 644 LINE",
"84 231 LINE SMOOTH",
"50 74 OFFCURVE",
"112 -10 OFFCURVE",
"285 -10 CURVE SMOOTH"
);
},
{
closed = 1;
nodes = (
"438 688 LINE",
"540 837 LINE",
"510 837 LINE",
"415 688 LINE"
);
}
);
width = 656;
}
);
leftKerningGroup = U;
note = Uacute;
rightKerningGroup = U;
unicode = 00DA;
},
{
glyphname = Ubreve;
lastChange = "2015-10-25 05:59:50 +0000";
layers = (
{
layerId = "45AE5D37-AE90-4B36-85E4-274E7BAA8508";
name = "Light Italic";
paths = (
{
closed = 1;
nodes = (
"470 -10 OFFCURVE",
"556 72 OFFCURVE",
"590 231 CURVE SMOOTH",
"677 644 LINE",
"649 644 LINE",
"559 219 LINE SMOOTH",
"530 82 OFFCURVE",
"442 16 OFFCURVE",
"291 16 CURVE SMOOTH",
"140 16 OFFCURVE",
"79 78 OFFCURVE",
"109 219 CURVE SMOOTH",
"199 644 LINE",
"171 644 LINE",
"84 231 LINE SMOOTH",
"50 74 OFFCURVE",
"112 -10 OFFCURVE",
"285 -10 CURVE SMOOTH"
);
},
{
closed = 1;
nodes = (
"478 688 OFFCURVE",
"528 730 OFFCURVE",
"540 783 CURVE",
"513 783 LINE",
"504 743 OFFCURVE",
"468 713 OFFCURVE",
"427 713 CURVE SMOOTH",
"387 713 OFFCURVE",
"363 743 OFFCURVE",
"372 783 CURVE",
"349 783 LINE",
"337 730 OFFCURVE",
"371 688 OFFCURVE",
"424 688 CURVE SMOOTH"
);
}
);
width = 656;
}
);
leftKerningGroup = U;
note = Ubreve;
rightKerningGroup = U;
unicode = 016C;
},
{
glyphname = Ucaron;
lastChange = "2015-10-25 05:59:50 +0000";
layers = (
{
layerId = "45AE5D37-AE90-4B36-85E4-274E7BAA8508";
name = "Light Italic";
paths = (
{
closed = 1;
nodes = (
"470 -10 OFFCURVE",
"556 72 OFFCURVE",
"590 231 CURVE SMOOTH",
"677 644 LINE",
"649 644 LINE",
"559 219 LINE SMOOTH",
"530 82 OFFCURVE",
"442 16 OFFCURVE",
"291 16 CURVE SMOOTH",
"140 16 OFFCURVE",
"79 78 OFFCURVE",
"109 219 CURVE SMOOTH",
"199 644 LINE",
"171 644 LINE",
"84 231 LINE SMOOTH",
"50 74 OFFCURVE",
"112 -10 OFFCURVE",
"285 -10 CURVE SMOOTH"
);
},
{
closed = 1;
nodes = (
"449 688 LINE",
"570 810 LINE",
"539 810 LINE",
"436 706 LINE",
"377 810 LINE",
"350 810 LINE",
"419 688 LINE"
);
}
);
width = 656;
}
);
leftKerningGroup = U;
note = Ucaron;
rightKerningGroup = U;
unicode = 01D3;
},
{
glyphname = Ucircumflex;
lastChange = "2015-10-25 05:59:50 +0000";
layers = (
{
layerId = "45AE5D37-AE90-4B36-85E4-274E7BAA8508";
name = "Light Italic";
paths = (
{
closed = 1;
nodes = (
"470 -10 OFFCURVE",
"556 72 OFFCURVE",
"590 231 CURVE SMOOTH",
"677 644 LINE",
"649 644 LINE",
"559 219 LINE SMOOTH",
"530 82 OFFCURVE",
"442 16 OFFCURVE",
"291 16 CURVE SMOOTH",
"140 16 OFFCURVE",
"79 78 OFFCURVE",
"109 219 CURVE SMOOTH",
"199 644 LINE",
"171 644 LINE",
"84 231 LINE SMOOTH",
"50 74 OFFCURVE",
"112 -10 OFFCURVE",
"285 -10 CURVE SMOOTH"
);
},
{
closed = 1;
nodes = (
"355 688 LINE",
"458 792 LINE",
"517 688 LINE",
"544 688 LINE",
"475 810 LINE",
"445 810 LINE",
"325 688 LINE"
);
}
);
width = 656;
}
);
leftKerningGroup = U;
note = Ucircumflex;
rightKerningGroup = U;
unicode = 00DB;
},
{
glyphname = Udieresis;
lastChange = "2015-10-25 05:59:50 +0000";
layers = (
{
layerId = "45AE5D37-AE90-4B36-85E4-274E7BAA8508";
name = "Light Italic";
paths = (
{
closed = 1;
nodes = (
"470 -10 OFFCURVE",
"556 72 OFFCURVE",
"590 231 CURVE SMOOTH",
"677 644 LINE",
"649 644 LINE",
"559 219 LINE SMOOTH",
"530 82 OFFCURVE",
"442 16 OFFCURVE",
"291 16 CURVE SMOOTH",
"140 16 OFFCURVE",
"79 78 OFFCURVE",
"109 219 CURVE SMOOTH",
"199 644 LINE",
"171 644 LINE",
"84 231 LINE SMOOTH",
"50 74 OFFCURVE",
"112 -10 OFFCURVE",
"285 -10 CURVE SMOOTH"
);
},
{
closed = 1;
nodes = (
"379 718 LINE",
"386 753 LINE",
"351 753 LINE",
"344 718 LINE"
);
},
{
closed = 1;
nodes = (
"536 718 LINE",
"543 753 LINE",
"508 753 LINE",
"501 718 LINE"
);
}
);
width = 656;
}
);
leftKerningGroup = U;
note = Udieresis;
rightKerningGroup = U;
unicode = 00DC;
},
{
glyphname = Udieresisacute;
lastChange = "2015-10-25 05:59:50 +0000";
layers = (
{
layerId = "45AE5D37-AE90-4B36-85E4-274E7BAA8508";
name = "Light Italic";
paths = (
{
closed = 1;
nodes = (
"470 -10 OFFCURVE",
"556 72 OFFCURVE",
"590 231 CURVE SMOOTH",
"677 644 LINE",
"649 644 LINE",
"559 219 LINE SMOOTH",
"530 82 OFFCURVE",
"442 16 OFFCURVE",
"291 16 CURVE SMOOTH",
"140 16 OFFCURVE",
"79 78 OFFCURVE",
"109 219 CURVE SMOOTH",
"199 644 LINE",
"171 644 LINE",
"84 231 LINE SMOOTH",
"50 74 OFFCURVE",
"112 -10 OFFCURVE",
"285 -10 CURVE SMOOTH"
);
},
{
closed = 1;
nodes = (
"373 688 LINE",
"380 723 LINE",
"345 723 LINE",
"338 688 LINE"
);
},
{
closed = 1;
nodes = (
"530 688 LINE",
"537 723 LINE",
"502 723 LINE",
"495 688 LINE"
);
},
{
closed = 1;
nodes = (
"453 758 LINE",
"541 867 LINE",
"512 867 LINE",
"431 758 LINE"
);
}
);
width = 656;
}
);
leftKerningGroup = U;
note = Udieresisacute;
rightKerningGroup = U;
unicode = 01D7;
},
{
glyphname = Udieresiscaron;
lastChange = "2015-10-25 05:59:50 +0000";
layers = (
{
layerId = "45AE5D37-AE90-4B36-85E4-274E7BAA8508";
name = "Light Italic";
paths = (
{
closed = 1;
nodes = (
"470 -10 OFFCURVE",
"556 72 OFFCURVE",
"590 231 CURVE SMOOTH",
"677 644 LINE",
"649 644 LINE",
"559 219 LINE SMOOTH",
"530 82 OFFCURVE",
"442 16 OFFCURVE",
"291 16 CURVE SMOOTH",
"140 16 OFFCURVE",
"79 78 OFFCURVE",
"109 219 CURVE SMOOTH",
"199 644 LINE",
"171 644 LINE",
"84 231 LINE SMOOTH",
"50 74 OFFCURVE",
"112 -10 OFFCURVE",
"285 -10 CURVE SMOOTH"
);
},
{
closed = 1;
nodes = (
"374 688 LINE",
"381 723 LINE",
"346 723 LINE",
"339 688 LINE"
);
},
{
closed = 1;
nodes = (
"530 688 LINE",
"537 723 LINE",
"503 723 LINE",
"496 688 LINE"
);
},
{
closed = 1;
nodes = (
"464 758 LINE",
"580 860 LINE",
"551 860 LINE",
"453 774 LINE",
"390 860 LINE",
"361 860 LINE",
"434 758 LINE"
);
}
);
width = 656;
}
);
leftKerningGroup = U;
note = Udieresiscaron;
rightKerningGroup = U;
unicode = 01D9;
},
{
glyphname = Udieresisgrave;
lastChange = "2015-10-25 05:59:49 +0000";
layers = (
{
layerId = "45AE5D37-AE90-4B36-85E4-274E7BAA8508";
name = "Light Italic";
paths = (
{
closed = 1;
nodes = (
"470 -10 OFFCURVE",
"556 72 OFFCURVE",
"590 231 CURVE SMOOTH",
"677 644 LINE",
"649 644 LINE",
"559 219 LINE SMOOTH",
"530 82 OFFCURVE",
"442 16 OFFCURVE",
"291 16 CURVE SMOOTH",
"140 16 OFFCURVE",
"79 78 OFFCURVE",
"109 219 CURVE SMOOTH",
"199 644 LINE",
"171 644 LINE",
"84 231 LINE SMOOTH",
"50 74 OFFCURVE",
"112 -10 OFFCURVE",
"285 -10 CURVE SMOOTH"
);
},
{
closed = 1;
nodes = (
"373 688 LINE",
"380 723 LINE",
"345 723 LINE",
"338 688 LINE"
);
},
{
closed = 1;
nodes = (
"530 688 LINE",
"537 723 LINE",
"502 723 LINE",
"495 688 LINE"
);
},
{
closed = 1;
nodes = (
"465 758 LINE",
"432 867 LINE",
"403 867 LINE",
"443 758 LINE"
);
}
);
width = 656;
}
);
leftKerningGroup = U;
note = Udieresisgrave;
rightKerningGroup = U;
unicode = 01DB;
},
{
glyphname = Udieresismacron;
lastChange = "2015-10-25 05:59:50 +0000";
layers = (
{
layerId = "45AE5D37-AE90-4B36-85E4-274E7BAA8508";
name = "Light Italic";
paths = (
{
closed = 1;
nodes = (
"470 -10 OFFCURVE",
"556 72 OFFCURVE",
"590 231 CURVE SMOOTH",
"677 644 LINE",
"649 644 LINE",
"559 219 LINE SMOOTH",
"530 82 OFFCURVE",
"442 16 OFFCURVE",
"291 16 CURVE SMOOTH",
"140 16 OFFCURVE",
"79 78 OFFCURVE",
"109 219 CURVE SMOOTH",
"199 644 LINE",
"171 644 LINE",
"84 231 LINE SMOOTH",
"50 74 OFFCURVE",
"112 -10 OFFCURVE",
"285 -10 CURVE SMOOTH"
);
},
{
closed = 1;
nodes = (
"379 718 LINE",
"386 753 LINE",
"351 753 LINE",
"344 718 LINE"
);
},
{
closed = 1;
nodes = (
"536 718 LINE",
"543 753 LINE",
"508 753 LINE",
"501 718 LINE"
);
},
{
closed = 1;
nodes = (
"598 833 LINE",
"604 858 LINE",
"338 858 LINE",
"332 833 LINE"
);
}
);
width = 656;
}
);
leftKerningGroup = U;
note = Udieresismacron;
rightKerningGroup = U;
unicode = 01D5;
},
{
glyphname = Udotbelow;
lastChange = "2015-10-25 05:59:50 +0000";
layers = (
{
layerId = "45AE5D37-AE90-4B36-85E4-274E7BAA8508";
name = "Light Italic";
paths = (
{
closed = 1;
nodes = (
"470 -10 OFFCURVE",
"556 72 OFFCURVE",
"590 231 CURVE SMOOTH",
"677 644 LINE",
"649 644 LINE",
"559 219 LINE SMOOTH",
"530 82 OFFCURVE",
"442 16 OFFCURVE",
"291 16 CURVE SMOOTH",
"140 16 OFFCURVE",
"79 78 OFFCURVE",
"109 219 CURVE SMOOTH",
"199 644 LINE",
"171 644 LINE",
"84 231 LINE SMOOTH",
"50 74 OFFCURVE",
"112 -10 OFFCURVE",
"285 -10 CURVE SMOOTH"
);
},
{
closed = 1;
nodes = (
"278 -139 LINE",
"286 -102 LINE",
"249 -102 LINE",
"241 -139 LINE"
);
}
);
width = 656;
}
);
leftKerningGroup = U;
note = Udotbelow;
rightKerningGroup = U;
unicode = 1EE4;
},
{
glyphname = Ugrave;
lastChange = "2015-10-25 05:59:50 +0000";
layers = (
{
layerId = "45AE5D37-AE90-4B36-85E4-274E7BAA8508";
name = "Light Italic";
paths = (
{
closed = 1;
nodes = (
"470 -10 OFFCURVE",
"556 72 OFFCURVE",
"590 231 CURVE SMOOTH",
"677 644 LINE",
"649 644 LINE",
"559 219 LINE SMOOTH",
"530 82 OFFCURVE",
"442 16 OFFCURVE",
"291 16 CURVE SMOOTH",
"140 16 OFFCURVE",
"79 78 OFFCURVE",
"109 219 CURVE SMOOTH",
"199 644 LINE",
"171 644 LINE",
"84 231 LINE SMOOTH",
"50 74 OFFCURVE",
"112 -10 OFFCURVE",
"285 -10 CURVE SMOOTH"
);
},
{
closed = 1;
nodes = (
"469 688 LINE",
"438 837 LINE",
"408 837 LINE",
"446 688 LINE"
);
}
);
width = 656;
}
);
leftKerningGroup = U;
note = Ugrave;
rightKerningGroup = U;
unicode = 00D9;
},
{
glyphname = Uhookabove;
lastChange = "2015-10-25 05:59:50 +0000";
layers = (
{
layerId = "45AE5D37-AE90-4B36-85E4-274E7BAA8508";
name = "Light Italic";
paths = (
{
closed = 1;
nodes = (
"470 -10 OFFCURVE",
"556 72 OFFCURVE",
"590 231 CURVE SMOOTH",
"677 644 LINE",
"649 644 LINE",
"559 219 LINE SMOOTH",
"530 82 OFFCURVE",
"442 16 OFFCURVE",
"291 16 CURVE SMOOTH",
"140 16 OFFCURVE",
"79 78 OFFCURVE",
"109 219 CURVE SMOOTH",
"199 644 LINE",
"171 644 LINE",
"84 231 LINE SMOOTH",
"50 74 OFFCURVE",
"112 -10 OFFCURVE",
"285 -10 CURVE SMOOTH"
);
},
{
closed = 1;
nodes = (
"445 688 LINE",
"457 744 LINE",
"529 750 OFFCURVE",
"556 778 OFFCURVE",
"568 830 CURVE SMOOTH",
"579 885 OFFCURVE",
"545 915 OFFCURVE",
"475 915 CURVE SMOOTH",
"455 915 OFFCURVE",
"420 910 OFFCURVE",
"402 903 CURVE",
"397 878 LINE",
"416 885 OFFCURVE",
"446 890 OFFCURVE",
"468 890 CURVE SMOOTH",
"535 890 OFFCURVE",
"551 869 OFFCURVE",
"543 830 CURVE SMOOTH",
"534 789 OFFCURVE",
"519 766 OFFCURVE",
"433 763 CURVE",
"417 688 LINE"
);
}
);
width = 656;
}
);
leftKerningGroup = U;
note = Uhookabove;
rightKerningGroup = U;
unicode = 1EE6;
},
{
glyphname = Uhorn;
lastChange = "2015-10-25 05:59:50 +0000";
layers = (
{
layerId = "45AE5D37-AE90-4B36-85E4-274E7BAA8508";
name = "Light Italic";
paths = (
{
closed = 1;
nodes = (
"463 -10 OFFCURVE",
"556 70 OFFCURVE",
"590 231 CURVE SMOOTH",
"654 534 LINE",
"745 535 OFFCURVE",
"806 566 OFFCURVE",
"832 688 CURVE",
"807 688 LINE",
"786 589 OFFCURVE",
"745 559 OFFCURVE",
"659 559 CURVE",
"677 644 LINE",
"649 644 LINE",
"559 219 LINE SMOOTH",
"530 82 OFFCURVE",
"437 16 OFFCURVE",
"291 16 CURVE SMOOTH",
"141 16 OFFCURVE",
"80 82 OFFCURVE",
"109 219 CURVE SMOOTH",
"199 644 LINE",
"171 644 LINE",
"84 231 LINE SMOOTH",
"50 74 OFFCURVE",
"117 -10 OFFCURVE",
"285 -10 CURVE SMOOTH"
);
}
);
width = 766;
}
);
leftKerningGroup = U;
note = Uhorn;
rightKerningGroup = U;
unicode = 01AF;
},
{
glyphname = Uhornacute;
lastChange = "2015-10-25 05:59:50 +0000";
layers = (
{
layerId = "45AE5D37-AE90-4B36-85E4-274E7BAA8508";
name = "Light Italic";
paths = (
{
closed = 1;
nodes = (
"463 -10 OFFCURVE",
"556 70 OFFCURVE",
"590 231 CURVE SMOOTH",
"654 534 LINE",
"745 535 OFFCURVE",
"806 566 OFFCURVE",
"832 688 CURVE",
"807 688 LINE",
"786 589 OFFCURVE",
"745 559 OFFCURVE",
"659 559 CURVE",
"677 644 LINE",
"649 644 LINE",
"559 219 LINE SMOOTH",
"530 82 OFFCURVE",
"437 16 OFFCURVE",
"291 16 CURVE SMOOTH",
"141 16 OFFCURVE",
"80 82 OFFCURVE",
"109 219 CURVE SMOOTH",
"199 644 LINE",
"171 644 LINE",
"84 231 LINE SMOOTH",
"50 74 OFFCURVE",
"117 -10 OFFCURVE",
"285 -10 CURVE SMOOTH"
);
},
{
closed = 1;
nodes = (
"457 688 LINE",
"559 837 LINE",
"529 837 LINE",
"434 688 LINE"
);
}
);
width = 766;
}
);
leftKerningGroup = U;
note = Uhornacute;
rightKerningGroup = U;
unicode = 1EE8;
},
{
glyphname = Uhorndotbelow;
lastChange = "2015-10-25 05:59:50 +0000";
layers = (
{
layerId = "45AE5D37-AE90-4B36-85E4-274E7BAA8508";
name = "Light Italic";
paths = (
{
closed = 1;
nodes = (
"463 -10 OFFCURVE",
"556 70 OFFCURVE",
"590 231 CURVE SMOOTH",
"654 534 LINE",
"745 535 OFFCURVE",
"806 566 OFFCURVE",
"832 688 CURVE",
"807 688 LINE",
"786 589 OFFCURVE",
"745 559 OFFCURVE",
"659 559 CURVE",
"677 644 LINE",
"649 644 LINE",
"559 219 LINE SMOOTH",
"530 82 OFFCURVE",
"437 16 OFFCURVE",
"291 16 CURVE SMOOTH",
"141 16 OFFCURVE",
"80 82 OFFCURVE",
"109 219 CURVE SMOOTH",
"199 644 LINE",
"171 644 LINE",
"84 231 LINE SMOOTH",
"50 74 OFFCURVE",
"117 -10 OFFCURVE",
"285 -10 CURVE SMOOTH"
);
},
{
closed = 1;
nodes = (
"274 -139 LINE",
"282 -102 LINE",
"245 -102 LINE",
"237 -139 LINE"
);
}
);
width = 766;
}
);
leftKerningGroup = U;
note = Uhorndotbelow;
rightKerningGroup = U;
unicode = 1EF0;
},
{
glyphname = Uhorngrave;
lastChange = "2015-10-25 05:59:50 +0000";
layers = (
{
layerId = "45AE5D37-AE90-4B36-85E4-274E7BAA8508";
name = "Light Italic";
paths = (
{
closed = 1;
nodes = (
"463 -10 OFFCURVE",
"556 70 OFFCURVE",
"590 231 CURVE SMOOTH",
"654 534 LINE",
"745 535 OFFCURVE",
"806 566 OFFCURVE",
"832 688 CURVE",
"807 688 LINE",
"786 589 OFFCURVE",
"745 559 OFFCURVE",
"659 559 CURVE",
"677 644 LINE",
"649 644 LINE",
"559 219 LINE SMOOTH",
"530 82 OFFCURVE",
"437 16 OFFCURVE",
"291 16 CURVE SMOOTH",
"141 16 OFFCURVE",
"80 82 OFFCURVE",
"109 219 CURVE SMOOTH",
"199 644 LINE",
"171 644 LINE",
"84 231 LINE SMOOTH",
"50 74 OFFCURVE",
"117 -10 OFFCURVE",
"285 -10 CURVE SMOOTH"
);
},
{
closed = 1;
nodes = (
"456 688 LINE",
"425 837 LINE",
"395 837 LINE",
"433 688 LINE"
);
}
);
width = 766;
}
);
leftKerningGroup = U;
note = Uhorngrave;
rightKerningGroup = U;
unicode = 1EEA;
},
{
glyphname = Uhornhookabove;
lastChange = "2015-10-25 05:59:50 +0000";
layers = (
{
layerId = "45AE5D37-AE90-4B36-85E4-274E7BAA8508";
name = "Light Italic";
paths = (
{
closed = 1;
nodes = (
"463 -10 OFFCURVE",
"556 70 OFFCURVE",
"590 231 CURVE SMOOTH",
"654 534 LINE",
"745 535 OFFCURVE",
"806 566 OFFCURVE",
"832 688 CURVE",
"807 688 LINE",
"786 589 OFFCURVE",
"745 559 OFFCURVE",
"659 559 CURVE",
"677 644 LINE",
"649 644 LINE",
"559 219 LINE SMOOTH",
"530 82 OFFCURVE",
"437 16 OFFCURVE",
"291 16 CURVE SMOOTH",
"141 16 OFFCURVE",
"80 82 OFFCURVE",
"109 219 CURVE SMOOTH",
"199 644 LINE",
"171 644 LINE",
"84 231 LINE SMOOTH",
"50 74 OFFCURVE",
"117 -10 OFFCURVE",
"285 -10 CURVE SMOOTH"
);
},
{
closed = 1;
nodes = (
"456 688 LINE",
"468 744 LINE",
"540 750 OFFCURVE",
"567 778 OFFCURVE",
"579 830 CURVE SMOOTH",
"590 885 OFFCURVE",
"556 915 OFFCURVE",
"486 915 CURVE SMOOTH",
"466 915 OFFCURVE",
"431 910 OFFCURVE",
"413 903 CURVE",
"408 878 LINE",
"427 885 OFFCURVE",
"457 890 OFFCURVE",
"479 890 CURVE SMOOTH",
"546 890 OFFCURVE",
"562 869 OFFCURVE",
"554 830 CURVE SMOOTH",
"545 789 OFFCURVE",
"530 766 OFFCURVE",
"444 763 CURVE",
"428 688 LINE"
);
}
);
width = 766;
}
);
leftKerningGroup = U;
note = Uhornhookabove;
rightKerningGroup = U;
unicode = 1EEC;
},
{
glyphname = Uhorntilde;
lastChange = "2015-10-25 05:59:50 +0000";
layers = (
{
layerId = "45AE5D37-AE90-4B36-85E4-274E7BAA8508";
name = "Light Italic";
paths = (
{
closed = 1;
nodes = (
"463 -10 OFFCURVE",
"556 70 OFFCURVE",
"590 231 CURVE SMOOTH",
"654 534 LINE",
"745 535 OFFCURVE",
"806 566 OFFCURVE",
"832 688 CURVE",
"807 688 LINE",
"786 589 OFFCURVE",
"745 559 OFFCURVE",
"659 559 CURVE",
"677 644 LINE",
"649 644 LINE",
"559 219 LINE SMOOTH",
"530 82 OFFCURVE",
"437 16 OFFCURVE",
"291 16 CURVE SMOOTH",
"141 16 OFFCURVE",
"80 82 OFFCURVE",
"109 219 CURVE SMOOTH",
"199 644 LINE",
"171 644 LINE",
"84 231 LINE SMOOTH",
"50 74 OFFCURVE",
"117 -10 OFFCURVE",
"285 -10 CURVE SMOOTH"
);
},
{
closed = 1;
nodes = (
"534 718 OFFCURVE",
"557 728 OFFCURVE",
"574 746 CURVE",
"581 777 LINE",
"557 751 OFFCURVE",
"534 743 OFFCURVE",
"505 743 CURVE SMOOTH",
"462 743 OFFCURVE",
"441 779 OFFCURVE",
"392 779 CURVE SMOOTH",
"364 779 OFFCURVE",
"333 769 OFFCURVE",
"314 751 CURVE",
"308 720 LINE",
"335 747 OFFCURVE",
"362 754 OFFCURVE",
"390 754 CURVE SMOOTH",
"427 754 OFFCURVE",
"457 718 OFFCURVE",
"503 718 CURVE SMOOTH"
);
}
);
width = 766;
}
);
leftKerningGroup = U;
note = Uhorntilde;
rightKerningGroup = U;
unicode = 1EEE;
},
{
glyphname = Uhungarumlaut;
lastChange = "2015-10-25 05:59:50 +0000";
layers = (
{
layerId = "45AE5D37-AE90-4B36-85E4-274E7BAA8508";
name = "Light Italic";
paths = (
{
closed = 1;
nodes = (
"470 -10 OFFCURVE",
"556 72 OFFCURVE",
"590 231 CURVE SMOOTH",
"677 644 LINE",
"649 644 LINE",
"559 219 LINE SMOOTH",
"530 82 OFFCURVE",
"442 16 OFFCURVE",
"291 16 CURVE SMOOTH",
"140 16 OFFCURVE",
"79 78 OFFCURVE",
"109 219 CURVE SMOOTH",
"199 644 LINE",
"171 644 LINE",
"84 231 LINE SMOOTH",
"50 74 OFFCURVE",
"112 -10 OFFCURVE",
"285 -10 CURVE SMOOTH"
);
},
{
closed = 1;
nodes = (
"320 688 LINE",
"416 817 LINE",
"387 817 LINE",
"298 688 LINE"
);
},
{
closed = 1;
nodes = (
"511 688 LINE",
"608 817 LINE",
"579 817 LINE",
"489 688 LINE"
);
}
);
width = 656;
}
);
leftKerningGroup = U;
note = Uhungarumlaut;
rightKerningGroup = U;
unicode = 0170;
},
{
glyphname = Umacron;
lastChange = "2015-10-25 05:59:50 +0000";
layers = (
{
layerId = "45AE5D37-AE90-4B36-85E4-274E7BAA8508";
name = "Light Italic";
paths = (
{
closed = 1;
nodes = (
"470 -10 OFFCURVE",
"556 72 OFFCURVE",
"590 231 CURVE SMOOTH",
"677 644 LINE",
"649 644 LINE",
"559 219 LINE SMOOTH",
"530 82 OFFCURVE",
"442 16 OFFCURVE",
"291 16 CURVE SMOOTH",
"140 16 OFFCURVE",
"79 78 OFFCURVE",
"109 219 CURVE SMOOTH",
"199 644 LINE",
"171 644 LINE",
"84 231 LINE SMOOTH",
"50 74 OFFCURVE",
"112 -10 OFFCURVE",
"285 -10 CURVE SMOOTH"
);
},
{
closed = 1;
nodes = (
"573 718 LINE",
"579 743 LINE",
"313 743 LINE",
"307 718 LINE"
);
}
);
width = 656;
}
);
leftKerningGroup = U;
note = Umacron;
rightKerningGroup = U;
unicode = 016A;
},
{
glyphname = Uogonek;
lastChange = "2015-10-25 05:59:50 +0000";
layers = (
{
layerId = "45AE5D37-AE90-4B36-85E4-274E7BAA8508";
name = "Light Italic";
paths = (
{
closed = 1;
nodes = (
"268 -220 OFFCURVE",
"288 -217 OFFCURVE",
"304 -209 CURVE",
"309 -184 LINE",
"296 -191 OFFCURVE",
"275 -195 OFFCURVE",
"258 -195 CURVE SMOOTH",
"214 -195 OFFCURVE",
"206 -176 OFFCURVE",
"215 -135 CURVE SMOOTH",
"224 -92 OFFCURVE",
"253 -47 OFFCURVE",
"305 -9 CURVE",
"476 -3 OFFCURVE",
"557 78 OFFCURVE",
"590 231 CURVE SMOOTH",
"677 644 LINE",
"649 644 LINE",
"559 219 LINE SMOOTH",
"530 82 OFFCURVE",
"442 16 OFFCURVE",
"291 16 CURVE SMOOTH",
"140 16 OFFCURVE",
"79 78 OFFCURVE",
"109 219 CURVE SMOOTH",
"199 644 LINE",
"171 644 LINE",
"84 231 LINE SMOOTH",
"50 76 OFFCURVE",
"110 -7 OFFCURVE",
"276 -10 CURVE",
"236 -39 OFFCURVE",
"198 -86 OFFCURVE",
"188 -135 CURVE SMOOTH",
"174 -198 OFFCURVE",
"208 -220 OFFCURVE",
"253 -220 CURVE SMOOTH"
);
}
);
width = 656;
}
);
leftKerningGroup = U;
note = Uogonek;
rightKerningGroup = U;
unicode = 0172;
},
{
glyphname = Uring;
lastChange = "2015-10-25 05:59:50 +0000";
layers = (
{
layerId = "45AE5D37-AE90-4B36-85E4-274E7BAA8508";
name = "Light Italic";
paths = (
{
closed = 1;
nodes = (
"470 -10 OFFCURVE",
"556 72 OFFCURVE",
"590 231 CURVE SMOOTH",
"677 644 LINE",
"649 644 LINE",
"559 219 LINE SMOOTH",
"530 82 OFFCURVE",
"442 16 OFFCURVE",
"291 16 CURVE SMOOTH",
"140 16 OFFCURVE",
"79 78 OFFCURVE",
"109 219 CURVE SMOOTH",
"199 644 LINE",
"171 644 LINE",
"84 231 LINE SMOOTH",
"50 74 OFFCURVE",
"112 -10 OFFCURVE",
"285 -10 CURVE SMOOTH"
);
},
{
closed = 1;
nodes = (
"492 688 OFFCURVE",
"539 730 OFFCURVE",
"550 783 CURVE SMOOTH",
"561 837 OFFCURVE",
"531 879 OFFCURVE",
"474 879 CURVE SMOOTH",
"417 879 OFFCURVE",
"370 837 OFFCURVE",
"359 783 CURVE SMOOTH",
"348 730 OFFCURVE",
"377 688 OFFCURVE",
"434 688 CURVE SMOOTH"
);
},
{
closed = 1;
nodes = (
"388 713 OFFCURVE",
"375 743 OFFCURVE",
"384 783 CURVE SMOOTH",
"392 824 OFFCURVE",
"429 854 OFFCURVE",
"469 854 CURVE SMOOTH",
"523 854 OFFCURVE",
"533 824 OFFCURVE",
"525 783 CURVE SMOOTH",
"516 743 OFFCURVE",
"480 713 OFFCURVE",
"439 713 CURVE SMOOTH"
);
}
);
width = 656;
}
);
leftKerningGroup = U;
note = Uring;
rightKerningGroup = U;
unicode = 016E;
},
{
glyphname = Utilde;
lastChange = "2015-10-25 05:59:50 +0000";
layers = (
{
layerId = "45AE5D37-AE90-4B36-85E4-274E7BAA8508";
name = "Light Italic";
paths = (
{
closed = 1;
nodes = (
"470 -10 OFFCURVE",
"556 72 OFFCURVE",
"590 231 CURVE SMOOTH",
"677 644 LINE",
"649 644 LINE",
"559 219 LINE SMOOTH",
"530 82 OFFCURVE",
"442 16 OFFCURVE",
"291 16 CURVE SMOOTH",
"140 16 OFFCURVE",
"79 78 OFFCURVE",
"109 219 CURVE SMOOTH",
"199 644 LINE",
"171 644 LINE",
"84 231 LINE SMOOTH",
"50 74 OFFCURVE",
"112 -10 OFFCURVE",
"285 -10 CURVE SMOOTH"
);
},
{
closed = 1;
nodes = (
"537 718 OFFCURVE",
"560 728 OFFCURVE",
"577 746 CURVE",
"584 777 LINE",
"560 751 OFFCURVE",
"537 743 OFFCURVE",
"508 743 CURVE SMOOTH",
"465 743 OFFCURVE",
"444 779 OFFCURVE",
"395 779 CURVE SMOOTH",
"367 779 OFFCURVE",
"336 769 OFFCURVE",
"317 751 CURVE",
"311 720 LINE",
"338 747 OFFCURVE",
"365 754 OFFCURVE",
"393 754 CURVE SMOOTH",
"430 754 OFFCURVE",
"460 718 OFFCURVE",
"506 718 CURVE SMOOTH"
);
}
);
width = 656;
}
);
leftKerningGroup = U;
note = Utilde;
rightKerningGroup = U;
unicode = 0168;
},
{
glyphname = V;
lastChange = "2015-10-25 05:59:50 +0000";
layers = (
{
layerId = "45AE5D37-AE90-4B36-85E4-274E7BAA8508";
name = "Light Italic";
paths = (
{
closed = 1;
nodes = (
"308 0 LINE",
"686 644 LINE",
"655 644 LINE",
"286 16 LINE",
"183 644 LINE",
"156 644 LINE",
"263 0 LINE"
);
}
);
width = 650;
}
);
note = V;
unicode = 0056;
},
{
glyphname = W;
lastChange = "2015-10-25 05:59:50 +0000";
layers = (
{
layerId = "45AE5D37-AE90-4B36-85E4-274E7BAA8508";
name = "Light Italic";
paths = (
{
closed = 1;
nodes = (
"218 0 LINE",
"510 570 LINE",
"548 0 LINE",
"591 0 LINE",
"876 644 LINE",
"848 644 LINE",
"571 20 LINE",
"527 644 LINE",
"503 644 LINE",
"491 586 LINE",
"198 20 LINE",
"185 644 LINE",
"156 644 LINE",
"170 0 LINE"
);
}
);
width = 840;
}
);
leftKerningGroup = W;
note = W;
rightKerningGroup = W;
unicode = 0057;
},
{
glyphname = Wacute;
lastChange = "2015-10-25 05:59:50 +0000";
layers = (
{
layerId = "45AE5D37-AE90-4B36-85E4-274E7BAA8508";
name = "Light Italic";
paths = (
{
closed = 1;
nodes = (
"218 0 LINE",
"510 570 LINE",
"548 0 LINE",
"591 0 LINE",
"876 644 LINE",
"848 644 LINE",
"571 20 LINE",
"527 644 LINE",
"503 644 LINE",
"491 586 LINE",
"198 20 LINE",
"185 644 LINE",
"156 644 LINE",
"170 0 LINE"
);
},
{
closed = 1;
nodes = (
"550 688 LINE",
"652 837 LINE",
"622 837 LINE",
"527 688 LINE"
);
}
);
width = 840;
}
);
leftKerningGroup = W;
note = Wacute;
rightKerningGroup = W;
unicode = 1E82;
},
{
glyphname = Wcircumflex;
lastChange = "2015-10-25 05:59:50 +0000";
layers = (
{
layerId = "45AE5D37-AE90-4B36-85E4-274E7BAA8508";
name = "Light Italic";
paths = (
{
closed = 1;
nodes = (
"218 0 LINE",
"510 570 LINE",
"548 0 LINE",
"591 0 LINE",
"876 644 LINE",
"848 644 LINE",
"571 20 LINE",
"527 644 LINE",
"503 644 LINE",
"491 586 LINE",
"198 20 LINE",
"185 644 LINE",
"156 644 LINE",
"170 0 LINE"
);
},
{
closed = 1;
nodes = (
"454 688 LINE",
"557 792 LINE",
"616 688 LINE",
"643 688 LINE",
"574 810 LINE",
"544 810 LINE",
"424 688 LINE"
);
}
);
width = 840;
}
);
leftKerningGroup = W;
note = Wcircumflex;
rightKerningGroup = W;
unicode = 0174;
},
{
glyphname = Wdieresis;
lastChange = "2015-10-25 05:59:50 +0000";
layers = (
{
layerId = "45AE5D37-AE90-4B36-85E4-274E7BAA8508";
name = "Light Italic";
paths = (
{
closed = 1;
nodes = (
"218 0 LINE",
"510 570 LINE",
"548 0 LINE",
"591 0 LINE",
"876 644 LINE",
"848 644 LINE",
"571 20 LINE",
"527 644 LINE",
"503 644 LINE",
"491 586 LINE",
"198 20 LINE",
"185 644 LINE",
"156 644 LINE",
"170 0 LINE"
);
},
{
closed = 1;
nodes = (
"478 718 LINE",
"485 753 LINE",
"450 753 LINE",
"443 718 LINE"
);
},
{
closed = 1;
nodes = (
"635 718 LINE",
"642 753 LINE",
"607 753 LINE",
"600 718 LINE"
);
}
);
width = 840;
}
);
leftKerningGroup = W;
note = Wdieresis;
rightKerningGroup = W;
unicode = 1E84;
},
{
glyphname = Wgrave;
lastChange = "2015-10-25 05:59:50 +0000";
layers = (
{
layerId = "45AE5D37-AE90-4B36-85E4-274E7BAA8508";
name = "Light Italic";
paths = (
{
closed = 1;
nodes = (
"218 0 LINE",
"510 570 LINE",
"548 0 LINE",
"591 0 LINE",
"876 644 LINE",
"848 644 LINE",
"571 20 LINE",
"527 644 LINE",
"503 644 LINE",
"491 586 LINE",
"198 20 LINE",
"185 644 LINE",
"156 644 LINE",
"170 0 LINE"
);
},
{
closed = 1;
nodes = (
"538 688 LINE",
"507 837 LINE",
"477 837 LINE",
"515 688 LINE"
);
}
);
width = 840;
}
);
leftKerningGroup = W;
note = Wgrave;
rightKerningGroup = W;
unicode = 1E80;
},
{
glyphname = X;
lastChange = "2015-10-25 05:59:50 +0000";
layers = (
{
layerId = "45AE5D37-AE90-4B36-85E4-274E7BAA8508";
name = "Light Italic";
paths = (
{
closed = 1;
nodes = (
"49 0 LINE",
"321 299 LINE",
"467 0 LINE",
"496 0 LINE",
"341 317 LINE",
"632 644 LINE",
"603 644 LINE",
"328 333 LINE",
"185 644 LINE",
"156 644 LINE",
"308 317 LINE",
"20 0 LINE"
);
}
);
width = 596;
}
);
note = X;
unicode = 0058;
},
{
glyphname = Y;
lastChange = "2015-10-25 05:59:50 +0000";
layers = (
{
layerId = "45AE5D37-AE90-4B36-85E4-274E7BAA8508";
name = "Light Italic";
paths = (
{
closed = 1;
nodes = (
"277 0 LINE",
"328 242 LINE",
"642 644 LINE",
"611 644 LINE",
"317 268 LINE",
"183 644 LINE",
"156 644 LINE",
"300 242 LINE",
"249 0 LINE"
);
}
);
width = 606;
}
);
leftKerningGroup = Y;
note = Y;
rightKerningGroup = Y;
unicode = 0059;
},
{
glyphname = Yacute;
lastChange = "2015-10-25 05:59:50 +0000";
layers = (
{
layerId = "45AE5D37-AE90-4B36-85E4-274E7BAA8508";
name = "Light Italic";
paths = (
{
closed = 1;
nodes = (
"277 0 LINE",
"328 242 LINE",
"642 644 LINE",
"611 644 LINE",
"317 268 LINE",
"183 644 LINE",
"156 644 LINE",
"300 242 LINE",
"249 0 LINE"
);
},
{
closed = 1;
nodes = (
"406 688 LINE",
"508 837 LINE",
"478 837 LINE",
"383 688 LINE"
);
}
);
width = 606;
}
);
leftKerningGroup = Y;
note = Yacute;
rightKerningGroup = Y;
unicode = 00DD;
},
{
glyphname = Ycircumflex;
lastChange = "2015-10-25 05:59:50 +0000";
layers = (
{
layerId = "45AE5D37-AE90-4B36-85E4-274E7BAA8508";
name = "Light Italic";
paths = (
{
closed = 1;
nodes = (
"277 0 LINE",
"328 242 LINE",
"642 644 LINE",
"611 644 LINE",
"317 268 LINE",
"183 644 LINE",
"156 644 LINE",
"300 242 LINE",
"249 0 LINE"
);
},
{
closed = 1;
nodes = (
"330 688 LINE",
"433 792 LINE",
"492 688 LINE",
"519 688 LINE",
"450 810 LINE",
"420 810 LINE",
"300 688 LINE"
);
}
);
width = 606;
}
);
leftKerningGroup = Y;
note = Ycircumflex;
rightKerningGroup = Y;
unicode = 0176;
},
{
glyphname = Ydieresis;
lastChange = "2015-10-25 05:59:50 +0000";
layers = (
{
layerId = "45AE5D37-AE90-4B36-85E4-274E7BAA8508";
name = "Light Italic";
paths = (
{
closed = 1;
nodes = (
"277 0 LINE",
"328 242 LINE",
"642 644 LINE",
"611 644 LINE",
"317 268 LINE",
"183 644 LINE",
"156 644 LINE",
"300 242 LINE",
"249 0 LINE"
);
},
{
closed = 1;
nodes = (
"354 718 LINE",
"361 753 LINE",
"326 753 LINE",
"319 718 LINE"
);
},
{
closed = 1;
nodes = (
"511 718 LINE",
"518 753 LINE",
"483 753 LINE",
"476 718 LINE"
);
}
);
width = 606;
}
);
leftKerningGroup = Y;
note = Ydieresis;
rightKerningGroup = Y;
unicode = 0178;
},
{
glyphname = Ydotaccent;
lastChange = "2015-10-25 05:59:50 +0000";
layers = (
{
layerId = "45AE5D37-AE90-4B36-85E4-274E7BAA8508";
name = "Light Italic";
paths = (
{
closed = 1;
nodes = (
"277 0 LINE",
"328 242 LINE",
"642 644 LINE",
"611 644 LINE",
"317 268 LINE",
"183 644 LINE",
"156 644 LINE",
"300 242 LINE",
"249 0 LINE"
);
},
{
closed = 1;
nodes = (
"433 718 LINE",
"440 753 LINE",
"405 753 LINE",
"398 718 LINE"
);
}
);
width = 606;
}
);
leftKerningGroup = Y;
note = Ydotaccent;
rightKerningGroup = Y;
unicode = 1E8E;
},
{
glyphname = Ydotbelow;
lastChange = "2015-10-25 05:59:50 +0000";
layers = (
{
layerId = "45AE5D37-AE90-4B36-85E4-274E7BAA8508";
name = "Light Italic";
paths = (
{
closed = 1;
nodes = (
"277 0 LINE",
"328 242 LINE",
"642 644 LINE",
"611 644 LINE",
"317 268 LINE",
"183 644 LINE",
"156 644 LINE",
"300 242 LINE",
"249 0 LINE"
);
},
{
closed = 1;
nodes = (
"257 -119 LINE",
"265 -82 LINE",
"228 -82 LINE",
"220 -119 LINE"
);
}
);
width = 606;
}
);
leftKerningGroup = Y;
note = Ydotbelow;
rightKerningGroup = Y;
unicode = 1EF4;
},
{
glyphname = Ygrave;
lastChange = "2015-10-25 05:59:50 +0000";
layers = (
{
layerId = "45AE5D37-AE90-4B36-85E4-274E7BAA8508";
name = "Light Italic";
paths = (
{
closed = 1;
nodes = (
"277 0 LINE",
"328 242 LINE",
"642 644 LINE",
"611 644 LINE",
"317 268 LINE",
"183 644 LINE",
"156 644 LINE",
"300 242 LINE",
"249 0 LINE"
);
},
{
closed = 1;
nodes = (
"436 688 LINE",
"405 837 LINE",
"375 837 LINE",
"413 688 LINE"
);
}
);
width = 606;
}
);
leftKerningGroup = Y;
note = Ygrave;
rightKerningGroup = Y;
unicode = 1EF2;
},
{
glyphname = Yhookabove;
lastChange = "2015-10-25 05:59:50 +0000";
layers = (
{
layerId = "45AE5D37-AE90-4B36-85E4-274E7BAA8508";
name = "Light Italic";
paths = (
{
closed = 1;
nodes = (
"277 0 LINE",
"328 242 LINE",
"642 644 LINE",
"611 644 LINE",
"317 268 LINE",
"183 644 LINE",
"156 644 LINE",
"300 242 LINE",
"249 0 LINE"
);
},
{
closed = 1;
nodes = (
"410 688 LINE",
"422 744 LINE",
"494 750 OFFCURVE",
"521 778 OFFCURVE",
"533 830 CURVE SMOOTH",
"544 885 OFFCURVE",
"510 915 OFFCURVE",
"440 915 CURVE SMOOTH",
"420 915 OFFCURVE",
"385 910 OFFCURVE",
"367 903 CURVE",
"362 878 LINE",
"381 885 OFFCURVE",
"411 890 OFFCURVE",
"433 890 CURVE SMOOTH",
"500 890 OFFCURVE",
"516 869 OFFCURVE",
"508 830 CURVE SMOOTH",
"499 789 OFFCURVE",
"484 766 OFFCURVE",
"398 763 CURVE",
"382 688 LINE"
);
}
);
width = 606;
}
);
leftKerningGroup = Y;
note = Yhookabove;
rightKerningGroup = Y;
unicode = 1EF6;
},
{
glyphname = Ytilde;
lastChange = "2015-10-25 05:59:50 +0000";
layers = (
{
layerId = "45AE5D37-AE90-4B36-85E4-274E7BAA8508";
name = "Light Italic";
paths = (
{
closed = 1;
nodes = (
"277 0 LINE",
"328 242 LINE",
"642 644 LINE",
"611 644 LINE",
"317 268 LINE",
"183 644 LINE",
"156 644 LINE",
"300 242 LINE",
"249 0 LINE"
);
},
{
closed = 1;
nodes = (
"512 718 OFFCURVE",
"535 728 OFFCURVE",
"552 746 CURVE",
"559 777 LINE",
"535 751 OFFCURVE",
"512 743 OFFCURVE",
"483 743 CURVE SMOOTH",
"440 743 OFFCURVE",
"419 779 OFFCURVE",
"370 779 CURVE SMOOTH",
"342 779 OFFCURVE",
"311 769 OFFCURVE",
"292 751 CURVE",
"286 720 LINE",
"313 747 OFFCURVE",
"340 754 OFFCURVE",
"368 754 CURVE SMOOTH",
"405 754 OFFCURVE",
"435 718 OFFCURVE",
"481 718 CURVE SMOOTH"
);
}
);
width = 606;
}
);
leftKerningGroup = Y;
note = Ytilde;
rightKerningGroup = Y;
unicode = 1EF8;
},
{
glyphname = Z;
lastChange = "2015-10-25 05:59:50 +0000";
layers = (
{
layerId = "45AE5D37-AE90-4B36-85E4-274E7BAA8508";
name = "Light Italic";
paths = (
{
closed = 1;
nodes = (
"469 0 LINE",
"474 25 LINE",
"60 25 LINE",
"595 618 LINE",
"600 644 LINE",
"173 644 LINE",
"168 619 LINE",
"563 619 LINE",
"24 22 LINE",
"20 0 LINE"
);
}
);
width = 564;
}
);
leftKerningGroup = Z;
note = Z;
rightKerningGroup = Z;
unicode = 005A;
},
{
glyphname = Zacute;
lastChange = "2015-10-25 05:59:50 +0000";
layers = (
{
layerId = "45AE5D37-AE90-4B36-85E4-274E7BAA8508";
name = "Light Italic";
paths = (
{
closed = 1;
nodes = (
"469 0 LINE",
"474 25 LINE",
"60 25 LINE",
"595 618 LINE",
"600 644 LINE",
"173 644 LINE",
"168 619 LINE",
"563 619 LINE",
"24 22 LINE",
"20 0 LINE"
);
},
{
closed = 1;
nodes = (
"429 688 LINE",
"531 837 LINE",
"501 837 LINE",
"406 688 LINE"
);
}
);
width = 564;
}
);
leftKerningGroup = Z;
note = Zacute;
rightKerningGroup = Z;
unicode = 0179;
},
{
glyphname = Zcaron;
lastChange = "2015-10-25 05:59:50 +0000";
layers = (
{
layerId = "45AE5D37-AE90-4B36-85E4-274E7BAA8508";
name = "Light Italic";
paths = (
{
closed = 1;
nodes = (
"469 0 LINE",
"474 25 LINE",
"60 25 LINE",
"595 618 LINE",
"600 644 LINE",
"173 644 LINE",
"168 619 LINE",
"563 619 LINE",
"24 22 LINE",
"20 0 LINE"
);
},
{
closed = 1;
nodes = (
"434 688 LINE",
"555 810 LINE",
"524 810 LINE",
"421 706 LINE",
"362 810 LINE",
"335 810 LINE",
"404 688 LINE"
);
}
);
width = 564;
}
);
leftKerningGroup = Z;
note = Zcaron;
rightKerningGroup = Z;
unicode = 017D;
},
{
glyphname = Zdotaccent;
lastChange = "2015-10-25 05:59:50 +0000";
layers = (
{
layerId = "45AE5D37-AE90-4B36-85E4-274E7BAA8508";
name = "Light Italic";
paths = (
{
closed = 1;
nodes = (
"469 0 LINE",
"474 25 LINE",
"60 25 LINE",
"595 618 LINE",
"600 644 LINE",
"173 644 LINE",
"168 619 LINE",
"563 619 LINE",
"24 22 LINE",
"20 0 LINE"
);
},
{
closed = 1;
nodes = (
"435 718 LINE",
"442 753 LINE",
"407 753 LINE",
"400 718 LINE"
);
}
);
width = 564;
}
);
leftKerningGroup = Z;
note = Zdotaccent;
rightKerningGroup = Z;
unicode = 017B;
},
{
glyphname = Zdotbelow;
lastChange = "2015-10-25 05:59:50 +0000";
layers = (
{
layerId = "45AE5D37-AE90-4B36-85E4-274E7BAA8508";
name = "Light Italic";
paths = (
{
closed = 1;
nodes = (
"469 0 LINE",
"474 25 LINE",
"60 25 LINE",
"595 618 LINE",
"600 644 LINE",
"173 644 LINE",
"168 619 LINE",
"563 619 LINE",
"24 22 LINE",
"20 0 LINE"
);
},
{
closed = 1;
nodes = (
"255 -139 LINE",
"263 -102 LINE",
"226 -102 LINE",
"218 -139 LINE"
);
}
);
width = 564;
}
);
leftKerningGroup = Z;
note = Zdotbelow;
rightKerningGroup = Z;
unicode = 1E92;
},
{
glyphname = a;
lastChange = "2015-10-25 05:59:50 +0000";
layers = (
{
layerId = "45AE5D37-AE90-4B36-85E4-274E7BAA8508";
name = "Light Italic";
paths = (
{
closed = 1;
nodes = (
"303 -10 OFFCURVE",
"362 11 OFFCURVE",
"419 57 CURVE",
"411 0 LINE",
"434 0 LINE",
"534 474 LINE",
"506 474 LINE",
"497 430 LINE",
"453 470 OFFCURVE",
"411 484 OFFCURVE",
"341 484 CURVE SMOOTH",
"210 484 OFFCURVE",
"103 391 OFFCURVE",
"66 218 CURVE SMOOTH",
"29 45 OFFCURVE",
"110 -10 OFFCURVE",
"228 -10 CURVE SMOOTH"
);
},
{
closed = 1;
nodes = (
"108 15 OFFCURVE",
"62 72 OFFCURVE",
"93 218 CURVE SMOOTH",
"126 372 OFFCURVE",
"219 459 OFFCURVE",
"345 459 CURVE SMOOTH",
"417 459 OFFCURVE",
"459 437 OFFCURVE",
"491 401 CURVE",
"424 86 LINE",
"366 37 OFFCURVE",
"308 15 OFFCURVE",
"239 15 CURVE SMOOTH"
);
}
);
width = 554;
}
);
leftKerningGroup = a;
note = a;
rightKerningGroup = a;
unicode = 0061;
},
{
glyphname = aacute;
lastChange = "2015-10-25 05:59:50 +0000";
layers = (
{
layerId = "45AE5D37-AE90-4B36-85E4-274E7BAA8508";
name = "Light Italic";
paths = (
{
closed = 1;
nodes = (
"303 -10 OFFCURVE",
"362 11 OFFCURVE",
"419 57 CURVE",
"411 0 LINE",
"434 0 LINE",
"534 474 LINE",
"506 474 LINE",
"497 430 LINE",
"453 470 OFFCURVE",
"411 484 OFFCURVE",
"341 484 CURVE SMOOTH",
"210 484 OFFCURVE",
"103 391 OFFCURVE",
"66 218 CURVE SMOOTH",
"29 45 OFFCURVE",
"110 -10 OFFCURVE",
"228 -10 CURVE SMOOTH"
);
},
{
closed = 1;
nodes = (
"108 15 OFFCURVE",
"62 72 OFFCURVE",
"93 218 CURVE SMOOTH",
"126 372 OFFCURVE",
"219 459 OFFCURVE",
"345 459 CURVE SMOOTH",
"417 459 OFFCURVE",
"459 437 OFFCURVE",
"491 401 CURVE",
"424 86 LINE",
"366 37 OFFCURVE",
"308 15 OFFCURVE",
"239 15 CURVE SMOOTH"
);
},
{
closed = 1;
nodes = (
"355 522 LINE",
"457 671 LINE",
"427 671 LINE",
"332 522 LINE"
);
}
);
width = 526;
}
);
leftKerningGroup = a;
note = aacute;
rightKerningGroup = a;
unicode = 00E1;
},
{
glyphname = abreve;
lastChange = "2015-10-25 05:59:50 +0000";
layers = (
{
layerId = "45AE5D37-AE90-4B36-85E4-274E7BAA8508";
name = "Light Italic";
paths = (
{
closed = 1;
nodes = (
"303 -10 OFFCURVE",
"362 11 OFFCURVE",
"419 57 CURVE",
"411 0 LINE",
"434 0 LINE",
"534 474 LINE",
"506 474 LINE",
"497 430 LINE",
"453 470 OFFCURVE",
"411 484 OFFCURVE",
"341 484 CURVE SMOOTH",
"210 484 OFFCURVE",
"103 391 OFFCURVE",
"66 218 CURVE SMOOTH",
"29 45 OFFCURVE",
"110 -10 OFFCURVE",
"228 -10 CURVE SMOOTH"
);
},
{
closed = 1;
nodes = (
"108 15 OFFCURVE",
"62 72 OFFCURVE",
"93 218 CURVE SMOOTH",
"126 372 OFFCURVE",
"219 459 OFFCURVE",
"345 459 CURVE SMOOTH",
"417 459 OFFCURVE",
"459 437 OFFCURVE",
"491 401 CURVE",
"424 86 LINE",
"366 37 OFFCURVE",
"308 15 OFFCURVE",
"239 15 CURVE SMOOTH"
);
},
{
closed = 1;
nodes = (
"412 522 OFFCURVE",
"462 564 OFFCURVE",
"474 617 CURVE",
"447 617 LINE",
"438 577 OFFCURVE",
"402 547 OFFCURVE",
"361 547 CURVE SMOOTH",
"321 547 OFFCURVE",
"297 577 OFFCURVE",
"306 617 CURVE",
"283 617 LINE",
"271 564 OFFCURVE",
"305 522 OFFCURVE",
"358 522 CURVE SMOOTH"
);
}
);
width = 522;
}
);
leftKerningGroup = a;
note = abreve;
rightKerningGroup = a;
unicode = 0103;
},
{
glyphname = abreveacute;
lastChange = "2015-10-25 05:59:50 +0000";
layers = (
{
layerId = "45AE5D37-AE90-4B36-85E4-274E7BAA8508";
name = "Light Italic";
paths = (
{
closed = 1;
nodes = (
"303 -10 OFFCURVE",
"362 11 OFFCURVE",
"419 57 CURVE",
"411 0 LINE",
"434 0 LINE",
"534 474 LINE",
"506 474 LINE",
"497 430 LINE",
"453 470 OFFCURVE",
"411 484 OFFCURVE",
"341 484 CURVE SMOOTH",
"210 484 OFFCURVE",
"103 391 OFFCURVE",
"66 218 CURVE SMOOTH",
"29 45 OFFCURVE",
"110 -10 OFFCURVE",
"228 -10 CURVE SMOOTH"
);
},
{
closed = 1;
nodes = (
"108 15 OFFCURVE",
"62 72 OFFCURVE",
"93 218 CURVE SMOOTH",
"126 372 OFFCURVE",
"219 459 OFFCURVE",
"345 459 CURVE SMOOTH",
"417 459 OFFCURVE",
"459 437 OFFCURVE",
"491 401 CURVE",
"424 86 LINE",
"366 37 OFFCURVE",
"308 15 OFFCURVE",
"239 15 CURVE SMOOTH"
);
},
{
closed = 1;
nodes = (
"428 522 OFFCURVE",
"494 554 OFFCURVE",
"513 646 CURVE",
"487 646 LINE",
"473 577 OFFCURVE",
"422 547 OFFCURVE",
"361 547 CURVE SMOOTH",
"294 547 OFFCURVE",
"263 577 OFFCURVE",
"277 646 CURVE",
"253 646 LINE",
"234 554 OFFCURVE",
"291 522 OFFCURVE",
"357 522 CURVE SMOOTH"
);
},
{
closed = 1;
nodes = (
"374 614 LINE",
"462 723 LINE",
"433 723 LINE",
"352 614 LINE"
);
}
);
width = 522;
}
);
leftKerningGroup = a;
note = abreveacute;
rightKerningGroup = a;
unicode = 1EAF;
},
{
glyphname = abrevedotbelow;
lastChange = "2015-10-25 05:59:50 +0000";
layers = (
{
layerId = "45AE5D37-AE90-4B36-85E4-274E7BAA8508";
name = "Light Italic";
paths = (
{
closed = 1;
nodes = (
"303 -10 OFFCURVE",
"362 11 OFFCURVE",
"419 57 CURVE",
"411 0 LINE",
"434 0 LINE",
"534 474 LINE",
"506 474 LINE",
"497 430 LINE",
"453 470 OFFCURVE",
"411 484 OFFCURVE",
"341 484 CURVE SMOOTH",
"210 484 OFFCURVE",
"103 391 OFFCURVE",
"66 218 CURVE SMOOTH",
"29 45 OFFCURVE",
"110 -10 OFFCURVE",
"228 -10 CURVE SMOOTH"
);
},
{
closed = 1;
nodes = (
"231 -139 LINE",
"239 -102 LINE",
"202 -102 LINE",
"194 -139 LINE"
);
},
{
closed = 1;
nodes = (
"108 15 OFFCURVE",
"62 72 OFFCURVE",
"93 218 CURVE SMOOTH",
"126 372 OFFCURVE",
"219 459 OFFCURVE",
"345 459 CURVE SMOOTH",
"417 459 OFFCURVE",
"459 437 OFFCURVE",
"491 401 CURVE",
"424 86 LINE",
"366 37 OFFCURVE",
"308 15 OFFCURVE",
"239 15 CURVE SMOOTH"
);
},
{
closed = 1;
nodes = (
"404 522 OFFCURVE",
"454 564 OFFCURVE",
"466 617 CURVE",
"439 617 LINE",
"430 577 OFFCURVE",
"394 547 OFFCURVE",
"353 547 CURVE SMOOTH",
"313 547 OFFCURVE",
"289 577 OFFCURVE",
"298 617 CURVE",
"275 617 LINE",
"263 564 OFFCURVE",
"297 522 OFFCURVE",
"350 522 CURVE SMOOTH"
);
}
);
width = 522;
}
);
leftKerningGroup = a;
note = abrevedotbelow;
rightKerningGroup = a;
unicode = 1EB7;
},
{
glyphname = abrevegrave;
lastChange = "2015-10-25 05:59:50 +0000";
layers = (
{
layerId = "45AE5D37-AE90-4B36-85E4-274E7BAA8508";
name = "Light Italic";
paths = (
{
closed = 1;
nodes = (
"303 -10 OFFCURVE",
"362 11 OFFCURVE",
"419 57 CURVE",
"411 0 LINE",
"434 0 LINE",
"534 474 LINE",
"506 474 LINE",
"497 430 LINE",
"453 470 OFFCURVE",
"411 484 OFFCURVE",
"341 484 CURVE SMOOTH",
"210 484 OFFCURVE",
"103 391 OFFCURVE",
"66 218 CURVE SMOOTH",
"29 45 OFFCURVE",
"110 -10 OFFCURVE",
"228 -10 CURVE SMOOTH"
);
},
{
closed = 1;
nodes = (
"108 15 OFFCURVE",
"62 72 OFFCURVE",
"93 218 CURVE SMOOTH",
"126 372 OFFCURVE",
"219 459 OFFCURVE",
"345 459 CURVE SMOOTH",
"417 459 OFFCURVE",
"459 437 OFFCURVE",
"491 401 CURVE",
"424 86 LINE",
"366 37 OFFCURVE",
"308 15 OFFCURVE",
"239 15 CURVE SMOOTH"
);
},
{
closed = 1;
nodes = (
"424 522 OFFCURVE",
"490 554 OFFCURVE",
"509 646 CURVE",
"483 646 LINE",
"469 577 OFFCURVE",
"418 547 OFFCURVE",
"357 547 CURVE SMOOTH",
"290 547 OFFCURVE",
"259 577 OFFCURVE",
"273 646 CURVE",
"249 646 LINE",
"230 554 OFFCURVE",
"287 522 OFFCURVE",
"353 522 CURVE SMOOTH"
);
},
{
closed = 1;
nodes = (
"396 614 LINE",
"363 723 LINE",
"334 723 LINE",
"374 614 LINE"
);
}
);
width = 522;
}
);
leftKerningGroup = a;
note = abrevegrave;
rightKerningGroup = a;
unicode = 1EB1;
},
{
glyphname = abrevehookabove;
lastChange = "2015-10-25 05:59:50 +0000";
layers = (
{
layerId = "45AE5D37-AE90-4B36-85E4-274E7BAA8508";
name = "Light Italic";
paths = (
{
closed = 1;
nodes = (
"303 -10 OFFCURVE",
"362 11 OFFCURVE",
"419 57 CURVE",
"411 0 LINE",
"434 0 LINE",
"534 474 LINE",
"506 474 LINE",
"497 430 LINE",
"453 470 OFFCURVE",
"411 484 OFFCURVE",
"341 484 CURVE SMOOTH",
"210 484 OFFCURVE",
"103 391 OFFCURVE",
"66 218 CURVE SMOOTH",
"29 45 OFFCURVE",
"110 -10 OFFCURVE",
"228 -10 CURVE SMOOTH"
);
},
{
closed = 1;
nodes = (
"108 15 OFFCURVE",
"62 72 OFFCURVE",
"93 218 CURVE SMOOTH",
"126 372 OFFCURVE",
"219 459 OFFCURVE",
"345 459 CURVE SMOOTH",
"417 459 OFFCURVE",
"459 437 OFFCURVE",
"491 401 CURVE",
"424 86 LINE",
"366 37 OFFCURVE",
"308 15 OFFCURVE",
"239 15 CURVE SMOOTH"
);
},
{
closed = 1;
nodes = (
"430 522 OFFCURVE",
"496 554 OFFCURVE",
"515 646 CURVE",
"489 646 LINE",
"475 577 OFFCURVE",
"424 547 OFFCURVE",
"363 547 CURVE SMOOTH",
"296 547 OFFCURVE",
"265 577 OFFCURVE",
"279 646 CURVE",
"255 646 LINE",
"236 554 OFFCURVE",
"293 522 OFFCURVE",
"359 522 CURVE SMOOTH"
);
},
{
closed = 1;
nodes = (
"370 593 LINE",
"378 630 LINE",
"437 636 OFFCURVE",
"465 657 OFFCURVE",
"474 699 CURVE SMOOTH",
"483 744 OFFCURVE",
"454 768 OFFCURVE",
"408 768 CURVE SMOOTH",
"384 768 OFFCURVE",
"363 763 OFFCURVE",
"346 756 CURVE",
"340 731 LINE",
"360 739 OFFCURVE",
"379 744 OFFCURVE",
"403 744 CURVE SMOOTH",
"443 744 OFFCURVE",
"455 728 OFFCURVE",
"449 699 CURVE SMOOTH",
"442 668 OFFCURVE",
"427 653 OFFCURVE",
"354 649 CURVE",
"342 593 LINE"
);
}
);
width = 522;
}
);
leftKerningGroup = a;
note = abrevehookabove;
rightKerningGroup = a;
unicode = 1EB3;
},
{
glyphname = abrevetilde;
lastChange = "2015-10-25 05:59:50 +0000";
layers = (
{
layerId = "45AE5D37-AE90-4B36-85E4-274E7BAA8508";
name = "Light Italic";
paths = (
{
closed = 1;
nodes = (
"303 -10 OFFCURVE",
"362 11 OFFCURVE",
"419 57 CURVE",
"411 0 LINE",
"434 0 LINE",
"534 474 LINE",
"506 474 LINE",
"497 430 LINE",
"453 470 OFFCURVE",
"411 484 OFFCURVE",
"341 484 CURVE SMOOTH",
"210 484 OFFCURVE",
"103 391 OFFCURVE",
"66 218 CURVE SMOOTH",
"29 45 OFFCURVE",
"110 -10 OFFCURVE",
"228 -10 CURVE SMOOTH"
);
},
{
closed = 1;
nodes = (
"108 15 OFFCURVE",
"62 72 OFFCURVE",
"93 218 CURVE SMOOTH",
"126 372 OFFCURVE",
"219 459 OFFCURVE",
"345 459 CURVE SMOOTH",
"417 459 OFFCURVE",
"459 437 OFFCURVE",
"491 401 CURVE",
"424 86 LINE",
"366 37 OFFCURVE",
"308 15 OFFCURVE",
"239 15 CURVE SMOOTH"
);
},
{
closed = 1;
nodes = (
"433 522 OFFCURVE",
"499 554 OFFCURVE",
"518 646 CURVE",
"492 646 LINE",
"478 577 OFFCURVE",
"427 547 OFFCURVE",
"366 547 CURVE SMOOTH",
"299 547 OFFCURVE",
"268 577 OFFCURVE",
"282 646 CURVE",
"258 646 LINE",
"239 554 OFFCURVE",
"296 522 OFFCURVE",
"362 522 CURVE SMOOTH"
);
},
{
closed = 1;
nodes = (
"296 708 OFFCURVE",
"320 714 OFFCURVE",
"348 714 CURVE SMOOTH",
"385 714 OFFCURVE",
"405 682 OFFCURVE",
"451 682 CURVE SMOOTH",
"480 682 OFFCURVE",
"507 691 OFFCURVE",
"526 708 CURVE",
"533 739 LINE",
"504 713 OFFCURVE",
"481 707 OFFCURVE",
"453 707 CURVE SMOOTH",
"410 707 OFFCURVE",
"399 739 OFFCURVE",
"350 739 CURVE SMOOTH",
"321 739 OFFCURVE",
"294 730 OFFCURVE",
"274 713 CURVE",
"268 682 LINE"
);
}
);
width = 522;
}
);
leftKerningGroup = a;
note = abrevetilde;
rightKerningGroup = a;
unicode = 1EB5;
},
{
glyphname = acaron;
lastChange = "2015-10-25 05:59:50 +0000";
layers = (
{
layerId = "45AE5D37-AE90-4B36-85E4-274E7BAA8508";
name = "Light Italic";
paths = (
{
closed = 1;
nodes = (
"303 -10 OFFCURVE",
"362 11 OFFCURVE",
"419 57 CURVE",
"411 0 LINE",
"434 0 LINE",
"534 474 LINE",
"506 474 LINE",
"497 430 LINE",
"453 470 OFFCURVE",
"411 484 OFFCURVE",
"341 484 CURVE SMOOTH",
"210 484 OFFCURVE",
"103 391 OFFCURVE",
"66 218 CURVE SMOOTH",
"29 45 OFFCURVE",
"110 -10 OFFCURVE",
"228 -10 CURVE SMOOTH"
);
},
{
closed = 1;
nodes = (
"108 15 OFFCURVE",
"62 72 OFFCURVE",
"93 218 CURVE SMOOTH",
"126 372 OFFCURVE",
"219 459 OFFCURVE",
"345 459 CURVE SMOOTH",
"417 459 OFFCURVE",
"459 437 OFFCURVE",
"491 401 CURVE",
"424 86 LINE",
"366 37 OFFCURVE",
"308 15 OFFCURVE",
"239 15 CURVE SMOOTH"
);
},
{
closed = 1;
nodes = (
"359 522 LINE",
"480 644 LINE",
"449 644 LINE",
"346 540 LINE",
"287 644 LINE",
"260 644 LINE",
"329 522 LINE"
);
}
);
width = 522;
}
);
leftKerningGroup = a;
note = acaron;
rightKerningGroup = a;
unicode = 01CE;
},
{
glyphname = acircumflex;
lastChange = "2015-10-25 05:59:50 +0000";
layers = (
{
layerId = "45AE5D37-AE90-4B36-85E4-274E7BAA8508";
name = "Light Italic";
paths = (
{
closed = 1;
nodes = (
"303 -10 OFFCURVE",
"362 11 OFFCURVE",
"419 57 CURVE",
"411 0 LINE",
"434 0 LINE",
"534 474 LINE",
"506 474 LINE",
"497 430 LINE",
"453 470 OFFCURVE",
"411 484 OFFCURVE",
"341 484 CURVE SMOOTH",
"210 484 OFFCURVE",
"103 391 OFFCURVE",
"66 218 CURVE SMOOTH",
"29 45 OFFCURVE",
"110 -10 OFFCURVE",
"228 -10 CURVE SMOOTH"
);
},
{
closed = 1;
nodes = (
"108 15 OFFCURVE",
"62 72 OFFCURVE",
"93 218 CURVE SMOOTH",
"126 372 OFFCURVE",
"219 459 OFFCURVE",
"345 459 CURVE SMOOTH",
"417 459 OFFCURVE",
"459 437 OFFCURVE",
"491 401 CURVE",
"424 86 LINE",
"366 37 OFFCURVE",
"308 15 OFFCURVE",
"239 15 CURVE SMOOTH"
);
},
{
closed = 1;
nodes = (
"266 522 LINE",
"369 626 LINE",
"428 522 LINE",
"455 522 LINE",
"386 644 LINE",
"356 644 LINE",
"236 522 LINE"
);
}
);
width = 522;
}
);
leftKerningGroup = a;
note = acircumflex;
rightKerningGroup = a;
unicode = 00E2;
},
{
glyphname = acircumflexacute;
lastChange = "2015-10-25 05:59:50 +0000";
layers = (
{
layerId = "45AE5D37-AE90-4B36-85E4-274E7BAA8508";
name = "Light Italic";
paths = (
{
closed = 1;
nodes = (
"303 -10 OFFCURVE",
"362 11 OFFCURVE",
"419 57 CURVE",
"411 0 LINE",
"434 0 LINE",
"534 474 LINE",
"506 474 LINE",
"497 430 LINE",
"453 470 OFFCURVE",
"411 484 OFFCURVE",
"341 484 CURVE SMOOTH",
"210 484 OFFCURVE",
"103 391 OFFCURVE",
"66 218 CURVE SMOOTH",
"29 45 OFFCURVE",
"110 -10 OFFCURVE",
"228 -10 CURVE SMOOTH"
);
},
{
closed = 1;
nodes = (
"108 15 OFFCURVE",
"62 72 OFFCURVE",
"93 218 CURVE SMOOTH",
"126 372 OFFCURVE",
"219 459 OFFCURVE",
"345 459 CURVE SMOOTH",
"417 459 OFFCURVE",
"459 437 OFFCURVE",
"491 401 CURVE",
"424 86 LINE",
"366 37 OFFCURVE",
"308 15 OFFCURVE",
"239 15 CURVE SMOOTH"
);
},
{
closed = 1;
nodes = (
"275 522 LINE",
"374 608 LINE",
"437 522 LINE",
"464 522 LINE",
"390 624 LINE",
"360 624 LINE",
"244 522 LINE"
);
},
{
closed = 1;
nodes = (
"456 624 LINE",
"543 733 LINE",
"515 733 LINE",
"434 624 LINE"
);
}
);
width = 522;
}
);
leftKerningGroup = a;
note = acircumflexacute;
rightKerningGroup = a;
unicode = 1EA5;
},
{
glyphname = acircumflexdotbelow;
lastChange = "2015-10-25 05:59:50 +0000";
layers = (
{
layerId = "45AE5D37-AE90-4B36-85E4-274E7BAA8508";
name = "Light Italic";
paths = (
{
closed = 1;
nodes = (
"303 -10 OFFCURVE",
"362 11 OFFCURVE",
"419 57 CURVE",
"411 0 LINE",
"434 0 LINE",
"534 474 LINE",
"506 474 LINE",
"497 430 LINE",
"453 470 OFFCURVE",
"411 484 OFFCURVE",
"341 484 CURVE SMOOTH",
"210 484 OFFCURVE",
"103 391 OFFCURVE",
"66 218 CURVE SMOOTH",
"29 45 OFFCURVE",
"110 -10 OFFCURVE",
"228 -10 CURVE SMOOTH"
);
},
{
closed = 1;
nodes = (
"229 -139 LINE",
"237 -102 LINE",
"200 -102 LINE",
"192 -139 LINE"
);
},
{
closed = 1;
nodes = (
"108 15 OFFCURVE",
"62 72 OFFCURVE",
"93 218 CURVE SMOOTH",
"126 372 OFFCURVE",
"219 459 OFFCURVE",
"345 459 CURVE SMOOTH",
"417 459 OFFCURVE",
"459 437 OFFCURVE",
"491 401 CURVE",
"424 86 LINE",
"366 37 OFFCURVE",
"308 15 OFFCURVE",
"239 15 CURVE SMOOTH"
);
},
{
closed = 1;
nodes = (
"269 522 LINE",
"372 626 LINE",
"431 522 LINE",
"458 522 LINE",
"389 644 LINE",
"359 644 LINE",
"239 522 LINE"
);
}
);
width = 522;
}
);
leftKerningGroup = a;
note = acircumflexdotbelow;
rightKerningGroup = a;
unicode = 1EAD;
},
{
glyphname = acircumflexgrave;
lastChange = "2015-10-25 05:59:50 +0000";
layers = (
{
layerId = "45AE5D37-AE90-4B36-85E4-274E7BAA8508";
name = "Light Italic";
paths = (
{
closed = 1;
nodes = (
"303 -10 OFFCURVE",
"362 11 OFFCURVE",
"419 57 CURVE",
"411 0 LINE",
"434 0 LINE",
"534 474 LINE",
"506 474 LINE",
"497 430 LINE",
"453 470 OFFCURVE",
"411 484 OFFCURVE",
"341 484 CURVE SMOOTH",
"210 484 OFFCURVE",
"103 391 OFFCURVE",
"66 218 CURVE SMOOTH",
"29 45 OFFCURVE",
"110 -10 OFFCURVE",
"228 -10 CURVE SMOOTH"
);
},
{
closed = 1;
nodes = (
"108 15 OFFCURVE",
"62 72 OFFCURVE",
"93 218 CURVE SMOOTH",
"126 372 OFFCURVE",
"219 459 OFFCURVE",
"345 459 CURVE SMOOTH",
"417 459 OFFCURVE",
"459 437 OFFCURVE",
"491 401 CURVE",
"424 86 LINE",
"366 37 OFFCURVE",
"308 15 OFFCURVE",
"239 15 CURVE SMOOTH"
);
},
{
closed = 1;
nodes = (
"274 522 LINE",
"373 608 LINE",
"436 522 LINE",
"463 522 LINE",
"389 624 LINE",
"359 624 LINE",
"243 522 LINE"
);
},
{
closed = 1;
nodes = (
"315 624 LINE",
"282 733 LINE",
"253 733 LINE",
"293 624 LINE"
);
}
);
width = 522;
}
);
leftKerningGroup = a;
note = acircumflexgrave;
rightKerningGroup = a;
unicode = 1EA7;
},
{
glyphname = acircumflexhookabove;
lastChange = "2015-10-25 05:59:50 +0000";
layers = (
{
layerId = "45AE5D37-AE90-4B36-85E4-274E7BAA8508";
name = "Light Italic";
paths = (
{
closed = 1;
nodes = (
"303 -10 OFFCURVE",
"362 11 OFFCURVE",
"419 57 CURVE",
"411 0 LINE",
"434 0 LINE",
"534 474 LINE",
"506 474 LINE",
"497 430 LINE",
"453 470 OFFCURVE",
"411 484 OFFCURVE",
"341 484 CURVE SMOOTH",
"210 484 OFFCURVE",
"103 391 OFFCURVE",
"66 218 CURVE SMOOTH",
"29 45 OFFCURVE",
"110 -10 OFFCURVE",
"228 -10 CURVE SMOOTH"
);
},
{
closed = 1;
nodes = (
"108 15 OFFCURVE",
"62 72 OFFCURVE",
"93 218 CURVE SMOOTH",
"126 372 OFFCURVE",
"219 459 OFFCURVE",
"345 459 CURVE SMOOTH",
"417 459 OFFCURVE",
"459 437 OFFCURVE",
"491 401 CURVE",
"424 86 LINE",
"366 37 OFFCURVE",
"308 15 OFFCURVE",
"239 15 CURVE SMOOTH"
);
},
{
closed = 1;
nodes = (
"269 522 LINE",
"368 608 LINE",
"431 522 LINE",
"458 522 LINE",
"384 624 LINE",
"354 624 LINE",
"238 522 LINE"
);
},
{
closed = 1;
nodes = (
"459 603 LINE",
"467 640 LINE",
"525 646 OFFCURVE",
"554 667 OFFCURVE",
"562 709 CURVE SMOOTH",
"572 754 OFFCURVE",
"546 778 OFFCURVE",
"496 778 CURVE SMOOTH",
"473 778 OFFCURVE",
"452 773 OFFCURVE",
"435 766 CURVE",
"429 741 LINE",
"449 749 OFFCURVE",
"468 754 OFFCURVE",
"491 754 CURVE SMOOTH",
"529 754 OFFCURVE",
"544 738 OFFCURVE",
"537 709 CURVE",
"531 678 OFFCURVE",
"515 663 OFFCURVE",
"443 659 CURVE",
"431 603 LINE"
);
}
);
width = 536;
}
);
leftKerningGroup = a;
note = acircumflexhookabove;
rightKerningGroup = a;
unicode = 1EA9;
},
{
glyphname = acircumflextilde;
lastChange = "2015-10-25 05:59:50 +0000";
layers = (
{
layerId = "45AE5D37-AE90-4B36-85E4-274E7BAA8508";
name = "Light Italic";
paths = (
{
closed = 1;
nodes = (
"303 -10 OFFCURVE",
"362 11 OFFCURVE",
"419 57 CURVE",
"411 0 LINE",
"434 0 LINE",
"534 474 LINE",
"506 474 LINE",
"497 430 LINE",
"453 470 OFFCURVE",
"411 484 OFFCURVE",
"341 484 CURVE SMOOTH",
"210 484 OFFCURVE",
"103 391 OFFCURVE",
"66 218 CURVE SMOOTH",
"29 45 OFFCURVE",
"110 -10 OFFCURVE",
"228 -10 CURVE SMOOTH"
);
},
{
closed = 1;
nodes = (
"108 15 OFFCURVE",
"62 72 OFFCURVE",
"93 218 CURVE SMOOTH",
"126 372 OFFCURVE",
"219 459 OFFCURVE",
"345 459 CURVE SMOOTH",
"417 459 OFFCURVE",
"459 437 OFFCURVE",
"491 401 CURVE",
"424 86 LINE",
"366 37 OFFCURVE",
"308 15 OFFCURVE",
"239 15 CURVE SMOOTH"
);
},
{
closed = 1;
nodes = (
"273 522 LINE",
"372 608 LINE",
"435 522 LINE",
"462 522 LINE",
"388 624 LINE",
"358 624 LINE",
"242 522 LINE"
);
},
{
closed = 1;
nodes = (
"281 663 OFFCURVE",
"304 669 OFFCURVE",
"332 669 CURVE SMOOTH",
"369 669 OFFCURVE",
"389 637 OFFCURVE",
"435 637 CURVE SMOOTH",
"464 637 OFFCURVE",
"490 646 OFFCURVE",
"510 663 CURVE",
"516 694 LINE",
"488 668 OFFCURVE",
"465 662 OFFCURVE",
"437 662 CURVE SMOOTH",
"394 662 OFFCURVE",
"383 694 OFFCURVE",
"334 694 CURVE SMOOTH",
"305 694 OFFCURVE",
"278 685 OFFCURVE",
"259 668 CURVE",
"252 637 LINE"
);
}
);
width = 522;
}
);
leftKerningGroup = a;
note = acircumflextilde;
rightKerningGroup = a;
unicode = 1EAB;
},
{
glyphname = adieresis;
lastChange = "2015-10-25 05:59:50 +0000";
layers = (
{
layerId = "45AE5D37-AE90-4B36-85E4-274E7BAA8508";
name = "Light Italic";
paths = (
{
closed = 1;
nodes = (
"303 -10 OFFCURVE",
"362 11 OFFCURVE",
"419 57 CURVE",
"411 0 LINE",
"434 0 LINE",
"534 474 LINE",
"506 474 LINE",
"497 430 LINE",
"453 470 OFFCURVE",
"411 484 OFFCURVE",
"341 484 CURVE SMOOTH",
"210 484 OFFCURVE",
"103 391 OFFCURVE",
"66 218 CURVE SMOOTH",
"29 45 OFFCURVE",
"110 -10 OFFCURVE",
"228 -10 CURVE SMOOTH"
);
},
{
closed = 1;
nodes = (
"108 15 OFFCURVE",
"62 72 OFFCURVE",
"93 218 CURVE SMOOTH",
"126 372 OFFCURVE",
"219 459 OFFCURVE",
"345 459 CURVE SMOOTH",
"417 459 OFFCURVE",
"459 437 OFFCURVE",
"491 401 CURVE",
"424 86 LINE",
"366 37 OFFCURVE",
"308 15 OFFCURVE",
"239 15 CURVE SMOOTH"
);
},
{
closed = 1;
nodes = (
"295 552 LINE",
"302 587 LINE",
"267 587 LINE",
"260 552 LINE"
);
},
{
closed = 1;
nodes = (
"452 552 LINE",
"459 587 LINE",
"424 587 LINE",
"417 552 LINE"
);
}
);
width = 522;
}
);
leftKerningGroup = a;
note = adieresis;
rightKerningGroup = a;
unicode = 00E4;
},
{
glyphname = adotbelow;
lastChange = "2015-10-25 05:59:50 +0000";
layers = (
{
layerId = "45AE5D37-AE90-4B36-85E4-274E7BAA8508";
name = "Light Italic";
paths = (
{
closed = 1;
nodes = (
"303 -10 OFFCURVE",
"362 11 OFFCURVE",
"419 57 CURVE",
"411 0 LINE",
"434 0 LINE",
"534 474 LINE",
"506 474 LINE",
"497 430 LINE",
"453 470 OFFCURVE",
"411 484 OFFCURVE",
"341 484 CURVE SMOOTH",
"210 484 OFFCURVE",
"103 391 OFFCURVE",
"66 218 CURVE SMOOTH",
"29 45 OFFCURVE",
"110 -10 OFFCURVE",
"228 -10 CURVE SMOOTH"
);
},
{
closed = 1;
nodes = (
"229 -139 LINE",
"237 -102 LINE",
"200 -102 LINE",
"192 -139 LINE"
);
},
{
closed = 1;
nodes = (
"108 15 OFFCURVE",
"62 72 OFFCURVE",
"93 218 CURVE SMOOTH",
"126 372 OFFCURVE",
"219 459 OFFCURVE",
"345 459 CURVE SMOOTH",
"417 459 OFFCURVE",
"459 437 OFFCURVE",
"491 401 CURVE",
"424 86 LINE",
"366 37 OFFCURVE",
"308 15 OFFCURVE",
"239 15 CURVE SMOOTH"
);
}
);
width = 522;
}
);
leftKerningGroup = a;
note = adotbelow;
rightKerningGroup = a;
unicode = 1EA1;
},
{
glyphname = agrave;
lastChange = "2015-10-25 05:59:49 +0000";
layers = (
{
layerId = "45AE5D37-AE90-4B36-85E4-274E7BAA8508";
name = "Light Italic";
paths = (
{
closed = 1;
nodes = (
"303 -10 OFFCURVE",
"362 11 OFFCURVE",
"419 57 CURVE",
"411 0 LINE",
"434 0 LINE",
"534 474 LINE",
"506 474 LINE",
"497 430 LINE",
"453 470 OFFCURVE",
"411 484 OFFCURVE",
"341 484 CURVE SMOOTH",
"210 484 OFFCURVE",
"103 391 OFFCURVE",
"66 218 CURVE SMOOTH",
"29 45 OFFCURVE",
"110 -10 OFFCURVE",
"228 -10 CURVE SMOOTH"
);
},
{
closed = 1;
nodes = (
"108 15 OFFCURVE",
"62 72 OFFCURVE",
"93 218 CURVE SMOOTH",
"126 372 OFFCURVE",
"219 459 OFFCURVE",
"345 459 CURVE SMOOTH",
"417 459 OFFCURVE",
"459 437 OFFCURVE",
"491 401 CURVE",
"424 86 LINE",
"366 37 OFFCURVE",
"308 15 OFFCURVE",
"239 15 CURVE SMOOTH"
);
},
{
closed = 1;
nodes = (
"371 522 LINE",
"340 671 LINE",
"310 671 LINE",
"348 522 LINE"
);
}
);
width = 522;
}
);
leftKerningGroup = a;
note = agrave;
rightKerningGroup = a;
unicode = 00E0;
},
{
glyphname = ahookabove;
lastChange = "2015-10-25 05:59:50 +0000";
layers = (
{
layerId = "45AE5D37-AE90-4B36-85E4-274E7BAA8508";
name = "Light Italic";
paths = (
{
closed = 1;
nodes = (
"303 -10 OFFCURVE",
"362 11 OFFCURVE",
"419 57 CURVE",
"411 0 LINE",
"434 0 LINE",
"534 474 LINE",
"506 474 LINE",
"497 430 LINE",
"453 470 OFFCURVE",
"411 484 OFFCURVE",
"341 484 CURVE SMOOTH",
"210 484 OFFCURVE",
"103 391 OFFCURVE",
"66 218 CURVE SMOOTH",
"29 45 OFFCURVE",
"110 -10 OFFCURVE",
"228 -10 CURVE SMOOTH"
);
},
{
closed = 1;
nodes = (
"108 15 OFFCURVE",
"62 72 OFFCURVE",
"93 218 CURVE SMOOTH",
"126 372 OFFCURVE",
"219 459 OFFCURVE",
"345 459 CURVE SMOOTH",
"417 459 OFFCURVE",
"459 437 OFFCURVE",
"491 401 CURVE",
"424 86 LINE",
"366 37 OFFCURVE",
"308 15 OFFCURVE",
"239 15 CURVE SMOOTH"
);
},
{
closed = 1;
nodes = (
"349 512 LINE",
"361 568 LINE",
"433 574 OFFCURVE",
"460 602 OFFCURVE",
"472 654 CURVE SMOOTH",
"483 709 OFFCURVE",
"449 739 OFFCURVE",
"379 739 CURVE SMOOTH",
"359 739 OFFCURVE",
"324 734 OFFCURVE",
"306 727 CURVE",
"301 702 LINE",
"320 709 OFFCURVE",
"350 714 OFFCURVE",
"372 714 CURVE SMOOTH",
"439 714 OFFCURVE",
"455 693 OFFCURVE",
"447 654 CURVE SMOOTH",
"438 613 OFFCURVE",
"423 590 OFFCURVE",
"337 587 CURVE",
"321 512 LINE"
);
}
);
width = 522;
}
);
leftKerningGroup = a;
note = ahookabove;
rightKerningGroup = a;
unicode = 1EA3;
},
{
glyphname = "alpha-latin";
lastChange = "2015-10-25 05:59:49 +0000";
layers = (
{
layerId = "45AE5D37-AE90-4B36-85E4-274E7BAA8508";
name = "Light Italic";
paths = (
{
closed = 1;
nodes = (
"303 -10 OFFCURVE",
"362 11 OFFCURVE",
"419 57 CURVE",
"411 0 LINE",
"434 0 LINE",
"534 474 LINE",
"506 474 LINE",
"497 430 LINE",
"453 470 OFFCURVE",
"411 484 OFFCURVE",
"341 484 CURVE SMOOTH",
"210 484 OFFCURVE",
"103 391 OFFCURVE",
"66 218 CURVE SMOOTH",
"29 45 OFFCURVE",
"110 -10 OFFCURVE",
"228 -10 CURVE SMOOTH"
);
},
{
closed = 1;
nodes = (
"108 15 OFFCURVE",
"62 72 OFFCURVE",
"93 218 CURVE SMOOTH",
"126 372 OFFCURVE",
"219 459 OFFCURVE",
"345 459 CURVE SMOOTH",
"417 459 OFFCURVE",
"459 437 OFFCURVE",
"491 401 CURVE",
"424 86 LINE",
"366 37 OFFCURVE",
"308 15 OFFCURVE",
"239 15 CURVE SMOOTH"
);
}
);
width = 554;
}
);
leftKerningGroup = a;
note = ascript;
rightKerningGroup = a;
unicode = 0251;
},
{
glyphname = amacron;
lastChange = "2015-10-25 05:59:50 +0000";
layers = (
{
layerId = "45AE5D37-AE90-4B36-85E4-274E7BAA8508";
name = "Light Italic";
paths = (
{
closed = 1;
nodes = (
"303 -10 OFFCURVE",
"362 11 OFFCURVE",
"419 57 CURVE",
"411 0 LINE",
"434 0 LINE",
"534 474 LINE",
"506 474 LINE",
"497 430 LINE",
"453 470 OFFCURVE",
"411 484 OFFCURVE",
"341 484 CURVE SMOOTH",
"210 484 OFFCURVE",
"103 391 OFFCURVE",
"66 218 CURVE SMOOTH",
"29 45 OFFCURVE",
"110 -10 OFFCURVE",
"228 -10 CURVE SMOOTH"
);
},
{
closed = 1;
nodes = (
"108 15 OFFCURVE",
"62 72 OFFCURVE",
"93 218 CURVE SMOOTH",
"126 372 OFFCURVE",
"219 459 OFFCURVE",
"345 459 CURVE SMOOTH",
"417 459 OFFCURVE",
"459 437 OFFCURVE",
"491 401 CURVE",
"424 86 LINE",
"366 37 OFFCURVE",
"308 15 OFFCURVE",
"239 15 CURVE SMOOTH"
);
},
{
closed = 1;
nodes = (
"486 552 LINE",
"492 577 LINE",
"226 577 LINE",
"220 552 LINE"
);
}
);
width = 522;
}
);
leftKerningGroup = a;
note = amacron;
rightKerningGroup = a;
unicode = 0101;
},
{
glyphname = aogonek;
lastChange = "2015-10-25 05:59:50 +0000";
layers = (
{
layerId = "45AE5D37-AE90-4B36-85E4-274E7BAA8508";
name = "Light Italic";
paths = (
{
closed = 1;
nodes = (
"382 -220 OFFCURVE",
"402 -217 OFFCURVE",
"418 -209 CURVE",
"423 -184 LINE",
"410 -191 OFFCURVE",
"389 -195 OFFCURVE",
"372 -195 CURVE SMOOTH",
"328 -195 OFFCURVE",
"320 -176 OFFCURVE",
"329 -135 CURVE SMOOTH",
"339 -88 OFFCURVE",
"373 -42 OFFCURVE",
"434 0 CURVE",
"534 474 LINE",
"506 474 LINE",
"497 430 LINE",
"453 470 OFFCURVE",
"411 484 OFFCURVE",
"341 484 CURVE SMOOTH",
"210 484 OFFCURVE",
"103 391 OFFCURVE",
"66 218 CURVE SMOOTH",
"29 45 OFFCURVE",
"110 -10 OFFCURVE",
"228 -10 CURVE SMOOTH",
"303 -10 OFFCURVE",
"362 11 OFFCURVE",
"419 57 CURVE",
"411 0 LINE",
"360 -27 OFFCURVE",
"314 -80 OFFCURVE",
"302 -135 CURVE SMOOTH",
"289 -198 OFFCURVE",
"322 -220 OFFCURVE",
"367 -220 CURVE SMOOTH"
);
},
{
closed = 1;
nodes = (
"108 15 OFFCURVE",
"62 72 OFFCURVE",
"93 218 CURVE SMOOTH",
"126 372 OFFCURVE",
"219 459 OFFCURVE",
"345 459 CURVE SMOOTH",
"417 459 OFFCURVE",
"459 437 OFFCURVE",
"491 401 CURVE",
"424 86 LINE",
"366 37 OFFCURVE",
"308 15 OFFCURVE",
"239 15 CURVE SMOOTH"
);
}
);
width = 561;
}
);
leftKerningGroup = a;
note = aogonek;
rightKerningGroup = a;
unicode = 0105;
},
{
glyphname = aring;
lastChange = "2015-10-25 05:59:50 +0000";
layers = (
{
layerId = "45AE5D37-AE90-4B36-85E4-274E7BAA8508";
name = "Light Italic";
paths = (
{
closed = 1;
nodes = (
"303 -10 OFFCURVE",
"362 11 OFFCURVE",
"419 57 CURVE",
"411 0 LINE",
"434 0 LINE",
"534 474 LINE",
"506 474 LINE",
"497 430 LINE",
"453 470 OFFCURVE",
"411 484 OFFCURVE",
"341 484 CURVE SMOOTH",
"210 484 OFFCURVE",
"103 391 OFFCURVE",
"66 218 CURVE SMOOTH",
"29 45 OFFCURVE",
"110 -10 OFFCURVE",
"228 -10 CURVE SMOOTH"
);
},
{
closed = 1;
nodes = (
"108 15 OFFCURVE",
"62 72 OFFCURVE",
"93 218 CURVE SMOOTH",
"126 372 OFFCURVE",
"219 459 OFFCURVE",
"345 459 CURVE SMOOTH",
"417 459 OFFCURVE",
"459 437 OFFCURVE",
"491 401 CURVE",
"424 86 LINE",
"366 37 OFFCURVE",
"308 15 OFFCURVE",
"239 15 CURVE SMOOTH"
);
},
{
closed = 1;
nodes = (
"413 522 OFFCURVE",
"460 564 OFFCURVE",
"471 617 CURVE SMOOTH",
"482 671 OFFCURVE",
"452 713 OFFCURVE",
"395 713 CURVE SMOOTH",
"338 713 OFFCURVE",
"291 671 OFFCURVE",
"280 617 CURVE SMOOTH",
"269 564 OFFCURVE",
"298 522 OFFCURVE",
"355 522 CURVE SMOOTH"
);
},
{
closed = 1;
nodes = (
"309 547 OFFCURVE",
"296 577 OFFCURVE",
"305 617 CURVE SMOOTH",
"313 658 OFFCURVE",
"350 688 OFFCURVE",
"390 688 CURVE SMOOTH",
"444 688 OFFCURVE",
"454 658 OFFCURVE",
"446 617 CURVE SMOOTH",
"437 577 OFFCURVE",
"401 547 OFFCURVE",
"360 547 CURVE SMOOTH"
);
}
);
width = 522;
}
);
leftKerningGroup = a;
note = aring;
rightKerningGroup = a;
unicode = 00E5;
},
{
glyphname = aringacute;
lastChange = "2015-10-25 05:59:50 +0000";
layers = (
{
layerId = "45AE5D37-AE90-4B36-85E4-274E7BAA8508";
name = "Light Italic";
paths = (
{
closed = 1;
nodes = (
"303 -10 OFFCURVE",
"362 11 OFFCURVE",
"419 57 CURVE",
"411 0 LINE",
"434 0 LINE",
"534 474 LINE",
"506 474 LINE",
"497 430 LINE",
"453 470 OFFCURVE",
"411 484 OFFCURVE",
"341 484 CURVE SMOOTH",
"210 484 OFFCURVE",
"103 391 OFFCURVE",
"66 218 CURVE SMOOTH",
"29 45 OFFCURVE",
"110 -10 OFFCURVE",
"228 -10 CURVE SMOOTH"
);
},
{
closed = 1;
nodes = (
"108 15 OFFCURVE",
"62 72 OFFCURVE",
"93 218 CURVE SMOOTH",
"126 372 OFFCURVE",
"219 459 OFFCURVE",
"345 459 CURVE SMOOTH",
"417 459 OFFCURVE",
"459 437 OFFCURVE",
"491 401 CURVE",
"424 86 LINE",
"366 37 OFFCURVE",
"308 15 OFFCURVE",
"239 15 CURVE SMOOTH"
);
},
{
closed = 1;
nodes = (
"408 522 OFFCURVE",
"455 564 OFFCURVE",
"466 617 CURVE SMOOTH",
"477 671 OFFCURVE",
"447 713 OFFCURVE",
"390 713 CURVE SMOOTH",
"333 713 OFFCURVE",
"286 671 OFFCURVE",
"275 617 CURVE SMOOTH",
"264 564 OFFCURVE",
"293 522 OFFCURVE",
"350 522 CURVE SMOOTH"
);
},
{
closed = 1;
nodes = (
"304 547 OFFCURVE",
"291 577 OFFCURVE",
"300 617 CURVE SMOOTH",
"308 658 OFFCURVE",
"345 688 OFFCURVE",
"385 688 CURVE SMOOTH",
"439 688 OFFCURVE",
"449 658 OFFCURVE",
"441 617 CURVE SMOOTH",
"432 577 OFFCURVE",
"396 547 OFFCURVE",
"355 547 CURVE SMOOTH"
);
},
{
closed = 1;
nodes = (
"437 780 LINE",
"539 899 LINE",
"509 899 LINE",
"414 780 LINE"
);
}
);
width = 522;
}
);
leftKerningGroup = a;
note = aringacute;
rightKerningGroup = a;
unicode = 01FB;
},
{
glyphname = atilde;
lastChange = "2015-10-25 05:59:50 +0000";
layers = (
{
layerId = "45AE5D37-AE90-4B36-85E4-274E7BAA8508";
name = "Light Italic";
paths = (
{
closed = 1;
nodes = (
"303 -10 OFFCURVE",
"362 11 OFFCURVE",
"419 57 CURVE",
"411 0 LINE",
"434 0 LINE",
"534 474 LINE",
"506 474 LINE",
"497 430 LINE",
"453 470 OFFCURVE",
"411 484 OFFCURVE",
"341 484 CURVE SMOOTH",
"210 484 OFFCURVE",
"103 391 OFFCURVE",
"66 218 CURVE SMOOTH",
"29 45 OFFCURVE",
"110 -10 OFFCURVE",
"228 -10 CURVE SMOOTH"
);
},
{
closed = 1;
nodes = (
"108 15 OFFCURVE",
"62 72 OFFCURVE",
"93 218 CURVE SMOOTH",
"126 372 OFFCURVE",
"219 459 OFFCURVE",
"345 459 CURVE SMOOTH",
"417 459 OFFCURVE",
"459 437 OFFCURVE",
"491 401 CURVE",
"424 86 LINE",
"366 37 OFFCURVE",
"308 15 OFFCURVE",
"239 15 CURVE SMOOTH"
);
},
{
closed = 1;
nodes = (
"452 552 OFFCURVE",
"475 562 OFFCURVE",
"492 580 CURVE",
"499 611 LINE",
"475 585 OFFCURVE",
"452 577 OFFCURVE",
"423 577 CURVE SMOOTH",
"380 577 OFFCURVE",
"359 613 OFFCURVE",
"310 613 CURVE SMOOTH",
"282 613 OFFCURVE",
"251 603 OFFCURVE",
"232 585 CURVE",
"226 554 LINE",
"253 581 OFFCURVE",
"280 588 OFFCURVE",
"308 588 CURVE SMOOTH",
"345 588 OFFCURVE",
"375 552 OFFCURVE",
"421 552 CURVE SMOOTH"
);
}
);
width = 522;
}
);
leftKerningGroup = a;
note = atilde;
rightKerningGroup = a;
unicode = 00E3;
},
{
glyphname = ae;
lastChange = "2015-10-25 05:59:50 +0000";
layers = (
{
layerId = "45AE5D37-AE90-4B36-85E4-274E7BAA8508";
name = "Light Italic";
paths = (
{
closed = 1;
nodes = (
"289 -10 OFFCURVE",
"371 27 OFFCURVE",
"421 108 CURVE",
"434 25 OFFCURVE",
"492 -10 OFFCURVE",
"614 -10 CURVE SMOOTH",
"657 -10 OFFCURVE",
"706 -1 OFFCURVE",
"747 14 CURVE",
"753 40 LINE",
"707 23 OFFCURVE",
"666 15 OFFCURVE",
"625 15 CURVE SMOOTH",
"462 15 OFFCURVE",
"422 74 OFFCURVE",
"453 218 CURVE",
"823 218 LINE",
"840 300 LINE SMOOTH",
"862 400 OFFCURVE",
"826 484 OFFCURVE",
"693 484 CURVE SMOOTH",
"593 484 OFFCURVE",
"525 444 OFFCURVE",
"480 373 CURVE",
"482 453 OFFCURVE",
"431 484 OFFCURVE",
"329 484 CURVE SMOOTH",
"270 484 OFFCURVE",
"214 476 OFFCURVE",
"170 460 CURVE",
"165 434 LINE",
"212 450 OFFCURVE",
"264 459 OFFCURVE",
"318 459 CURVE SMOOTH",
"455 459 OFFCURVE",
"468 419 OFFCURVE",
"446 317 CURVE SMOOTH",
"433 256 LINE",
"244 256 LINE SMOOTH",
"116 256 OFFCURVE",
"62 201 OFFCURVE",
"45 120 CURVE SMOOTH",
"25 26 OFFCURVE",
"91 -10 OFFCURVE",
"181 -10 CURVE SMOOTH"
);
},
{
closed = 1;
nodes = (
"106 15 OFFCURVE",
"56 45 OFFCURVE",
"72 120 CURVE SMOOTH",
"87 191 OFFCURVE",
"127 230 OFFCURVE",
"240 230 CURVE SMOOTH",
"427 230 LINE",
"411 154 LINE SMOOTH",
"393 67 OFFCURVE",
"293 15 OFFCURVE",
"194 15 CURVE SMOOTH"
);
},
{
closed = 1;
nodes = (
"487 377 OFFCURVE",
"551 459 OFFCURVE",
"688 459 CURVE SMOOTH",
"811 459 OFFCURVE",
"832 395 OFFCURVE",
"811 296 CURVE SMOOTH",
"800 244 LINE",
"458 244 LINE"
);
}
);
width = 877;
}
);
leftKerningGroup = a;
note = ae;
rightKerningGroup = e;
unicode = 00E6;
},
{
glyphname = aeacute;
lastChange = "2015-10-25 05:59:50 +0000";
layers = (
{
layerId = "45AE5D37-AE90-4B36-85E4-274E7BAA8508";
name = "Light Italic";
paths = (
{
closed = 1;
nodes = (
"289 -10 OFFCURVE",
"371 27 OFFCURVE",
"421 108 CURVE",
"434 25 OFFCURVE",
"492 -10 OFFCURVE",
"614 -10 CURVE SMOOTH",
"657 -10 OFFCURVE",
"706 -1 OFFCURVE",
"747 14 CURVE",
"753 40 LINE",
"707 23 OFFCURVE",
"666 15 OFFCURVE",
"625 15 CURVE SMOOTH",
"462 15 OFFCURVE",
"422 74 OFFCURVE",
"453 218 CURVE",
"823 218 LINE",
"840 300 LINE SMOOTH",
"862 400 OFFCURVE",
"826 484 OFFCURVE",
"693 484 CURVE SMOOTH",
"593 484 OFFCURVE",
"525 444 OFFCURVE",
"480 373 CURVE",
"482 453 OFFCURVE",
"431 484 OFFCURVE",
"329 484 CURVE SMOOTH",
"270 484 OFFCURVE",
"214 476 OFFCURVE",
"170 460 CURVE",
"165 434 LINE",
"212 450 OFFCURVE",
"264 459 OFFCURVE",
"318 459 CURVE SMOOTH",
"455 459 OFFCURVE",
"468 419 OFFCURVE",
"446 317 CURVE SMOOTH",
"433 256 LINE",
"244 256 LINE SMOOTH",
"116 256 OFFCURVE",
"62 201 OFFCURVE",
"45 120 CURVE SMOOTH",
"25 26 OFFCURVE",
"91 -10 OFFCURVE",
"181 -10 CURVE SMOOTH"
);
},
{
closed = 1;
nodes = (
"106 15 OFFCURVE",
"56 45 OFFCURVE",
"72 120 CURVE SMOOTH",
"87 191 OFFCURVE",
"127 230 OFFCURVE",
"240 230 CURVE SMOOTH",
"427 230 LINE",
"411 154 LINE SMOOTH",
"393 67 OFFCURVE",
"293 15 OFFCURVE",
"194 15 CURVE SMOOTH"
);
},
{
closed = 1;
nodes = (
"487 377 OFFCURVE",
"551 459 OFFCURVE",
"688 459 CURVE SMOOTH",
"811 459 OFFCURVE",
"832 395 OFFCURVE",
"811 296 CURVE SMOOTH",
"800 244 LINE",
"458 244 LINE"
);
},
{
closed = 1;
nodes = (
"537 522 LINE",
"639 671 LINE",
"609 671 LINE",
"514 522 LINE"
);
}
);
width = 877;
}
);
leftKerningGroup = a;
note = aeacute;
rightKerningGroup = e;
unicode = 01FD;
},
{
glyphname = b;
lastChange = "2015-10-25 05:59:50 +0000";
layers = (
{
layerId = "45AE5D37-AE90-4B36-85E4-274E7BAA8508";
name = "Light Italic";
paths = (
{
closed = 1;
nodes = (
"377 -10 OFFCURVE",
"468 68 OFFCURVE",
"505 241 CURVE SMOOTH",
"541 414 OFFCURVE",
"478 484 OFFCURVE",
"347 484 CURVE SMOOTH",
"277 484 OFFCURVE",
"219 468 OFFCURVE",
"159 430 CURVE",
"211 674 LINE",
"183 674 LINE",
"40 0 LINE",
"63 0 LINE",
"79 57 LINE",
"116 11 OFFCURVE",
"167 -10 OFFCURVE",
"240 -10 CURVE SMOOTH"
);
},
{
closed = 1;
nodes = (
"169 15 OFFCURVE",
"122 37 OFFCURVE",
"86 86 CURVE",
"153 401 LINE",
"202 435 OFFCURVE",
"261 459 OFFCURVE",
"333 459 CURVE SMOOTH",
"471 459 OFFCURVE",
"510 395 OFFCURVE",
"478 241 CURVE SMOOTH",
"447 95 OFFCURVE",
"377 15 OFFCURVE",
"241 15 CURVE SMOOTH"
);
}
);
width = 554;
}
);
note = b;
unicode = 0062;
},
{
glyphname = c;
lastChange = "2015-10-25 05:59:50 +0000";
layers = (
{
layerId = "45AE5D37-AE90-4B36-85E4-274E7BAA8508";
name = "Light Italic";
paths = (
{
closed = 1;
nodes = (
"295 -10 OFFCURVE",
"340 -1 OFFCURVE",
"378 14 CURVE",
"384 40 LINE",
"345 25 OFFCURVE",
"299 15 OFFCURVE",
"256 15 CURVE SMOOTH",
"101 15 OFFCURVE",
"65 87 OFFCURVE",
"97 237 CURVE SMOOTH",
"129 387 OFFCURVE",
"221 459 OFFCURVE",
"356 459 CURVE SMOOTH",
"401 459 OFFCURVE",
"433 451 OFFCURVE",
"468 434 CURVE",
"473 460 LINE",
"444 476 OFFCURVE",
"416 484 OFFCURVE",
"358 484 CURVE SMOOTH",
"212 484 OFFCURVE",
"105 403 OFFCURVE",
"70 237 CURVE SMOOTH",
"37 83 OFFCURVE",
"83 -10 OFFCURVE",
"243 -10 CURVE SMOOTH"
);
}
);
width = 476;
}
);
leftKerningGroup = c;
note = c;
rightKerningGroup = c;
unicode = 0063;
},
{
glyphname = cacute;
lastChange = "2015-10-25 05:59:50 +0000";
layers = (
{
layerId = "45AE5D37-AE90-4B36-85E4-274E7BAA8508";
name = "Light Italic";
paths = (
{
closed = 1;
nodes = (
"295 -10 OFFCURVE",
"340 -1 OFFCURVE",
"378 14 CURVE",
"384 40 LINE",
"345 25 OFFCURVE",
"299 15 OFFCURVE",
"256 15 CURVE SMOOTH",
"101 15 OFFCURVE",
"65 87 OFFCURVE",
"97 237 CURVE SMOOTH",
"129 387 OFFCURVE",
"221 459 OFFCURVE",
"356 459 CURVE SMOOTH",
"401 459 OFFCURVE",
"433 451 OFFCURVE",
"468 434 CURVE",
"473 460 LINE",
"444 476 OFFCURVE",
"416 484 OFFCURVE",
"358 484 CURVE SMOOTH",
"212 484 OFFCURVE",
"105 403 OFFCURVE",
"70 237 CURVE SMOOTH",
"37 83 OFFCURVE",
"83 -10 OFFCURVE",
"243 -10 CURVE SMOOTH"
);
},
{
closed = 1;
nodes = (
"351 522 LINE",
"453 671 LINE",
"423 671 LINE",
"328 522 LINE"
);
}
);
width = 476;
}
);
leftKerningGroup = c;
note = cacute;
rightKerningGroup = c;
unicode = 0107;
},
{
glyphname = ccaron;
lastChange = "2015-10-25 05:59:50 +0000";
layers = (
{
layerId = "45AE5D37-AE90-4B36-85E4-274E7BAA8508";
name = "Light Italic";
paths = (
{
closed = 1;
nodes = (
"295 -10 OFFCURVE",
"340 -1 OFFCURVE",
"378 14 CURVE",
"384 40 LINE",
"345 25 OFFCURVE",
"299 15 OFFCURVE",
"256 15 CURVE SMOOTH",
"101 15 OFFCURVE",
"65 87 OFFCURVE",
"97 237 CURVE SMOOTH",
"129 387 OFFCURVE",
"221 459 OFFCURVE",
"356 459 CURVE SMOOTH",
"401 459 OFFCURVE",
"433 451 OFFCURVE",
"468 434 CURVE",
"473 460 LINE",
"444 476 OFFCURVE",
"416 484 OFFCURVE",
"358 484 CURVE SMOOTH",
"212 484 OFFCURVE",
"105 403 OFFCURVE",
"70 237 CURVE SMOOTH",
"37 83 OFFCURVE",
"83 -10 OFFCURVE",
"243 -10 CURVE SMOOTH"
);
},
{
closed = 1;
nodes = (
"362 522 LINE",
"483 644 LINE",
"452 644 LINE",
"349 540 LINE",
"290 644 LINE",
"263 644 LINE",
"332 522 LINE"
);
}
);
width = 476;
}
);
leftKerningGroup = c;
note = ccaron;
rightKerningGroup = c;
unicode = 010D;
},
